<svg width="360" height="800" viewBox="0 0 360 800" fill="none" xmlns="http://www.w3.org/2000/svg">
<g clip-path="url(#clip0_10_2)">
<rect width="360" height="800" fill="#F5F5EF"/>
<rect x="16" y="235" width="330" height="330" rx="18" fill="white"/>
<rect x="230" y="540" width="280" height="3" rx="1.5" transform="rotate(-90 230 540)" fill="#D9D9D9"/>
<rect x="130" y="540" width="280" height="3" rx="1.5" transform="rotate(-90 130 540)" fill="#D9D9D9"/>
<rect x="41" y="450" width="280" height="3" rx="1.5" fill="#D9D9D9"/>
<rect x="41" y="350" width="280" height="3" rx="1.5" fill="#D9D9D9"/>
<rect width="362" height="24" transform="matrix(1 0 0 -1 0 24)" fill="#D9D9D9"/>
<path d="M27.4188 8.62784C27.7171 8.63021 28.0154 8.68703 28.3137 8.7983C28.6119 8.90956 28.8842 9.09422 29.1304 9.35227C29.3766 9.60795 29.5743 9.95715 29.7235 10.3999C29.8726 10.8426 29.9472 11.3977 29.9472 12.0653C29.9472 12.7116 29.8856 13.2857 29.7625 13.7876C29.6418 14.2872 29.4666 14.7086 29.2369 15.0518C29.0097 15.3951 28.7327 15.6555 28.406 15.8331C28.0816 16.0107 27.7147 16.0994 27.3051 16.0994C26.8979 16.0994 26.5345 16.0189 26.2149 15.858C25.8977 15.6946 25.6373 15.4685 25.4337 15.1797C25.2325 14.8885 25.1034 14.5511 25.0466 14.1676H25.9131C25.9912 14.5014 26.1463 14.7772 26.3783 14.995C26.6127 15.2105 26.9216 15.3182 27.3051 15.3182C27.8662 15.3182 28.3089 15.0732 28.6333 14.5831C28.96 14.093 29.1233 13.4006 29.1233 12.5057H29.0665C28.9339 12.7045 28.7765 12.8762 28.5942 13.0206C28.4119 13.165 28.2095 13.2763 27.9869 13.3544C27.7644 13.4325 27.5277 13.4716 27.2767 13.4716C26.8601 13.4716 26.4777 13.3686 26.1297 13.1626C25.7841 12.9543 25.5071 12.669 25.2987 12.3068C25.0928 11.9422 24.9898 11.5256 24.9898 11.0568C24.9898 10.6117 25.0892 10.2045 25.2881 9.83523C25.4893 9.46354 25.771 9.16761 26.1333 8.94744C26.4978 8.72727 26.9263 8.62074 27.4188 8.62784ZM27.4188 9.40909C27.1205 9.40909 26.8518 9.48366 26.6127 9.63281C26.3759 9.77959 26.1877 9.97846 26.048 10.2294C25.9107 10.478 25.8421 10.7538 25.8421 11.0568C25.8421 11.3598 25.9084 11.6357 26.0409 11.8842C26.1759 12.1304 26.3593 12.3269 26.5914 12.4737C26.8257 12.6181 27.0921 12.6903 27.3904 12.6903C27.6153 12.6903 27.8248 12.6465 28.0189 12.5589C28.213 12.469 28.3823 12.3471 28.5267 12.1932C28.6735 12.0369 28.7883 11.8606 28.8712 11.6641C28.954 11.4652 28.9955 11.258 28.9955 11.0426C28.9955 10.7585 28.9268 10.4922 28.7895 10.2436C28.6546 9.99503 28.4675 9.7938 28.2284 9.63991C27.9917 9.48603 27.7218 9.40909 27.4188 9.40909ZM31.9687 15.0696C31.7935 15.0696 31.6431 15.0069 31.5177 14.8814C31.3922 14.7559 31.3295 14.6056 31.3295 14.4304C31.3295 14.2552 31.3922 14.1049 31.5177 13.9794C31.6431 13.8539 31.7935 13.7912 31.9687 13.7912C32.1439 13.7912 32.2942 13.8539 32.4197 13.9794C32.5451 14.1049 32.6079 14.2552 32.6079 14.4304C32.6079 14.5464 32.5783 14.6529 32.5191 14.75C32.4623 14.8471 32.3853 14.9252 32.2883 14.9844C32.1936 15.0412 32.087 15.0696 31.9687 15.0696ZM31.9687 11.3906C31.7935 11.3906 31.6431 11.3279 31.5177 11.2024C31.3922 11.0769 31.3295 10.9266 31.3295 10.7514C31.3295 10.5762 31.3922 10.4259 31.5177 10.3004C31.6431 10.175 31.7935 10.1122 31.9687 10.1122C32.1439 10.1122 32.2942 10.175 32.4197 10.3004C32.5451 10.4259 32.6079 10.5762 32.6079 10.7514C32.6079 10.8674 32.5783 10.974 32.5191 11.071C32.4623 11.1681 32.3853 11.2462 32.2883 11.3054C32.1936 11.3622 32.087 11.3906 31.9687 11.3906ZM34.0976 16V15.3608L36.4981 12.733C36.7799 12.4252 37.0119 12.1577 37.1942 11.9304C37.3765 11.7008 37.5114 11.4853 37.599 11.2841C37.689 11.0805 37.7339 10.8674 37.7339 10.6449C37.7339 10.3892 37.6724 10.1679 37.5493 9.98082C37.4285 9.7938 37.2628 9.64938 37.0521 9.54759C36.8414 9.44579 36.6047 9.39489 36.3419 9.39489C36.0625 9.39489 35.8187 9.45289 35.6104 9.56889C35.4044 9.68253 35.2446 9.84233 35.1309 10.0483C35.0197 10.2543 34.964 10.4957 34.964 10.7727H34.126C34.126 10.3466 34.2242 9.97254 34.4207 9.65057C34.6172 9.3286 34.8847 9.07765 35.2233 8.89773C35.5642 8.7178 35.9465 8.62784 36.3703 8.62784C36.7964 8.62784 37.174 8.7178 37.5031 8.89773C37.8322 9.07765 38.0902 9.32031 38.2773 9.62571C38.4643 9.93111 38.5578 10.2708 38.5578 10.6449C38.5578 10.9124 38.5093 11.174 38.4122 11.4297C38.3175 11.683 38.1518 11.9659 37.915 12.2784C37.6807 12.5885 37.3551 12.9673 36.9385 13.4148L35.305 15.1619V15.2188H38.6856V16H34.0976ZM42.5244 16.0994C41.9894 16.0994 41.5336 15.9538 41.1572 15.6626C40.7808 15.3691 40.4932 14.9441 40.2943 14.3878C40.0954 13.8291 39.996 13.1544 39.996 12.3636C39.996 11.5777 40.0954 10.9065 40.2943 10.3501C40.4955 9.79143 40.7844 9.36529 41.1608 9.07173C41.5396 8.7758 41.9941 8.62784 42.5244 8.62784C43.0547 8.62784 43.5081 8.7758 43.8845 9.07173C44.2633 9.36529 44.5521 9.79143 44.751 10.3501C44.9522 10.9065 45.0528 11.5777 45.0528 12.3636C45.0528 13.1544 44.9534 13.8291 44.7545 14.3878C44.5557 14.9441 44.268 15.3691 43.8916 15.6626C43.5152 15.9538 43.0595 16.0994 42.5244 16.0994ZM42.5244 15.3182C43.0547 15.3182 43.4666 15.0625 43.7602 14.5511C44.0538 14.0398 44.2006 13.3106 44.2006 12.3636C44.2006 11.7339 44.1331 11.1977 43.9981 10.755C43.8656 10.3123 43.6738 9.97491 43.4229 9.7429C43.1743 9.51089 42.8748 9.39489 42.5244 9.39489C41.9988 9.39489 41.5881 9.65412 41.2922 10.1726C40.9962 10.6887 40.8483 11.419 40.8483 12.3636C40.8483 12.9934 40.9146 13.5284 41.0471 13.9688C41.1797 14.4091 41.3703 14.7441 41.6189 14.9737C41.8698 15.2034 42.1717 15.3182 42.5244 15.3182Z" fill="black"/>
<rect x="333" y="12.5454" width="8" height="5.45455" rx="1" fill="#4ECE39"/>
<path d="M333 12.5454H341" stroke="#4ECE39"/>
<path d="M334 7.44H335.105V7C335.105 6.44772 335.553 6 336.105 6H338.316C338.868 6 339.316 6.44772 339.316 7V7.44H340C340.552 7.44 341 7.88772 341 8.44V17C341 17.5523 340.552 18 340 18H334C333.448 18 333 17.5523 333 17V8.44C333 7.88772 333.448 7.44 334 7.44Z" stroke="black" stroke-opacity="0.67" stroke-width="0.5"/>
<rect x="93" y="121" width="175" height="55" rx="27.5" fill="white"/>
<path d="M160.668 139.94C160.548 140.407 160.395 140.913 160.208 141.46C160.022 142.007 159.815 142.553 159.588 143.1C159.375 143.633 159.162 144.14 158.948 144.62H157.648C157.742 144.247 157.835 143.847 157.928 143.42C158.035 142.993 158.128 142.567 158.208 142.14C158.302 141.7 158.382 141.273 158.448 140.86C158.528 140.447 158.595 140.067 158.648 139.72H160.528L160.668 139.94ZM166.484 150.48C166.231 150.32 165.944 150.193 165.624 150.1C165.318 150.007 164.998 149.92 164.664 149.84C164.344 149.76 164.031 149.673 163.724 149.58C163.418 149.473 163.138 149.327 162.884 149.14C162.338 148.727 162.018 148.22 161.924 147.62C161.844 147.007 161.978 146.393 162.324 145.78C162.511 145.46 162.758 145.2 163.064 145C163.371 144.787 163.704 144.627 164.064 144.52C164.438 144.4 164.818 144.333 165.204 144.32C165.591 144.307 165.958 144.327 166.304 144.38C166.531 144.42 166.771 144.48 167.024 144.56C167.278 144.627 167.511 144.72 167.724 144.84C167.951 144.96 168.151 145.113 168.324 145.3C168.511 145.473 168.644 145.693 168.724 145.96C168.778 146.133 168.784 146.3 168.744 146.46C168.718 146.62 168.651 146.753 168.544 146.86C168.451 146.967 168.324 147.047 168.164 147.1C168.018 147.153 167.858 147.167 167.684 147.14C167.484 147.1 167.298 147.04 167.124 146.96C166.951 146.88 166.778 146.793 166.604 146.7C166.431 146.607 166.251 146.527 166.064 146.46C165.891 146.393 165.704 146.36 165.504 146.36C165.198 146.347 164.944 146.4 164.744 146.52C164.544 146.64 164.404 146.787 164.324 146.96C164.258 147.133 164.264 147.32 164.344 147.52C164.438 147.72 164.624 147.893 164.904 148.04C165.158 148.173 165.438 148.28 165.744 148.36C166.051 148.44 166.351 148.52 166.644 148.6C166.951 148.68 167.244 148.773 167.524 148.88C167.818 148.987 168.078 149.133 168.304 149.32C168.744 149.68 169.011 150.1 169.104 150.58C169.211 151.06 169.184 151.533 169.024 152C168.864 152.467 168.584 152.88 168.184 153.24C167.798 153.6 167.338 153.84 166.804 153.96C166.418 154.04 165.998 154.08 165.544 154.08C165.104 154.08 164.664 154.033 164.224 153.94C163.798 153.847 163.384 153.7 162.984 153.5C162.598 153.3 162.271 153.047 162.004 152.74C161.818 152.527 161.718 152.287 161.704 152.02C161.704 151.74 161.758 151.5 161.864 151.3C161.984 151.087 162.151 150.94 162.364 150.86C162.578 150.78 162.818 150.827 163.084 151C163.298 151.147 163.551 151.293 163.844 151.44C164.138 151.573 164.431 151.68 164.724 151.76C165.018 151.84 165.298 151.88 165.564 151.88C165.844 151.88 166.084 151.82 166.284 151.7C166.578 151.513 166.731 151.3 166.744 151.06C166.758 150.807 166.671 150.613 166.484 150.48ZM187.022 140.46C187.168 140.633 187.242 140.813 187.242 141C187.242 141.08 187.235 141.167 187.222 141.26C187.222 141.34 187.215 141.413 187.202 141.48C187.162 141.627 187.075 141.767 186.942 141.9C186.835 141.98 186.688 142.04 186.502 142.08C186.408 142.107 186.315 142.127 186.222 142.14C186.128 142.153 186.028 142.173 185.922 142.2C185.828 142.213 185.735 142.22 185.642 142.22C185.548 142.22 185.448 142.22 185.342 142.22H184.322C184.082 142.233 183.842 142.24 183.602 142.24C183.375 142.24 183.148 142.24 182.922 142.24C182.935 142.653 182.942 143.1 182.942 143.58C182.942 144.047 182.935 144.593 182.922 145.22C182.922 145.847 182.915 146.573 182.902 147.4C182.902 148.227 182.902 149.187 182.902 150.28V151.8C182.902 151.933 182.908 152.033 182.922 152.1C182.922 152.153 182.922 152.207 182.922 152.26C182.922 152.3 182.915 152.353 182.902 152.42C182.875 152.54 182.855 152.68 182.842 152.84C182.842 152.907 182.835 152.973 182.822 153.04C182.808 153.093 182.788 153.153 182.762 153.22C182.708 153.273 182.682 153.313 182.682 153.34L182.622 153.46C182.555 153.593 182.428 153.72 182.242 153.84C181.948 153.987 181.622 154.02 181.262 153.94C181.035 153.913 180.862 153.853 180.742 153.76C180.622 153.64 180.535 153.52 180.482 153.4C180.402 153.253 180.355 153.113 180.342 152.98C180.302 152.86 180.282 152.733 180.282 152.6V142.32C180.202 142.32 180.035 142.32 179.782 142.32C179.528 142.32 179.255 142.32 178.962 142.32C178.682 142.307 178.415 142.293 178.162 142.28C177.908 142.267 177.735 142.253 177.642 142.24C177.562 142.227 177.435 142.207 177.262 142.18C177.102 142.153 176.968 142.127 176.862 142.1C176.582 142.02 176.362 141.893 176.202 141.72C176.055 141.547 175.982 141.353 175.982 141.14C175.982 141.06 175.982 140.98 175.982 140.9C175.982 140.82 175.995 140.747 176.022 140.68C176.062 140.52 176.168 140.387 176.342 140.28C176.395 140.24 176.475 140.193 176.582 140.14C176.702 140.073 176.815 140.027 176.922 140C177.082 139.947 177.282 139.907 177.522 139.88C177.628 139.867 177.735 139.86 177.842 139.86C177.948 139.86 178.062 139.86 178.182 139.86C178.648 139.86 179.088 139.86 179.502 139.86C179.928 139.86 180.375 139.853 180.842 139.84C181.615 139.827 182.382 139.827 183.142 139.84C183.915 139.84 184.682 139.853 185.442 139.88C185.615 139.893 185.782 139.913 185.942 139.94C186.102 139.967 186.262 140.013 186.422 140.08C186.542 140.12 186.655 140.173 186.762 140.24C186.868 140.293 186.955 140.367 187.022 140.46ZM195.549 149.24C195.523 149.68 195.496 150.127 195.469 150.58C195.443 151.02 195.369 151.447 195.249 151.86C195.143 152.273 194.969 152.647 194.729 152.98C194.503 153.313 194.176 153.58 193.749 153.78C193.376 153.967 192.976 154.093 192.549 154.16C192.123 154.24 191.696 154.273 191.269 154.26C190.843 154.247 190.429 154.18 190.029 154.06C189.629 153.953 189.269 153.8 188.949 153.6C188.629 153.4 188.369 153.14 188.169 152.82C187.969 152.5 187.809 152.153 187.689 151.78C187.583 151.407 187.509 151.02 187.469 150.62C187.429 150.22 187.403 149.847 187.389 149.5C187.336 148.58 187.336 147.673 187.389 146.78C187.389 146.607 187.389 146.413 187.389 146.2C187.389 145.973 187.403 145.753 187.429 145.54C187.469 145.327 187.529 145.133 187.609 144.96C187.689 144.773 187.823 144.633 188.009 144.54C188.409 144.327 188.776 144.313 189.109 144.5C189.456 144.687 189.663 145.073 189.729 145.66C189.769 145.967 189.783 146.307 189.769 146.68C189.769 147.053 189.783 147.393 189.809 147.7C189.823 148.153 189.836 148.647 189.849 149.18C189.863 149.7 189.936 150.167 190.069 150.58C190.216 150.993 190.449 151.307 190.769 151.52C191.103 151.72 191.596 151.727 192.249 151.54C192.556 151.447 192.756 151.213 192.849 150.84C192.956 150.467 193.009 149.913 193.009 149.18C193.009 148.86 193.003 148.507 192.989 148.12C192.976 147.733 192.969 147.353 192.969 146.98C192.969 146.593 192.976 146.24 192.989 145.92C193.016 145.587 193.056 145.333 193.109 145.16C193.176 144.92 193.316 144.74 193.529 144.62C193.743 144.5 193.969 144.44 194.209 144.44C194.449 144.427 194.676 144.473 194.889 144.58C195.103 144.687 195.249 144.86 195.329 145.1C195.409 145.313 195.463 145.587 195.489 145.92C195.529 146.24 195.556 146.593 195.569 146.98C195.583 147.353 195.583 147.74 195.569 148.14C195.569 148.527 195.563 148.893 195.549 149.24ZM197.213 146.92C197.213 146.76 197.213 146.58 197.213 146.38C197.213 146.167 197.219 145.953 197.233 145.74C197.246 145.513 197.266 145.3 197.293 145.1C197.333 144.887 197.386 144.7 197.453 144.54C197.559 144.3 197.726 144.14 197.953 144.06C198.179 143.967 198.426 143.927 198.693 143.94C198.973 143.94 199.193 143.987 199.353 144.08C199.513 144.173 199.633 144.3 199.713 144.46C199.793 144.607 199.839 144.78 199.853 144.98C199.879 145.167 199.893 145.367 199.893 145.58C200.013 145.367 200.173 145.193 200.373 145.06C200.586 144.927 200.799 144.82 201.013 144.74C201.226 144.66 201.419 144.607 201.593 144.58C201.766 144.54 201.866 144.52 201.893 144.52C202.226 144.493 202.526 144.487 202.793 144.5C203.073 144.513 203.379 144.573 203.713 144.68C203.926 144.76 204.146 144.873 204.373 145.02C204.599 145.153 204.799 145.313 204.973 145.5C205.146 145.687 205.259 145.893 205.313 146.12C205.379 146.333 205.353 146.56 205.233 146.8C205.046 147.133 204.839 147.3 204.613 147.3C204.386 147.287 204.139 147.247 203.873 147.18C203.726 147.153 203.553 147.093 203.353 147C203.153 146.907 202.979 146.847 202.833 146.82C202.379 146.753 201.979 146.787 201.633 146.92C201.286 147.053 200.986 147.213 200.733 147.4C200.439 147.627 200.186 147.887 199.973 148.18V151.06C199.973 151.42 199.966 151.793 199.953 152.18C199.953 152.567 199.899 152.92 199.793 153.24C199.699 153.547 199.533 153.8 199.293 154C199.066 154.187 198.733 154.267 198.293 154.24C198.053 154.227 197.839 154.113 197.653 153.9C197.466 153.673 197.353 153.453 197.313 153.24C197.286 153.04 197.266 152.8 197.253 152.52C197.239 152.24 197.226 151.947 197.213 151.64C197.213 151.333 197.213 151.027 197.213 150.72C197.213 150.4 197.213 150.107 197.213 149.84V146.92ZM206.978 146.86C206.978 146.553 206.972 146.227 206.958 145.88C206.958 145.533 207.018 145.22 207.138 144.94C207.245 144.687 207.418 144.507 207.658 144.4C207.912 144.28 208.158 144.253 208.398 144.32C208.638 144.36 208.825 144.433 208.958 144.54C209.092 144.647 209.185 144.773 209.238 144.92C209.305 145.053 209.345 145.213 209.358 145.4C209.372 145.573 209.385 145.747 209.398 145.92C209.532 145.68 209.698 145.487 209.898 145.34C210.098 145.193 210.305 145.073 210.518 144.98C210.732 144.887 210.932 144.82 211.118 144.78C211.318 144.74 211.472 144.72 211.578 144.72C212.085 144.72 212.585 144.833 213.078 145.06C213.585 145.273 214.005 145.58 214.338 145.98C214.525 146.22 214.665 146.473 214.758 146.74C214.865 146.993 214.938 147.26 214.978 147.54C215.032 147.82 215.065 148.107 215.078 148.4C215.092 148.68 215.105 148.967 215.118 149.26C215.185 150.113 215.185 150.96 215.118 151.8C215.105 151.973 215.098 152.173 215.098 152.4C215.098 152.627 215.078 152.853 215.038 153.08C215.012 153.293 214.952 153.487 214.858 153.66C214.778 153.82 214.638 153.92 214.438 153.96C214.158 154.027 213.925 154.04 213.738 154C213.565 153.973 213.425 153.913 213.318 153.82C213.212 153.727 213.132 153.607 213.078 153.46C213.025 153.313 212.978 153.147 212.938 152.96C212.912 152.813 212.885 152.647 212.858 152.46C212.845 152.26 212.832 152.06 212.818 151.86C212.818 151.66 212.812 151.467 212.798 151.28C212.798 151.08 212.798 150.9 212.798 150.74C212.798 150.487 212.792 150.207 212.778 149.9C212.765 149.593 212.765 149.307 212.778 149.04C212.778 148.413 212.612 147.94 212.278 147.62C211.958 147.287 211.518 147.147 210.958 147.2C210.532 147.253 210.158 147.427 209.838 147.72C209.518 148 209.365 148.367 209.378 148.82C209.378 148.993 209.378 149.153 209.378 149.3C209.378 149.447 209.372 149.593 209.358 149.74C209.358 149.887 209.358 150.047 209.358 150.22C209.358 150.393 209.358 150.587 209.358 150.8C209.358 151.24 209.358 151.707 209.358 152.2C209.358 152.68 209.298 153.073 209.178 153.38C209.072 153.7 208.892 153.92 208.638 154.04C208.385 154.16 208.085 154.127 207.738 153.94C207.592 153.86 207.472 153.753 207.378 153.62C207.298 153.473 207.232 153.32 207.178 153.16C207.138 153 207.112 152.84 207.098 152.68C207.085 152.507 207.072 152.347 207.058 152.2C207.018 151.76 206.992 151.353 206.978 150.98C206.978 150.593 206.978 150.18 206.978 149.74V146.86Z" fill="black" fill-opacity="0.67"/>
</g>
<defs>
<clipPath id="clip0_10_2">
<rect width="360" height="800" fill="white"/>
</clipPath>
</defs>
</svg>
