<svg width="360" height="800" viewBox="0 0 360 800" fill="none" xmlns="http://www.w3.org/2000/svg">
<g clip-path="url(#clip0_10_51)">
<rect width="360" height="800" fill="#F5F5EF"/>
<rect x="16" y="235" width="330" height="330" rx="18" fill="white"/>
<rect x="230" y="540" width="280" height="3" rx="1.5" transform="rotate(-90 230 540)" fill="#D9D9D9"/>
<rect x="130" y="540" width="280" height="3" rx="1.5" transform="rotate(-90 130 540)" fill="#D9D9D9"/>
<rect x="41" y="450" width="280" height="3" rx="1.5" fill="#D9D9D9"/>
<rect x="41" y="350" width="280" height="3" rx="1.5" fill="#D9D9D9"/>
<rect width="362" height="24" transform="matrix(1 0 0 -1 0 24)" fill="#D9D9D9"/>
<path d="M27.4188 8.62784C27.7171 8.63021 28.0154 8.68703 28.3137 8.7983C28.6119 8.90956 28.8842 9.09422 29.1304 9.35227C29.3766 9.60795 29.5743 9.95715 29.7235 10.3999C29.8726 10.8426 29.9472 11.3977 29.9472 12.0653C29.9472 12.7116 29.8856 13.2857 29.7625 13.7876C29.6418 14.2872 29.4666 14.7086 29.2369 15.0518C29.0097 15.3951 28.7327 15.6555 28.406 15.8331C28.0816 16.0107 27.7147 16.0994 27.3051 16.0994C26.8979 16.0994 26.5345 16.0189 26.2149 15.858C25.8977 15.6946 25.6373 15.4685 25.4337 15.1797C25.2325 14.8885 25.1034 14.5511 25.0466 14.1676H25.9131C25.9912 14.5014 26.1463 14.7772 26.3783 14.995C26.6127 15.2105 26.9216 15.3182 27.3051 15.3182C27.8662 15.3182 28.3089 15.0732 28.6333 14.5831C28.96 14.093 29.1233 13.4006 29.1233 12.5057H29.0665C28.9339 12.7045 28.7765 12.8762 28.5942 13.0206C28.4119 13.165 28.2095 13.2763 27.9869 13.3544C27.7644 13.4325 27.5277 13.4716 27.2767 13.4716C26.8601 13.4716 26.4777 13.3686 26.1297 13.1626C25.7841 12.9543 25.5071 12.669 25.2987 12.3068C25.0928 11.9422 24.9898 11.5256 24.9898 11.0568C24.9898 10.6117 25.0892 10.2045 25.2881 9.83523C25.4893 9.46354 25.771 9.16761 26.1333 8.94744C26.4978 8.72727 26.9263 8.62074 27.4188 8.62784ZM27.4188 9.40909C27.1205 9.40909 26.8518 9.48366 26.6127 9.63281C26.3759 9.77959 26.1877 9.97846 26.048 10.2294C25.9107 10.478 25.8421 10.7538 25.8421 11.0568C25.8421 11.3598 25.9084 11.6357 26.0409 11.8842C26.1759 12.1304 26.3593 12.3269 26.5914 12.4737C26.8257 12.6181 27.0921 12.6903 27.3904 12.6903C27.6153 12.6903 27.8248 12.6465 28.0189 12.5589C28.213 12.469 28.3823 12.3471 28.5267 12.1932C28.6735 12.0369 28.7883 11.8606 28.8712 11.6641C28.954 11.4652 28.9955 11.258 28.9955 11.0426C28.9955 10.7585 28.9268 10.4922 28.7895 10.2436C28.6546 9.99503 28.4675 9.7938 28.2284 9.63991C27.9917 9.48603 27.7218 9.40909 27.4188 9.40909ZM31.9687 15.0696C31.7935 15.0696 31.6431 15.0069 31.5177 14.8814C31.3922 14.7559 31.3295 14.6056 31.3295 14.4304C31.3295 14.2552 31.3922 14.1049 31.5177 13.9794C31.6431 13.8539 31.7935 13.7912 31.9687 13.7912C32.1439 13.7912 32.2942 13.8539 32.4197 13.9794C32.5451 14.1049 32.6079 14.2552 32.6079 14.4304C32.6079 14.5464 32.5783 14.6529 32.5191 14.75C32.4623 14.8471 32.3853 14.9252 32.2883 14.9844C32.1936 15.0412 32.087 15.0696 31.9687 15.0696ZM31.9687 11.3906C31.7935 11.3906 31.6431 11.3279 31.5177 11.2024C31.3922 11.0769 31.3295 10.9266 31.3295 10.7514C31.3295 10.5762 31.3922 10.4259 31.5177 10.3004C31.6431 10.175 31.7935 10.1122 31.9687 10.1122C32.1439 10.1122 32.2942 10.175 32.4197 10.3004C32.5451 10.4259 32.6079 10.5762 32.6079 10.7514C32.6079 10.8674 32.5783 10.974 32.5191 11.071C32.4623 11.1681 32.3853 11.2462 32.2883 11.3054C32.1936 11.3622 32.087 11.3906 31.9687 11.3906ZM34.0976 16V15.3608L36.4981 12.733C36.7799 12.4252 37.0119 12.1577 37.1942 11.9304C37.3765 11.7008 37.5114 11.4853 37.599 11.2841C37.689 11.0805 37.7339 10.8674 37.7339 10.6449C37.7339 10.3892 37.6724 10.1679 37.5493 9.98082C37.4285 9.7938 37.2628 9.64938 37.0521 9.54759C36.8414 9.44579 36.6047 9.39489 36.3419 9.39489C36.0625 9.39489 35.8187 9.45289 35.6104 9.56889C35.4044 9.68253 35.2446 9.84233 35.1309 10.0483C35.0197 10.2543 34.964 10.4957 34.964 10.7727H34.126C34.126 10.3466 34.2242 9.97254 34.4207 9.65057C34.6172 9.3286 34.8847 9.07765 35.2233 8.89773C35.5642 8.7178 35.9465 8.62784 36.3703 8.62784C36.7964 8.62784 37.174 8.7178 37.5031 8.89773C37.8322 9.07765 38.0902 9.32031 38.2773 9.62571C38.4643 9.93111 38.5578 10.2708 38.5578 10.6449C38.5578 10.9124 38.5093 11.174 38.4122 11.4297C38.3175 11.683 38.1518 11.9659 37.915 12.2784C37.6807 12.5885 37.3551 12.9673 36.9385 13.4148L35.305 15.1619V15.2188H38.6856V16H34.0976ZM42.5244 16.0994C41.9894 16.0994 41.5336 15.9538 41.1572 15.6626C40.7808 15.3691 40.4932 14.9441 40.2943 14.3878C40.0954 13.8291 39.996 13.1544 39.996 12.3636C39.996 11.5777 40.0954 10.9065 40.2943 10.3501C40.4955 9.79143 40.7844 9.36529 41.1608 9.07173C41.5396 8.7758 41.9941 8.62784 42.5244 8.62784C43.0547 8.62784 43.5081 8.7758 43.8845 9.07173C44.2633 9.36529 44.5521 9.79143 44.751 10.3501C44.9522 10.9065 45.0528 11.5777 45.0528 12.3636C45.0528 13.1544 44.9534 13.8291 44.7545 14.3878C44.5557 14.9441 44.268 15.3691 43.8916 15.6626C43.5152 15.9538 43.0595 16.0994 42.5244 16.0994ZM42.5244 15.3182C43.0547 15.3182 43.4666 15.0625 43.7602 14.5511C44.0538 14.0398 44.2006 13.3106 44.2006 12.3636C44.2006 11.7339 44.1331 11.1977 43.9981 10.755C43.8656 10.3123 43.6738 9.97491 43.4229 9.7429C43.1743 9.51089 42.8748 9.39489 42.5244 9.39489C41.9988 9.39489 41.5881 9.65412 41.2922 10.1726C40.9962 10.6887 40.8483 11.419 40.8483 12.3636C40.8483 12.9934 40.9146 13.5284 41.0471 13.9688C41.1797 14.4091 41.3703 14.7441 41.6189 14.9737C41.8698 15.2034 42.1717 15.3182 42.5244 15.3182Z" fill="black"/>
<rect x="333" y="12.5454" width="8" height="5.45455" rx="1" fill="#4ECE39"/>
<path d="M333 12.5454H341" stroke="#4ECE39"/>
<path d="M334 7.44H335.105V7C335.105 6.44772 335.553 6 336.105 6H338.316C338.868 6 339.316 6.44772 339.316 7V7.44H340C340.552 7.44 341 7.88772 341 8.44V17C341 17.5523 340.552 18 340 18H334C333.448 18 333 17.5523 333 17V8.44C333 7.88772 333.448 7.44 334 7.44Z" stroke="black" stroke-opacity="0.67" stroke-width="0.5"/>
<rect x="93" y="121" width="175" height="55" rx="27.5" fill="white"/>
<rect x="70" y="624" width="220" height="50" rx="18" fill="#ECCA73"/>
<path d="M124.197 640.875C124.83 641.458 125.297 642.158 125.597 642.975C125.897 643.775 126.014 644.575 125.947 645.375C125.88 646.142 125.639 646.85 125.222 647.5C124.805 648.133 124.172 648.617 123.322 648.95C122.655 649.233 121.997 649.433 121.347 649.55C120.697 649.667 119.98 649.758 119.197 649.825C118.847 649.858 118.547 649.883 118.297 649.9C118.064 649.9 117.789 649.908 117.472 649.925C117.405 649.925 117.289 649.925 117.122 649.925C116.972 649.925 116.864 649.933 116.797 649.95V655.125C116.747 655.442 116.68 655.767 116.597 656.1C116.53 656.433 116.339 656.692 116.022 656.875C115.839 656.975 115.614 657.033 115.347 657.05C115.08 657.067 114.839 657.058 114.622 657.025C114.389 656.992 114.189 656.933 114.022 656.85C113.872 656.75 113.747 656.583 113.647 656.35C113.58 656.2 113.514 656.033 113.447 655.85C113.397 655.65 113.372 655.408 113.372 655.125V641.3C113.372 641.183 113.38 641.075 113.397 640.975C113.414 640.875 113.43 640.775 113.447 640.675C113.48 640.592 113.505 640.5 113.522 640.4C113.539 640.3 113.564 640.208 113.597 640.125C113.63 640.042 113.664 639.967 113.697 639.9C113.747 639.833 113.805 639.775 113.872 639.725C113.955 639.642 114.08 639.567 114.247 639.5C114.43 639.433 114.697 639.4 115.047 639.4H115.097C115.614 639.367 116.189 639.342 116.822 639.325C117.455 639.292 117.98 639.3 118.397 639.35C118.63 639.383 118.847 639.408 119.047 639.425C119.247 639.425 119.439 639.433 119.622 639.45C119.822 639.467 120.022 639.483 120.222 639.5C120.422 639.517 120.622 639.542 120.822 639.575C120.989 639.608 121.139 639.633 121.272 639.65C121.422 639.667 121.572 639.692 121.722 639.725C121.855 639.758 121.997 639.792 122.147 639.825C122.314 639.858 122.464 639.917 122.597 640C122.947 640.1 123.239 640.225 123.472 640.375C123.705 640.525 123.947 640.692 124.197 640.875ZM122.697 645C122.714 644.6 122.63 644.25 122.447 643.95C122.28 643.65 122.039 643.4 121.722 643.2C121.405 643 121.047 642.842 120.647 642.725C120.247 642.608 119.847 642.525 119.447 642.475C119.347 642.475 119.205 642.475 119.022 642.475C118.855 642.458 118.672 642.45 118.472 642.45C118.272 642.433 118.08 642.425 117.897 642.425C117.73 642.408 117.597 642.4 117.497 642.4C117.414 642.383 117.314 642.375 117.197 642.375C117.08 642.375 116.947 642.375 116.797 642.375C116.814 642.892 116.822 643.392 116.822 643.875C116.822 644.342 116.822 644.85 116.822 645.4C116.805 645.7 116.797 646 116.797 646.3C116.797 646.6 116.797 646.892 116.797 647.175L118.347 647.15C118.747 647.15 119.189 647.125 119.672 647.075C120.155 647.025 120.614 646.925 121.047 646.775C121.48 646.625 121.847 646.408 122.147 646.125C122.464 645.842 122.647 645.467 122.697 645ZM139.546 655.1C139.579 655.183 139.596 655.308 139.596 655.475C139.596 655.625 139.596 655.75 139.596 655.85C139.596 655.983 139.571 656.108 139.521 656.225C139.471 656.342 139.404 656.45 139.321 656.55C139.171 656.75 138.954 656.9 138.671 657C138.271 657.133 137.896 657.2 137.546 657.2C137.363 657.217 137.171 657.225 136.971 657.225C136.771 657.225 136.571 657.242 136.371 657.275H136.271C134.988 657.292 133.663 657.292 132.296 657.275C131.963 657.258 131.588 657.258 131.171 657.275C130.754 657.308 130.346 657.3 129.946 657.25C129.546 657.217 129.179 657.125 128.846 656.975C128.529 656.808 128.304 656.55 128.171 656.2C128.138 656.117 128.113 656.042 128.096 655.975C128.079 655.892 128.071 655.808 128.071 655.725C128.004 655.158 127.979 654.6 127.996 654.05C128.013 653.5 128.021 652.958 128.021 652.425L128.071 648.8V645.45C128.071 644.85 128.071 644.317 128.071 643.85C128.088 643.383 128.104 642.867 128.121 642.3V642.175C128.138 642.008 128.146 641.842 128.146 641.675C128.163 641.508 128.171 641.342 128.171 641.175C128.204 640.792 128.296 640.467 128.446 640.2C128.546 639.95 128.721 639.75 128.971 639.6C129.188 639.45 129.446 639.375 129.746 639.375C129.863 639.375 129.971 639.383 130.071 639.4C130.188 639.4 130.296 639.408 130.396 639.425C130.496 639.442 130.588 639.475 130.671 639.525C130.771 639.575 130.871 639.642 130.971 639.725C131.071 639.842 131.163 639.983 131.246 640.15C131.313 640.333 131.354 640.517 131.371 640.7C131.388 640.817 131.404 640.925 131.421 641.025C131.438 641.125 131.446 641.225 131.446 641.325C131.413 641.425 131.396 641.525 131.396 641.625C131.396 641.725 131.396 641.817 131.396 641.9V642.35L131.296 654.125L136.246 654.175H137.421C137.521 654.175 137.629 654.183 137.746 654.2C137.863 654.2 137.979 654.208 138.096 654.225C138.229 654.242 138.346 654.258 138.446 654.275C138.546 654.292 138.646 654.317 138.746 654.35C138.929 654.4 139.079 654.483 139.196 654.6C139.379 654.767 139.496 654.933 139.546 655.1ZM157.02 655.3C157.036 655.4 157.045 655.5 157.045 655.6C157.061 655.683 157.07 655.783 157.07 655.9C157.07 656.1 157.011 656.283 156.895 656.45C156.845 656.533 156.778 656.617 156.695 656.7C156.611 656.767 156.511 656.825 156.395 656.875C155.978 657.108 155.536 657.192 155.07 657.125C154.836 657.058 154.628 656.95 154.445 656.8C154.411 656.767 154.386 656.75 154.37 656.75C154.353 656.733 154.336 656.708 154.32 656.675C154.303 656.658 154.286 656.642 154.27 656.625C154.253 656.592 154.228 656.567 154.195 656.55C154.111 656.467 154.045 656.392 153.995 656.325C153.945 656.242 153.895 656.158 153.845 656.075C153.811 655.992 153.77 655.917 153.72 655.85C153.686 655.767 153.645 655.683 153.595 655.6C153.561 655.533 153.528 655.475 153.495 655.425C153.461 655.358 153.436 655.292 153.42 655.225C153.353 655.075 153.311 654.942 153.295 654.825L152.77 653.6C151.62 653.6 150.47 653.608 149.32 653.625C148.186 653.625 147.045 653.617 145.895 653.6L145.37 654.825C145.336 654.892 145.311 654.958 145.295 655.025C145.295 655.092 145.278 655.158 145.245 655.225C145.211 655.292 145.178 655.358 145.145 655.425C145.128 655.475 145.103 655.533 145.07 655.6C145.02 655.683 144.97 655.767 144.92 655.85C144.886 655.917 144.845 655.992 144.795 656.075C144.761 656.158 144.72 656.242 144.67 656.325C144.62 656.392 144.553 656.467 144.47 656.55C144.436 656.567 144.411 656.592 144.395 656.625C144.378 656.642 144.361 656.658 144.345 656.675C144.328 656.708 144.311 656.733 144.295 656.75C144.278 656.75 144.253 656.767 144.22 656.8C144.036 656.95 143.828 657.058 143.595 657.125C143.128 657.192 142.686 657.108 142.27 656.875C142.153 656.825 142.053 656.767 141.97 656.7C141.886 656.617 141.82 656.533 141.77 656.45C141.653 656.283 141.595 656.1 141.595 655.9C141.595 655.783 141.595 655.683 141.595 655.6C141.611 655.5 141.628 655.4 141.645 655.3C141.678 655.15 141.72 655 141.77 654.85C141.82 654.7 141.845 654.625 141.845 654.625L147.045 641.825L147.195 641.425C147.228 641.325 147.27 641.233 147.32 641.15C147.37 641.067 147.411 640.967 147.445 640.85C147.528 640.633 147.62 640.442 147.72 640.275C147.77 640.175 147.828 640.083 147.895 640C147.961 639.917 148.028 639.833 148.095 639.75C148.195 639.617 148.336 639.508 148.52 639.425C148.753 639.342 149.02 639.3 149.32 639.3C149.636 639.3 149.911 639.342 150.145 639.425C150.328 639.508 150.47 639.617 150.57 639.75C150.686 639.9 150.811 640.075 150.945 640.275C151.045 640.442 151.136 640.633 151.22 640.85C151.253 640.967 151.295 641.067 151.345 641.15C151.395 641.233 151.436 641.325 151.47 641.425L151.62 641.825L156.82 654.625C156.82 654.625 156.845 654.7 156.895 654.85C156.945 655 156.986 655.15 157.02 655.3ZM151.095 649.175C150.878 648.692 150.653 648.192 150.42 647.675C150.203 647.158 149.97 646.633 149.72 646.1C149.653 645.95 149.586 645.8 149.52 645.65C149.453 645.483 149.386 645.325 149.32 645.175C149.27 645.325 149.211 645.483 149.145 645.65C149.078 645.8 149.011 645.95 148.945 646.1C148.695 646.633 148.453 647.158 148.22 647.675C148.003 648.192 147.786 648.692 147.57 649.175L147.12 650.275H151.545L151.095 649.175ZM170.035 640.375C170.052 640.458 170.052 640.542 170.035 640.625C170.035 640.708 170.01 640.8 169.96 640.9C169.893 641.133 169.818 641.342 169.735 641.525C169.635 641.758 169.51 641.958 169.36 642.125C169.293 642.225 169.227 642.325 169.16 642.425C169.11 642.508 169.06 642.592 169.01 642.675L168.685 643.1L165.485 647.725L164.91 648.45V655.1C164.877 655.183 164.86 655.267 164.86 655.35C164.86 655.433 164.852 655.525 164.835 655.625C164.802 655.708 164.777 655.792 164.76 655.875C164.743 655.942 164.718 656.017 164.685 656.1C164.652 656.167 164.635 656.217 164.635 656.25C164.618 656.283 164.602 656.308 164.585 656.325C164.585 656.342 164.577 656.367 164.56 656.4C164.46 656.567 164.318 656.717 164.135 656.85C163.768 657.033 163.352 657.075 162.885 656.975C162.618 656.942 162.418 656.858 162.285 656.725C162.202 656.675 162.135 656.617 162.085 656.55C162.035 656.483 161.985 656.408 161.935 656.325C161.902 656.225 161.868 656.133 161.835 656.05C161.802 655.967 161.777 655.883 161.76 655.8C161.727 655.717 161.71 655.642 161.71 655.575C161.71 655.492 161.71 655.417 161.71 655.35V648.525L161.16 647.675L157.91 643.075L157.635 642.625C157.535 642.475 157.41 642.3 157.26 642.1C157.127 641.917 157.01 641.717 156.91 641.5C156.843 641.4 156.785 641.3 156.735 641.2C156.702 641.083 156.668 640.967 156.635 640.85C156.585 640.683 156.577 640.517 156.61 640.35C156.66 640.133 156.76 639.95 156.91 639.8C157.077 639.65 157.252 639.533 157.435 639.45C157.668 639.283 157.935 639.217 158.235 639.25C158.418 639.25 158.577 639.283 158.71 639.35C158.843 639.417 158.977 639.492 159.11 639.575C159.26 639.692 159.402 639.817 159.535 639.95C159.685 640.083 159.818 640.225 159.935 640.375C160.068 640.542 160.193 640.7 160.31 640.85C160.427 640.983 160.543 641.142 160.66 641.325L160.735 641.425C161.135 641.958 161.51 642.475 161.86 642.975C162.21 643.458 162.577 643.983 162.96 644.55C162.993 644.583 163.043 644.65 163.11 644.75C163.177 644.85 163.252 644.967 163.335 645.1C163.402 644.983 163.46 644.883 163.51 644.8C163.577 644.7 163.627 644.633 163.66 644.6C164.043 644.033 164.41 643.5 164.76 643C165.11 642.5 165.485 641.983 165.885 641.45L165.935 641.35C166.068 641.2 166.185 641.05 166.285 640.9C166.402 640.733 166.527 640.567 166.66 640.4C166.877 640.1 167.168 639.842 167.535 639.625C167.802 639.442 168.077 639.325 168.36 639.275C168.677 639.242 168.952 639.308 169.185 639.475C169.285 639.542 169.377 639.6 169.46 639.65C169.56 639.7 169.643 639.758 169.71 639.825C169.843 639.975 169.952 640.158 170.035 640.375ZM193.983 655.3C193.999 655.4 194.008 655.5 194.008 655.6C194.024 655.683 194.033 655.783 194.033 655.9C194.033 656.1 193.974 656.283 193.858 656.45C193.808 656.533 193.741 656.617 193.658 656.7C193.574 656.767 193.474 656.825 193.358 656.875C192.941 657.108 192.499 657.192 192.033 657.125C191.799 657.058 191.591 656.95 191.408 656.8C191.374 656.767 191.349 656.75 191.333 656.75C191.316 656.733 191.299 656.708 191.283 656.675C191.266 656.658 191.249 656.642 191.233 656.625C191.216 656.592 191.191 656.567 191.158 656.55C191.074 656.467 191.008 656.392 190.958 656.325C190.908 656.242 190.858 656.158 190.808 656.075C190.774 655.992 190.733 655.917 190.683 655.85C190.649 655.767 190.608 655.683 190.558 655.6C190.524 655.533 190.491 655.475 190.458 655.425C190.424 655.358 190.399 655.292 190.383 655.225C190.316 655.075 190.274 654.942 190.258 654.825L189.733 653.6C188.583 653.6 187.433 653.608 186.283 653.625C185.149 653.625 184.008 653.617 182.858 653.6L182.333 654.825C182.299 654.892 182.274 654.958 182.258 655.025C182.258 655.092 182.241 655.158 182.208 655.225C182.174 655.292 182.141 655.358 182.108 655.425C182.091 655.475 182.066 655.533 182.033 655.6C181.983 655.683 181.933 655.767 181.883 655.85C181.849 655.917 181.808 655.992 181.758 656.075C181.724 656.158 181.683 656.242 181.633 656.325C181.583 656.392 181.516 656.467 181.433 656.55C181.399 656.567 181.374 656.592 181.358 656.625C181.341 656.642 181.324 656.658 181.308 656.675C181.291 656.708 181.274 656.733 181.258 656.75C181.241 656.75 181.216 656.767 181.183 656.8C180.999 656.95 180.791 657.058 180.558 657.125C180.091 657.192 179.649 657.108 179.233 656.875C179.116 656.825 179.016 656.767 178.933 656.7C178.849 656.617 178.783 656.533 178.733 656.45C178.616 656.283 178.558 656.1 178.558 655.9C178.558 655.783 178.558 655.683 178.558 655.6C178.574 655.5 178.591 655.4 178.608 655.3C178.641 655.15 178.683 655 178.733 654.85C178.783 654.7 178.808 654.625 178.808 654.625L184.008 641.825L184.158 641.425C184.191 641.325 184.233 641.233 184.283 641.15C184.333 641.067 184.374 640.967 184.408 640.85C184.491 640.633 184.583 640.442 184.683 640.275C184.733 640.175 184.791 640.083 184.858 640C184.924 639.917 184.991 639.833 185.058 639.75C185.158 639.617 185.299 639.508 185.483 639.425C185.716 639.342 185.983 639.3 186.283 639.3C186.599 639.3 186.874 639.342 187.108 639.425C187.291 639.508 187.433 639.617 187.533 639.75C187.649 639.9 187.774 640.075 187.908 640.275C188.008 640.442 188.099 640.633 188.183 640.85C188.216 640.967 188.258 641.067 188.308 641.15C188.358 641.233 188.399 641.325 188.433 641.425L188.583 641.825L193.783 654.625C193.783 654.625 193.808 654.7 193.858 654.85C193.908 655 193.949 655.15 193.983 655.3ZM188.058 649.175C187.841 648.692 187.616 648.192 187.383 647.675C187.166 647.158 186.933 646.633 186.683 646.1C186.616 645.95 186.549 645.8 186.483 645.65C186.416 645.483 186.349 645.325 186.283 645.175C186.233 645.325 186.174 645.483 186.108 645.65C186.041 645.8 185.974 645.95 185.908 646.1C185.658 646.633 185.416 647.158 185.183 647.675C184.966 648.192 184.749 648.692 184.533 649.175L184.083 650.275H188.508L188.058 649.175ZM208.506 651.05C208.506 651.55 208.481 652.058 208.431 652.575C208.381 653.075 208.281 653.567 208.131 654.05C207.981 654.517 207.756 654.967 207.456 655.4C207.156 655.817 206.748 656.183 206.231 656.5C205.981 656.667 205.681 656.808 205.331 656.925C204.998 657.025 204.64 657.108 204.256 657.175C203.89 657.258 203.523 657.308 203.156 657.325C202.79 657.358 202.448 657.367 202.131 657.35C200.631 657.3 199.415 656.942 198.481 656.275C197.565 655.592 196.856 654.75 196.356 653.75C195.873 652.75 195.556 651.667 195.406 650.5C195.273 649.317 195.248 648.192 195.331 647.125C195.381 646.492 195.49 645.808 195.656 645.075C195.84 644.342 196.098 643.633 196.431 642.95C196.781 642.267 197.206 641.65 197.706 641.1C198.223 640.55 198.831 640.133 199.531 639.85C200.181 639.583 200.89 639.417 201.656 639.35C202.44 639.267 203.206 639.292 203.956 639.425C204.723 639.558 205.431 639.8 206.081 640.15C206.748 640.5 207.273 640.967 207.656 641.55C207.923 641.983 208.131 642.508 208.281 643.125C208.431 643.742 208.456 644.333 208.356 644.9C208.273 645.4 208.098 645.75 207.831 645.95C207.565 646.133 207.273 646.208 206.956 646.175C206.64 646.125 206.331 645.992 206.031 645.775C205.748 645.542 205.556 645.25 205.456 644.9C205.34 644.517 205.198 644.167 205.031 643.85C204.865 643.517 204.606 643.242 204.256 643.025C203.856 642.775 203.431 642.633 202.981 642.6C202.548 642.567 202.123 642.617 201.706 642.75C201.306 642.883 200.923 643.092 200.556 643.375C200.206 643.658 199.915 643.983 199.681 644.35C199.398 644.767 199.181 645.225 199.031 645.725C198.881 646.208 198.773 646.717 198.706 647.25C198.64 647.767 198.615 648.292 198.631 648.825C198.665 649.342 198.731 649.842 198.831 650.325C199.015 651.142 199.298 651.908 199.681 652.625C199.831 652.892 200.031 653.133 200.281 653.35C200.548 653.55 200.84 653.717 201.156 653.85C201.473 653.967 201.806 654.042 202.156 654.075C202.506 654.108 202.84 654.083 203.156 654C203.606 653.883 203.973 653.733 204.256 653.55C204.54 653.35 204.765 653.117 204.931 652.85C205.098 652.583 205.206 652.292 205.256 651.975C205.323 651.658 205.356 651.325 205.356 650.975V650.95C205.14 650.95 204.948 650.95 204.781 650.95C204.615 650.933 204.49 650.925 204.406 650.925C204.04 650.925 203.681 650.858 203.331 650.725C203.031 650.625 202.806 650.467 202.656 650.25C202.49 650.067 202.406 649.842 202.406 649.575C202.406 649.475 202.406 649.383 202.406 649.3C202.423 649.2 202.44 649.1 202.456 649C202.506 648.867 202.615 648.7 202.781 648.5C202.881 648.417 203.04 648.35 203.256 648.3C203.356 648.267 203.456 648.242 203.556 648.225C203.656 648.192 203.773 648.167 203.906 648.15C204.006 648.133 204.115 648.125 204.231 648.125C204.348 648.125 204.465 648.125 204.581 648.125H206.856C207.04 648.108 207.248 648.133 207.481 648.2C207.731 648.25 207.923 648.333 208.056 648.45C208.106 648.517 208.156 648.583 208.206 648.65C208.256 648.717 208.298 648.792 208.331 648.875C208.398 649.058 208.44 649.242 208.456 649.425C208.473 649.525 208.481 649.633 208.481 649.75C208.498 649.85 208.506 649.942 208.506 650.025V651.05ZM225.941 655.3C225.957 655.4 225.966 655.5 225.966 655.6C225.982 655.683 225.991 655.783 225.991 655.9C225.991 656.1 225.932 656.283 225.816 656.45C225.766 656.533 225.699 656.617 225.616 656.7C225.532 656.767 225.432 656.825 225.316 656.875C224.899 657.108 224.457 657.192 223.991 657.125C223.757 657.058 223.549 656.95 223.366 656.8C223.332 656.767 223.307 656.75 223.291 656.75C223.274 656.733 223.257 656.708 223.241 656.675C223.224 656.658 223.207 656.642 223.191 656.625C223.174 656.592 223.149 656.567 223.116 656.55C223.032 656.467 222.966 656.392 222.916 656.325C222.866 656.242 222.816 656.158 222.766 656.075C222.732 655.992 222.691 655.917 222.641 655.85C222.607 655.767 222.566 655.683 222.516 655.6C222.482 655.533 222.449 655.475 222.416 655.425C222.382 655.358 222.357 655.292 222.341 655.225C222.274 655.075 222.232 654.942 222.216 654.825L221.691 653.6C220.541 653.6 219.391 653.608 218.241 653.625C217.107 653.625 215.966 653.617 214.816 653.6L214.291 654.825C214.257 654.892 214.232 654.958 214.216 655.025C214.216 655.092 214.199 655.158 214.166 655.225C214.132 655.292 214.099 655.358 214.066 655.425C214.049 655.475 214.024 655.533 213.991 655.6C213.941 655.683 213.891 655.767 213.841 655.85C213.807 655.917 213.766 655.992 213.716 656.075C213.682 656.158 213.641 656.242 213.591 656.325C213.541 656.392 213.474 656.467 213.391 656.55C213.357 656.567 213.332 656.592 213.316 656.625C213.299 656.642 213.282 656.658 213.266 656.675C213.249 656.708 213.232 656.733 213.216 656.75C213.199 656.75 213.174 656.767 213.141 656.8C212.957 656.95 212.749 657.058 212.516 657.125C212.049 657.192 211.607 657.108 211.191 656.875C211.074 656.825 210.974 656.767 210.891 656.7C210.807 656.617 210.741 656.533 210.691 656.45C210.574 656.283 210.516 656.1 210.516 655.9C210.516 655.783 210.516 655.683 210.516 655.6C210.532 655.5 210.549 655.4 210.566 655.3C210.599 655.15 210.641 655 210.691 654.85C210.741 654.7 210.766 654.625 210.766 654.625L215.966 641.825L216.116 641.425C216.149 641.325 216.191 641.233 216.241 641.15C216.291 641.067 216.332 640.967 216.366 640.85C216.449 640.633 216.541 640.442 216.641 640.275C216.691 640.175 216.749 640.083 216.816 640C216.882 639.917 216.949 639.833 217.016 639.75C217.116 639.617 217.257 639.508 217.441 639.425C217.674 639.342 217.941 639.3 218.241 639.3C218.557 639.3 218.832 639.342 219.066 639.425C219.249 639.508 219.391 639.617 219.491 639.75C219.607 639.9 219.732 640.075 219.866 640.275C219.966 640.442 220.057 640.633 220.141 640.85C220.174 640.967 220.216 641.067 220.266 641.15C220.316 641.233 220.357 641.325 220.391 641.425L220.541 641.825L225.741 654.625C225.741 654.625 225.766 654.7 225.816 654.85C225.866 655 225.907 655.15 225.941 655.3ZM220.016 649.175C219.799 648.692 219.574 648.192 219.341 647.675C219.124 647.158 218.891 646.633 218.641 646.1C218.574 645.95 218.507 645.8 218.441 645.65C218.374 645.483 218.307 645.325 218.241 645.175C218.191 645.325 218.132 645.483 218.066 645.65C217.999 645.8 217.932 645.95 217.866 646.1C217.616 646.633 217.374 647.158 217.141 647.675C216.924 648.192 216.707 648.692 216.491 649.175L216.041 650.275H220.466L220.016 649.175ZM228.771 654.35L228.796 652.375L228.821 648.7C228.838 648.167 228.846 647.617 228.846 647.05C228.846 646.483 228.846 645.9 228.846 645.3C228.846 644.7 228.846 644.167 228.846 643.7C228.846 643.233 228.863 642.708 228.896 642.125V642.025C228.913 641.858 228.921 641.692 228.921 641.525C228.938 641.342 228.946 641.158 228.946 640.975C228.963 640.675 229.054 640.35 229.221 640C229.338 639.767 229.513 639.567 229.746 639.4C230.013 639.267 230.271 639.2 230.521 639.2C230.654 639.2 230.771 639.208 230.871 639.225C230.988 639.225 231.096 639.233 231.196 639.25C231.413 639.283 231.604 639.383 231.771 639.55C231.871 639.633 231.963 639.767 232.046 639.95C232.079 640.05 232.104 640.15 232.121 640.25C232.154 640.333 232.179 640.425 232.196 640.525C232.213 640.642 232.221 640.75 232.221 640.85C232.238 640.95 232.246 641.05 232.246 641.15C232.246 641.267 232.238 641.375 232.221 641.475C232.221 641.558 232.221 641.65 232.221 641.75V642.175L232.071 655.15V655.4C232.071 655.45 232.063 655.517 232.046 655.6C232.046 655.667 232.038 655.75 232.021 655.85C231.988 655.933 231.954 656.025 231.921 656.125C231.904 656.208 231.879 656.3 231.846 656.4C231.796 656.483 231.738 656.567 231.671 656.65C231.621 656.717 231.554 656.783 231.471 656.85C231.338 656.983 231.121 657.075 230.821 657.125C230.371 657.225 229.946 657.183 229.546 657C229.346 656.867 229.204 656.7 229.121 656.5C229.071 656.45 229.046 656.4 229.046 656.35C229.029 656.317 229.013 656.292 228.996 656.275C228.979 656.258 228.963 656.233 228.946 656.2C228.913 656.117 228.888 656.033 228.871 655.95C228.854 655.85 228.846 655.75 228.846 655.65C228.829 655.567 228.813 655.483 228.796 655.4C228.796 655.317 228.788 655.233 228.771 655.15C228.754 655.017 228.754 654.875 228.771 654.725V654.35ZM248.603 655.1C248.586 655.383 248.545 655.683 248.478 656C248.428 656.317 248.27 656.575 248.003 656.775C247.803 656.942 247.578 657.042 247.328 657.075C247.078 657.108 246.828 657.092 246.578 657.025C246.345 656.975 246.12 656.892 245.903 656.775C245.686 656.642 245.511 656.483 245.378 656.3C244.811 655.6 244.286 654.883 243.803 654.15C243.336 653.4 242.861 652.65 242.378 651.9L240.278 648.725C239.995 648.275 239.695 647.775 239.378 647.225C239.061 646.658 238.736 646.133 238.403 645.65L238.328 655.2V655.425C238.328 655.692 238.278 655.958 238.178 656.225C238.095 656.475 237.945 656.692 237.728 656.875C237.561 657.008 237.345 657.1 237.078 657.15C236.661 657.233 236.311 657.208 236.028 657.075C235.761 656.942 235.545 656.758 235.378 656.525C235.228 656.292 235.12 656.025 235.053 655.725C235.003 655.408 234.995 655.1 235.028 654.8V654.375L235.078 652.425L235.103 648.8C235.12 648.267 235.128 647.725 235.128 647.175C235.128 646.608 235.128 646.033 235.128 645.45C235.111 644.733 235.111 643.975 235.128 643.175C235.161 642.375 235.195 641.625 235.228 640.925C235.261 640.542 235.353 640.217 235.503 639.95C235.57 639.717 235.745 639.517 236.028 639.35C236.211 639.233 236.445 639.158 236.728 639.125C237.028 639.092 237.286 639.1 237.503 639.15C237.586 639.183 237.67 639.225 237.753 639.275C237.836 639.308 237.92 639.35 238.003 639.4C238.086 639.467 238.161 639.533 238.228 639.6C238.311 639.667 238.386 639.742 238.453 639.825C238.536 639.908 238.611 640 238.678 640.1C238.745 640.183 238.811 640.267 238.878 640.35C238.928 640.45 238.978 640.542 239.028 640.625C239.078 640.708 239.136 640.792 239.203 640.875L239.478 641.275L245.253 650.375V648.725C245.253 648.192 245.245 647.65 245.228 647.1C245.228 646.533 245.22 645.95 245.203 645.35C245.203 644.65 245.203 643.9 245.203 643.1C245.22 642.3 245.245 641.55 245.278 640.85C245.278 640.567 245.361 640.242 245.528 639.875C245.611 639.658 245.753 639.483 245.953 639.35C246.153 639.217 246.378 639.125 246.628 639.075C246.878 639.025 247.128 639.025 247.378 639.075C247.628 639.125 247.845 639.225 248.028 639.375C248.078 639.425 248.128 639.483 248.178 639.55C248.228 639.617 248.27 639.692 248.303 639.775C248.386 639.992 248.436 640.183 248.453 640.35C248.503 640.583 248.528 640.792 248.528 640.975C248.528 643.058 248.528 645.183 248.528 647.35C248.545 649.517 248.561 651.642 248.578 653.725C248.578 653.958 248.586 654.192 248.603 654.425C248.62 654.642 248.62 654.867 248.603 655.1Z" fill="white"/>
</g>
<defs>
<clipPath id="clip0_10_51">
<rect width="360" height="800" fill="white"/>
</clipPath>
</defs>
</svg>
