<svg width="57" height="48" viewBox="0 0 57 48" fill="none" xmlns="http://www.w3.org/2000/svg">
<rect width="57" height="48" rx="18" fill="#ECCA73"/>
<path d="M27.2334 26.05C27.2334 26.55 27.2084 27.0583 27.1584 27.575C27.1084 28.075 27.0084 28.5667 26.8584 29.05C26.7084 29.5167 26.4834 29.9667 26.1834 30.4C25.8834 30.8167 25.475 31.1833 24.9584 31.5C24.7084 31.6667 24.4084 31.8083 24.0584 31.925C23.725 32.025 23.3667 32.1083 22.9834 32.175C22.6167 32.2583 22.25 32.3083 21.8834 32.325C21.5167 32.3583 21.175 32.3667 20.8584 32.35C19.3584 32.3 18.1417 31.9417 17.2084 31.275C16.2917 30.5917 15.5834 29.75 15.0834 28.75C14.6 27.75 14.2834 26.6667 14.1334 25.5C14 24.3167 13.975 23.1917 14.0584 22.125C14.1084 21.4917 14.2167 20.8083 14.3834 20.075C14.5667 19.3417 14.825 18.6333 15.1584 17.95C15.5084 17.2667 15.9334 16.65 16.4334 16.1C16.95 15.55 17.5584 15.1333 18.2584 14.85C18.9084 14.5833 19.6167 14.4167 20.3834 14.35C21.1667 14.2667 21.9334 14.2917 22.6834 14.425C23.45 14.5583 24.1584 14.8 24.8084 15.15C25.475 15.5 26 15.9667 26.3834 16.55C26.65 16.9833 26.8584 17.5083 27.0084 18.125C27.1584 18.7417 27.1834 19.3333 27.0834 19.9C27 20.4 26.825 20.75 26.5584 20.95C26.2917 21.1333 26 21.2083 25.6834 21.175C25.3667 21.125 25.0584 20.9917 24.7584 20.775C24.475 20.5417 24.2834 20.25 24.1834 19.9C24.0667 19.5167 23.925 19.1667 23.7584 18.85C23.5917 18.5167 23.3334 18.2417 22.9834 18.025C22.5834 17.775 22.1584 17.6333 21.7084 17.6C21.275 17.5667 20.85 17.6167 20.4334 17.75C20.0334 17.8833 19.65 18.0917 19.2834 18.375C18.9334 18.6583 18.6417 18.9833 18.4084 19.35C18.125 19.7667 17.9084 20.225 17.7584 20.725C17.6084 21.2083 17.5 21.7167 17.4334 22.25C17.3667 22.7667 17.3417 23.2917 17.3584 23.825C17.3917 24.3417 17.4584 24.8417 17.5584 25.325C17.7417 26.1417 18.025 26.9083 18.4084 27.625C18.5584 27.8917 18.7584 28.1333 19.0084 28.35C19.275 28.55 19.5667 28.7167 19.8834 28.85C20.2 28.9667 20.5334 29.0417 20.8834 29.075C21.2334 29.1083 21.5667 29.0833 21.8834 29C22.3334 28.8833 22.7 28.7333 22.9834 28.55C23.2667 28.35 23.4917 28.1167 23.6584 27.85C23.825 27.5833 23.9334 27.2917 23.9834 26.975C24.05 26.6583 24.0834 26.325 24.0834 25.975V25.95C23.8667 25.95 23.675 25.95 23.5084 25.95C23.3417 25.9333 23.2167 25.925 23.1334 25.925C22.7667 25.925 22.4084 25.8583 22.0584 25.725C21.7584 25.625 21.5334 25.4667 21.3834 25.25C21.2167 25.0667 21.1334 24.8417 21.1334 24.575C21.1334 24.475 21.1334 24.3833 21.1334 24.3C21.15 24.2 21.1667 24.1 21.1834 24C21.2334 23.8667 21.3417 23.7 21.5084 23.5C21.6084 23.4167 21.7667 23.35 21.9834 23.3C22.0834 23.2667 22.1834 23.2417 22.2834 23.225C22.3834 23.1917 22.5 23.1667 22.6334 23.15C22.7334 23.1333 22.8417 23.125 22.9584 23.125C23.075 23.125 23.1917 23.125 23.3084 23.125H25.5834C25.7667 23.1083 25.975 23.1333 26.2084 23.2C26.4584 23.25 26.65 23.3333 26.7834 23.45C26.8334 23.5167 26.8834 23.5833 26.9334 23.65C26.9834 23.7167 27.025 23.7917 27.0584 23.875C27.125 24.0583 27.1667 24.2417 27.1834 24.425C27.2 24.525 27.2084 24.6333 27.2084 24.75C27.225 24.85 27.2334 24.9417 27.2334 25.025V26.05ZM33.6677 14.9C34.7844 14.4833 35.7927 14.3 36.6927 14.35C37.6094 14.4 38.4261 14.6333 39.1427 15.05C39.8594 15.45 40.4677 15.9917 40.9677 16.675C41.4844 17.3583 41.9011 18.125 42.2177 18.975C42.4677 19.6083 42.6594 20.275 42.7927 20.975C42.9261 21.675 43.0011 22.375 43.0177 23.075C43.0511 23.7583 43.0261 24.4333 42.9427 25.1C42.8761 25.7667 42.7594 26.3833 42.5927 26.95C42.4927 27.3333 42.3761 27.6833 42.2427 28C42.1094 28.3167 41.9511 28.6333 41.7677 28.95C41.3511 29.6667 40.8094 30.25 40.1427 30.7C39.4927 31.15 38.7761 31.4667 37.9927 31.65C37.4594 31.7833 36.9094 31.85 36.3427 31.85C35.7761 31.8333 35.2177 31.7583 34.6677 31.625C34.1177 31.475 33.5844 31.2667 33.0677 31C32.5677 30.7167 32.1094 30.3667 31.6927 29.95C31.1761 29.45 30.7511 28.875 30.4177 28.225C30.0844 27.5583 29.8261 26.8667 29.6427 26.15C29.4594 25.4167 29.3427 24.6833 29.2927 23.95C29.2427 23.2167 29.2427 22.5167 29.2927 21.85C29.3427 21.2333 29.4594 20.575 29.6427 19.875C29.8427 19.175 30.1261 18.5 30.4927 17.85C30.8594 17.2 31.3011 16.6167 31.8177 16.1C32.3511 15.5667 32.9677 15.1667 33.6677 14.9ZM39.5177 25.6C39.7177 24.8167 39.8011 23.9333 39.7677 22.95C39.7344 21.9667 39.5761 21.0417 39.2927 20.175C39.1094 19.6417 38.8761 19.175 38.5927 18.775C38.3261 18.3583 38.0011 18.0417 37.6177 17.825C37.2511 17.6083 36.8177 17.5 36.3177 17.5C35.8177 17.5 35.2594 17.65 34.6427 17.95C34.2761 18.1333 33.9594 18.3833 33.6927 18.7C33.4427 19.0167 33.2344 19.375 33.0677 19.775C32.9177 20.175 32.7927 20.5917 32.6927 21.025C32.6094 21.4583 32.5594 21.875 32.5427 22.275C32.5094 22.7083 32.5011 23.1667 32.5177 23.65C32.5344 24.1167 32.5844 24.5917 32.6677 25.075C32.7677 25.5417 32.9011 25.9917 33.0677 26.425C33.2344 26.8417 33.4594 27.2167 33.7427 27.55C34.1761 28.05 34.6761 28.4 35.2427 28.6C35.8261 28.7833 36.4011 28.8083 36.9677 28.675C37.8844 28.475 38.5844 27.8667 39.0677 26.85C39.2677 26.4833 39.4177 26.0667 39.5177 25.6Z" fill="white"/>
</svg>
