<svg width="360" height="800" viewBox="0 0 360 800" fill="none" xmlns="http://www.w3.org/2000/svg">
<g clip-path="url(#clip0_10_42)">
<rect width="360" height="800" fill="#F5F5EF"/>
<circle cx="180" cy="358" r="112" fill="white"/>
<rect x="103" y="363.34" width="153" height="3" rx="1.5" transform="rotate(-2 103 363.34)" fill="#D9D9D9"/>
<rect x="177" y="439" width="153" height="3" rx="1.5" transform="rotate(-90 177 439)" fill="#D9D9D9"/>
<ellipse cx="215.5" cy="321" rx="28.5" ry="28" fill="#F4DF70"/>
<path d="M240 313C240 314.495 239.752 315.979 239.267 317.387L237.09 316.575C237.485 315.428 237.687 314.219 237.687 313H240Z" fill="white"/>
<path d="M235.982 310.298C236.096 312.498 235.671 314.693 234.746 316.675L232.665 315.625C233.419 314.01 233.766 312.221 233.673 310.428L235.982 310.298Z" fill="white"/>
<rect x="188" y="382.698" width="12.9987" height="66.2652" rx="5" transform="rotate(-42 188 382.698)" fill="#66D77F"/>
<rect x="232.34" y="374.245" width="12.9987" height="66.2652" rx="5" transform="rotate(42 232.34 374.245)" fill="#66D77F"/>
<path d="M237 382C237 383.495 236.752 384.979 236.267 386.387L234.09 385.575C234.485 384.428 234.687 383.219 234.687 382H237Z" fill="white"/>
<rect x="108" y="300.698" width="12.9987" height="66.2652" rx="5" transform="rotate(-42 108 300.698)" fill="#66D77F"/>
<rect x="152.34" y="292.245" width="12.9987" height="66.2652" rx="5" transform="rotate(42 152.34 292.245)" fill="#66D77F"/>
<path d="M157 300C157 301.495 156.752 302.979 156.267 304.387L154.09 303.575C154.485 302.428 154.687 301.219 154.687 300H157Z" fill="white"/>
<rect x="121" y="550" width="119" height="50" rx="18" fill="#ECCA73"/>
<path d="M161.979 567.875C162.613 568.458 163.079 569.158 163.379 569.975C163.679 570.775 163.796 571.575 163.729 572.375C163.663 573.142 163.421 573.85 163.004 574.5C162.588 575.133 161.954 575.617 161.104 575.95C160.438 576.233 159.779 576.433 159.129 576.55C158.479 576.667 157.763 576.758 156.979 576.825C156.629 576.858 156.329 576.883 156.079 576.9C155.846 576.9 155.571 576.908 155.254 576.925C155.188 576.925 155.071 576.925 154.904 576.925C154.754 576.925 154.646 576.933 154.579 576.95V582.125C154.529 582.442 154.463 582.767 154.379 583.1C154.313 583.433 154.121 583.692 153.804 583.875C153.621 583.975 153.396 584.033 153.129 584.05C152.863 584.067 152.621 584.058 152.404 584.025C152.171 583.992 151.971 583.933 151.804 583.85C151.654 583.75 151.529 583.583 151.429 583.35C151.363 583.2 151.296 583.033 151.229 582.85C151.179 582.65 151.154 582.408 151.154 582.125V568.3C151.154 568.183 151.163 568.075 151.179 567.975C151.196 567.875 151.213 567.775 151.229 567.675C151.263 567.592 151.288 567.5 151.304 567.4C151.321 567.3 151.346 567.208 151.379 567.125C151.413 567.042 151.446 566.967 151.479 566.9C151.529 566.833 151.588 566.775 151.654 566.725C151.738 566.642 151.863 566.567 152.029 566.5C152.213 566.433 152.479 566.4 152.829 566.4H152.879C153.396 566.367 153.971 566.342 154.604 566.325C155.238 566.292 155.763 566.3 156.179 566.35C156.413 566.383 156.629 566.408 156.829 566.425C157.029 566.425 157.221 566.433 157.404 566.45C157.604 566.467 157.804 566.483 158.004 566.5C158.204 566.517 158.404 566.542 158.604 566.575C158.771 566.608 158.921 566.633 159.054 566.65C159.204 566.667 159.354 566.692 159.504 566.725C159.638 566.758 159.779 566.792 159.929 566.825C160.096 566.858 160.246 566.917 160.379 567C160.729 567.1 161.021 567.225 161.254 567.375C161.488 567.525 161.729 567.692 161.979 567.875ZM160.479 572C160.496 571.6 160.413 571.25 160.229 570.95C160.063 570.65 159.821 570.4 159.504 570.2C159.188 570 158.829 569.842 158.429 569.725C158.029 569.608 157.629 569.525 157.229 569.475C157.129 569.475 156.988 569.475 156.804 569.475C156.638 569.458 156.454 569.45 156.254 569.45C156.054 569.433 155.863 569.425 155.679 569.425C155.513 569.408 155.379 569.4 155.279 569.4C155.196 569.383 155.096 569.375 154.979 569.375C154.863 569.375 154.729 569.375 154.579 569.375C154.596 569.892 154.604 570.392 154.604 570.875C154.604 571.342 154.604 571.85 154.604 572.4C154.588 572.7 154.579 573 154.579 573.3C154.579 573.6 154.579 573.892 154.579 574.175L156.129 574.15C156.529 574.15 156.971 574.125 157.454 574.075C157.938 574.025 158.396 573.925 158.829 573.775C159.263 573.625 159.629 573.408 159.929 573.125C160.246 572.842 160.429 572.467 160.479 572ZM177.328 582.1C177.362 582.183 177.378 582.308 177.378 582.475C177.378 582.625 177.378 582.75 177.378 582.85C177.378 582.983 177.353 583.108 177.303 583.225C177.253 583.342 177.187 583.45 177.103 583.55C176.953 583.75 176.737 583.9 176.453 584C176.053 584.133 175.678 584.2 175.328 584.2C175.145 584.217 174.953 584.225 174.753 584.225C174.553 584.225 174.353 584.242 174.153 584.275H174.053C172.77 584.292 171.445 584.292 170.078 584.275C169.745 584.258 169.37 584.258 168.953 584.275C168.537 584.308 168.128 584.3 167.728 584.25C167.328 584.217 166.962 584.125 166.628 583.975C166.312 583.808 166.087 583.55 165.953 583.2C165.92 583.117 165.895 583.042 165.878 582.975C165.862 582.892 165.853 582.808 165.853 582.725C165.787 582.158 165.762 581.6 165.778 581.05C165.795 580.5 165.803 579.958 165.803 579.425L165.853 575.8V572.45C165.853 571.85 165.853 571.317 165.853 570.85C165.87 570.383 165.887 569.867 165.903 569.3V569.175C165.92 569.008 165.928 568.842 165.928 568.675C165.945 568.508 165.953 568.342 165.953 568.175C165.987 567.792 166.078 567.467 166.228 567.2C166.328 566.95 166.503 566.75 166.753 566.6C166.97 566.45 167.228 566.375 167.528 566.375C167.645 566.375 167.753 566.383 167.853 566.4C167.97 566.4 168.078 566.408 168.178 566.425C168.278 566.442 168.37 566.475 168.453 566.525C168.553 566.575 168.653 566.642 168.753 566.725C168.853 566.842 168.945 566.983 169.028 567.15C169.095 567.333 169.137 567.517 169.153 567.7C169.17 567.817 169.187 567.925 169.203 568.025C169.22 568.125 169.228 568.225 169.228 568.325C169.195 568.425 169.178 568.525 169.178 568.625C169.178 568.725 169.178 568.817 169.178 568.9V569.35L169.078 581.125L174.028 581.175H175.203C175.303 581.175 175.412 581.183 175.528 581.2C175.645 581.2 175.762 581.208 175.878 581.225C176.012 581.242 176.128 581.258 176.228 581.275C176.328 581.292 176.428 581.317 176.528 581.35C176.712 581.4 176.862 581.483 176.978 581.6C177.162 581.767 177.278 581.933 177.328 582.1ZM194.802 582.3C194.819 582.4 194.827 582.5 194.827 582.6C194.844 582.683 194.852 582.783 194.852 582.9C194.852 583.1 194.794 583.283 194.677 583.45C194.627 583.533 194.56 583.617 194.477 583.7C194.394 583.767 194.294 583.825 194.177 583.875C193.76 584.108 193.319 584.192 192.852 584.125C192.619 584.058 192.41 583.95 192.227 583.8C192.194 583.767 192.169 583.75 192.152 583.75C192.135 583.733 192.119 583.708 192.102 583.675C192.085 583.658 192.069 583.642 192.052 583.625C192.035 583.592 192.01 583.567 191.977 583.55C191.894 583.467 191.827 583.392 191.777 583.325C191.727 583.242 191.677 583.158 191.627 583.075C191.594 582.992 191.552 582.917 191.502 582.85C191.469 582.767 191.427 582.683 191.377 582.6C191.344 582.533 191.31 582.475 191.277 582.425C191.244 582.358 191.219 582.292 191.202 582.225C191.135 582.075 191.094 581.942 191.077 581.825L190.552 580.6C189.402 580.6 188.252 580.608 187.102 580.625C185.969 580.625 184.827 580.617 183.677 580.6L183.152 581.825C183.119 581.892 183.094 581.958 183.077 582.025C183.077 582.092 183.06 582.158 183.027 582.225C182.994 582.292 182.96 582.358 182.927 582.425C182.91 582.475 182.885 582.533 182.852 582.6C182.802 582.683 182.752 582.767 182.702 582.85C182.669 582.917 182.627 582.992 182.577 583.075C182.544 583.158 182.502 583.242 182.452 583.325C182.402 583.392 182.335 583.467 182.252 583.55C182.219 583.567 182.194 583.592 182.177 583.625C182.16 583.642 182.144 583.658 182.127 583.675C182.11 583.708 182.094 583.733 182.077 583.75C182.06 583.75 182.035 583.767 182.002 583.8C181.819 583.95 181.61 584.058 181.377 584.125C180.91 584.192 180.469 584.108 180.052 583.875C179.935 583.825 179.835 583.767 179.752 583.7C179.669 583.617 179.602 583.533 179.552 583.45C179.435 583.283 179.377 583.1 179.377 582.9C179.377 582.783 179.377 582.683 179.377 582.6C179.394 582.5 179.41 582.4 179.427 582.3C179.46 582.15 179.502 582 179.552 581.85C179.602 581.7 179.627 581.625 179.627 581.625L184.827 568.825L184.977 568.425C185.01 568.325 185.052 568.233 185.102 568.15C185.152 568.067 185.194 567.967 185.227 567.85C185.31 567.633 185.402 567.442 185.502 567.275C185.552 567.175 185.61 567.083 185.677 567C185.744 566.917 185.81 566.833 185.877 566.75C185.977 566.617 186.119 566.508 186.302 566.425C186.535 566.342 186.802 566.3 187.102 566.3C187.419 566.3 187.694 566.342 187.927 566.425C188.11 566.508 188.252 566.617 188.352 566.75C188.469 566.9 188.594 567.075 188.727 567.275C188.827 567.442 188.919 567.633 189.002 567.85C189.035 567.967 189.077 568.067 189.127 568.15C189.177 568.233 189.219 568.325 189.252 568.425L189.402 568.825L194.602 581.625C194.602 581.625 194.627 581.7 194.677 581.85C194.727 582 194.769 582.15 194.802 582.3ZM188.877 576.175C188.66 575.692 188.435 575.192 188.202 574.675C187.985 574.158 187.752 573.633 187.502 573.1C187.435 572.95 187.369 572.8 187.302 572.65C187.235 572.483 187.169 572.325 187.102 572.175C187.052 572.325 186.994 572.483 186.927 572.65C186.86 572.8 186.794 572.95 186.727 573.1C186.477 573.633 186.235 574.158 186.002 574.675C185.785 575.192 185.569 575.692 185.352 576.175L184.902 577.275H189.327L188.877 576.175ZM207.817 567.375C207.834 567.458 207.834 567.542 207.817 567.625C207.817 567.708 207.792 567.8 207.742 567.9C207.676 568.133 207.601 568.342 207.517 568.525C207.417 568.758 207.292 568.958 207.142 569.125C207.076 569.225 207.009 569.325 206.942 569.425C206.892 569.508 206.842 569.592 206.792 569.675L206.467 570.1L203.267 574.725L202.692 575.45V582.1C202.659 582.183 202.642 582.267 202.642 582.35C202.642 582.433 202.634 582.525 202.617 582.625C202.584 582.708 202.559 582.792 202.542 582.875C202.526 582.942 202.501 583.017 202.467 583.1C202.434 583.167 202.417 583.217 202.417 583.25C202.401 583.283 202.384 583.308 202.367 583.325C202.367 583.342 202.359 583.367 202.342 583.4C202.242 583.567 202.101 583.717 201.917 583.85C201.551 584.033 201.134 584.075 200.667 583.975C200.401 583.942 200.201 583.858 200.067 583.725C199.984 583.675 199.917 583.617 199.867 583.55C199.817 583.483 199.767 583.408 199.717 583.325C199.684 583.225 199.651 583.133 199.617 583.05C199.584 582.967 199.559 582.883 199.542 582.8C199.509 582.717 199.492 582.642 199.492 582.575C199.492 582.492 199.492 582.417 199.492 582.35V575.525L198.942 574.675L195.692 570.075L195.417 569.625C195.317 569.475 195.192 569.3 195.042 569.1C194.909 568.917 194.792 568.717 194.692 568.5C194.626 568.4 194.567 568.3 194.517 568.2C194.484 568.083 194.451 567.967 194.417 567.85C194.367 567.683 194.359 567.517 194.392 567.35C194.442 567.133 194.542 566.95 194.692 566.8C194.859 566.65 195.034 566.533 195.217 566.45C195.451 566.283 195.717 566.217 196.017 566.25C196.201 566.25 196.359 566.283 196.492 566.35C196.626 566.417 196.759 566.492 196.892 566.575C197.042 566.692 197.184 566.817 197.317 566.95C197.467 567.083 197.601 567.225 197.717 567.375C197.851 567.542 197.976 567.7 198.092 567.85C198.209 567.983 198.326 568.142 198.442 568.325L198.517 568.425C198.917 568.958 199.292 569.475 199.642 569.975C199.992 570.458 200.359 570.983 200.742 571.55C200.776 571.583 200.826 571.65 200.892 571.75C200.959 571.85 201.034 571.967 201.117 572.1C201.184 571.983 201.242 571.883 201.292 571.8C201.359 571.7 201.409 571.633 201.442 571.6C201.826 571.033 202.192 570.5 202.542 570C202.892 569.5 203.267 568.983 203.667 568.45L203.717 568.35C203.851 568.2 203.967 568.05 204.067 567.9C204.184 567.733 204.309 567.567 204.442 567.4C204.659 567.1 204.951 566.842 205.317 566.625C205.584 566.442 205.859 566.325 206.142 566.275C206.459 566.242 206.734 566.308 206.967 566.475C207.067 566.542 207.159 566.6 207.242 566.65C207.342 566.7 207.426 566.758 207.492 566.825C207.626 566.975 207.734 567.158 207.817 567.375Z" fill="white"/>
<rect width="362" height="24" transform="matrix(1 0 0 -1 0 24)" fill="#D9D9D9"/>
<path d="M27.4188 8.62784C27.7171 8.63021 28.0154 8.68703 28.3137 8.7983C28.6119 8.90956 28.8842 9.09422 29.1304 9.35227C29.3766 9.60795 29.5743 9.95715 29.7235 10.3999C29.8726 10.8426 29.9472 11.3977 29.9472 12.0653C29.9472 12.7116 29.8856 13.2857 29.7625 13.7876C29.6418 14.2872 29.4666 14.7086 29.2369 15.0518C29.0097 15.3951 28.7327 15.6555 28.406 15.8331C28.0816 16.0107 27.7147 16.0994 27.3051 16.0994C26.8979 16.0994 26.5345 16.0189 26.2149 15.858C25.8977 15.6946 25.6373 15.4685 25.4337 15.1797C25.2325 14.8885 25.1034 14.5511 25.0466 14.1676H25.9131C25.9912 14.5014 26.1463 14.7772 26.3783 14.995C26.6127 15.2105 26.9216 15.3182 27.3051 15.3182C27.8662 15.3182 28.3089 15.0732 28.6333 14.5831C28.96 14.093 29.1233 13.4006 29.1233 12.5057H29.0665C28.9339 12.7045 28.7765 12.8762 28.5942 13.0206C28.4119 13.165 28.2095 13.2763 27.9869 13.3544C27.7644 13.4325 27.5277 13.4716 27.2767 13.4716C26.8601 13.4716 26.4777 13.3686 26.1297 13.1626C25.7841 12.9543 25.5071 12.669 25.2987 12.3068C25.0928 11.9422 24.9898 11.5256 24.9898 11.0568C24.9898 10.6117 25.0892 10.2045 25.2881 9.83523C25.4893 9.46354 25.771 9.16761 26.1333 8.94744C26.4978 8.72727 26.9263 8.62074 27.4188 8.62784ZM27.4188 9.40909C27.1205 9.40909 26.8518 9.48366 26.6127 9.63281C26.3759 9.77959 26.1877 9.97846 26.048 10.2294C25.9107 10.478 25.8421 10.7538 25.8421 11.0568C25.8421 11.3598 25.9084 11.6357 26.0409 11.8842C26.1759 12.1304 26.3593 12.3269 26.5914 12.4737C26.8257 12.6181 27.0921 12.6903 27.3904 12.6903C27.6153 12.6903 27.8248 12.6465 28.0189 12.5589C28.213 12.469 28.3823 12.3471 28.5267 12.1932C28.6735 12.0369 28.7883 11.8606 28.8712 11.6641C28.954 11.4652 28.9955 11.258 28.9955 11.0426C28.9955 10.7585 28.9268 10.4922 28.7895 10.2436C28.6546 9.99503 28.4675 9.7938 28.2284 9.63991C27.9917 9.48603 27.7218 9.40909 27.4188 9.40909ZM31.9687 15.0696C31.7935 15.0696 31.6431 15.0069 31.5177 14.8814C31.3922 14.7559 31.3295 14.6056 31.3295 14.4304C31.3295 14.2552 31.3922 14.1049 31.5177 13.9794C31.6431 13.8539 31.7935 13.7912 31.9687 13.7912C32.1439 13.7912 32.2942 13.8539 32.4197 13.9794C32.5451 14.1049 32.6079 14.2552 32.6079 14.4304C32.6079 14.5464 32.5783 14.6529 32.5191 14.75C32.4623 14.8471 32.3853 14.9252 32.2883 14.9844C32.1936 15.0412 32.087 15.0696 31.9687 15.0696ZM31.9687 11.3906C31.7935 11.3906 31.6431 11.3279 31.5177 11.2024C31.3922 11.0769 31.3295 10.9266 31.3295 10.7514C31.3295 10.5762 31.3922 10.4259 31.5177 10.3004C31.6431 10.175 31.7935 10.1122 31.9687 10.1122C32.1439 10.1122 32.2942 10.175 32.4197 10.3004C32.5451 10.4259 32.6079 10.5762 32.6079 10.7514C32.6079 10.8674 32.5783 10.974 32.5191 11.071C32.4623 11.1681 32.3853 11.2462 32.2883 11.3054C32.1936 11.3622 32.087 11.3906 31.9687 11.3906ZM34.0976 16V15.3608L36.4981 12.733C36.7799 12.4252 37.0119 12.1577 37.1942 11.9304C37.3765 11.7008 37.5114 11.4853 37.599 11.2841C37.689 11.0805 37.7339 10.8674 37.7339 10.6449C37.7339 10.3892 37.6724 10.1679 37.5493 9.98082C37.4285 9.7938 37.2628 9.64938 37.0521 9.54759C36.8414 9.44579 36.6047 9.39489 36.3419 9.39489C36.0625 9.39489 35.8187 9.45289 35.6104 9.56889C35.4044 9.68253 35.2446 9.84233 35.1309 10.0483C35.0197 10.2543 34.964 10.4957 34.964 10.7727H34.126C34.126 10.3466 34.2242 9.97254 34.4207 9.65057C34.6172 9.3286 34.8847 9.07765 35.2233 8.89773C35.5642 8.7178 35.9465 8.62784 36.3703 8.62784C36.7964 8.62784 37.174 8.7178 37.5031 8.89773C37.8322 9.07765 38.0902 9.32031 38.2773 9.62571C38.4643 9.93111 38.5578 10.2708 38.5578 10.6449C38.5578 10.9124 38.5093 11.174 38.4122 11.4297C38.3175 11.683 38.1518 11.9659 37.915 12.2784C37.6807 12.5885 37.3551 12.9673 36.9385 13.4148L35.305 15.1619V15.2188H38.6856V16H34.0976ZM42.5244 16.0994C41.9894 16.0994 41.5336 15.9538 41.1572 15.6626C40.7808 15.3691 40.4932 14.9441 40.2943 14.3878C40.0954 13.8291 39.996 13.1544 39.996 12.3636C39.996 11.5777 40.0954 10.9065 40.2943 10.3501C40.4955 9.79143 40.7844 9.36529 41.1608 9.07173C41.5396 8.7758 41.9941 8.62784 42.5244 8.62784C43.0547 8.62784 43.5081 8.7758 43.8845 9.07173C44.2633 9.36529 44.5521 9.79143 44.751 10.3501C44.9522 10.9065 45.0528 11.5777 45.0528 12.3636C45.0528 13.1544 44.9534 13.8291 44.7545 14.3878C44.5557 14.9441 44.268 15.3691 43.8916 15.6626C43.5152 15.9538 43.0595 16.0994 42.5244 16.0994ZM42.5244 15.3182C43.0547 15.3182 43.4666 15.0625 43.7602 14.5511C44.0538 14.0398 44.2006 13.3106 44.2006 12.3636C44.2006 11.7339 44.1331 11.1977 43.9981 10.755C43.8656 10.3123 43.6738 9.97491 43.4229 9.7429C43.1743 9.51089 42.8748 9.39489 42.5244 9.39489C41.9988 9.39489 41.5881 9.65412 41.2922 10.1726C40.9962 10.6887 40.8483 11.419 40.8483 12.3636C40.8483 12.9934 40.9146 13.5284 41.0471 13.9688C41.1797 14.4091 41.3703 14.7441 41.6189 14.9737C41.8698 15.2034 42.1717 15.3182 42.5244 15.3182Z" fill="black"/>
<rect x="333" y="12.5454" width="8" height="5.45455" rx="1" fill="#4ECE39"/>
<path d="M333 12.5454H341" stroke="#4ECE39"/>
<path d="M334 7.44H335.105V7C335.105 6.44772 335.553 6 336.105 6H338.316C338.868 6 339.316 6.44772 339.316 7V7.44H340C340.552 7.44 341 7.88772 341 8.44V17C341 17.5523 340.552 18 340 18H334C333.448 18 333 17.5523 333 17V8.44C333 7.88772 333.448 7.44 334 7.44Z" stroke="black" stroke-opacity="0.67" stroke-width="0.5"/>
</g>
<defs>
<clipPath id="clip0_10_42">
<rect width="360" height="800" fill="white"/>
</clipPath>
</defs>
</svg>
