<svg width="224" height="224" viewBox="0 0 224 224" fill="none" xmlns="http://www.w3.org/2000/svg">
<circle cx="112" cy="112" r="112" fill="white"/>
<rect x="35" y="117.34" width="153" height="3" rx="1.5" transform="rotate(-2 35 117.34)" fill="#D9D9D9"/>
<rect x="109" y="193" width="153" height="3" rx="1.5" transform="rotate(-90 109 193)" fill="#D9D9D9"/>
<ellipse cx="147.5" cy="75" rx="28.5" ry="28" fill="#F4DF70"/>
<path d="M172 67C172 68.4953 171.752 69.9793 171.267 71.3869L169.09 70.5753C169.485 69.4281 169.687 68.2186 169.687 67H172Z" fill="white"/>
<path d="M167.982 64.2982C168.096 66.4985 167.671 68.6929 166.746 70.6754L164.665 69.6254C165.419 68.0097 165.766 66.2212 165.673 64.428L167.982 64.2982Z" fill="white"/>
<rect x="120" y="136.698" width="12.9987" height="66.2652" rx="5" transform="rotate(-42 120 136.698)" fill="#66D77F"/>
<rect x="164.34" y="128.245" width="12.9987" height="66.2652" rx="5" transform="rotate(42 164.34 128.245)" fill="#66D77F"/>
<path d="M169 136C169 137.495 168.752 138.979 168.267 140.387L166.09 139.575C166.485 138.428 166.687 137.219 166.687 136H169Z" fill="white"/>
<rect x="40" y="54.6978" width="12.9987" height="66.2652" rx="5" transform="rotate(-42 40 54.6978)" fill="#66D77F"/>
<rect x="84.3401" y="46.2446" width="12.9987" height="66.2652" rx="5" transform="rotate(42 84.3401 46.2446)" fill="#66D77F"/>
<path d="M89 54C89 55.4953 88.752 56.9793 88.2668 58.3869L86.0899 57.5753C86.4853 56.4281 86.6875 55.2186 86.6875 54H89Z" fill="white"/>
</svg>
