<svg width="119" height="50" viewBox="0 0 119 50" fill="none" xmlns="http://www.w3.org/2000/svg">
<rect width="119" height="50" rx="18" fill="#ECCA73"/>
<path d="M40.9793 17.875C41.6126 18.4583 42.0793 19.1583 42.3793 19.975C42.6793 20.775 42.796 21.575 42.7293 22.375C42.6626 23.1417 42.421 23.85 42.0043 24.5C41.5876 25.1333 40.9543 25.6167 40.1043 25.95C39.4376 26.2333 38.7793 26.4333 38.1293 26.55C37.4793 26.6667 36.7626 26.7583 35.9793 26.825C35.6293 26.8583 35.3293 26.8833 35.0793 26.9C34.846 26.9 34.571 26.9083 34.2543 26.925C34.1876 26.925 34.071 26.925 33.9043 26.925C33.7543 26.925 33.646 26.9333 33.5793 26.95V32.125C33.5293 32.4417 33.4626 32.7667 33.3793 33.1C33.3126 33.4333 33.121 33.6917 32.8043 33.875C32.621 33.975 32.396 34.0333 32.1293 34.05C31.8626 34.0667 31.621 34.0583 31.4043 34.025C31.171 33.9917 30.971 33.9333 30.8043 33.85C30.6543 33.75 30.5293 33.5833 30.4293 33.35C30.3626 33.2 30.296 33.0333 30.2293 32.85C30.1793 32.65 30.1543 32.4083 30.1543 32.125V18.3C30.1543 18.1833 30.1626 18.075 30.1793 17.975C30.196 17.875 30.2126 17.775 30.2293 17.675C30.2626 17.5917 30.2876 17.5 30.3043 17.4C30.321 17.3 30.346 17.2083 30.3793 17.125C30.4126 17.0417 30.446 16.9667 30.4793 16.9C30.5293 16.8333 30.5876 16.775 30.6543 16.725C30.7376 16.6417 30.8626 16.5667 31.0293 16.5C31.2126 16.4333 31.4793 16.4 31.8293 16.4H31.8793C32.396 16.3667 32.971 16.3417 33.6043 16.325C34.2376 16.2917 34.7626 16.3 35.1793 16.35C35.4126 16.3833 35.6293 16.4083 35.8293 16.425C36.0293 16.425 36.221 16.4333 36.4043 16.45C36.6043 16.4667 36.8043 16.4833 37.0043 16.5C37.2043 16.5167 37.4043 16.5417 37.6043 16.575C37.771 16.6083 37.921 16.6333 38.0543 16.65C38.2043 16.6667 38.3543 16.6917 38.5043 16.725C38.6376 16.7583 38.7793 16.7917 38.9293 16.825C39.096 16.8583 39.246 16.9167 39.3793 17C39.7293 17.1 40.021 17.225 40.2543 17.375C40.4876 17.525 40.7293 17.6917 40.9793 17.875ZM39.4793 22C39.496 21.6 39.4126 21.25 39.2293 20.95C39.0626 20.65 38.821 20.4 38.5043 20.2C38.1876 20 37.8293 19.8417 37.4293 19.725C37.0293 19.6083 36.6293 19.525 36.2293 19.475C36.1293 19.475 35.9876 19.475 35.8043 19.475C35.6376 19.4583 35.4543 19.45 35.2543 19.45C35.0543 19.4333 34.8626 19.425 34.6793 19.425C34.5126 19.4083 34.3793 19.4 34.2793 19.4C34.196 19.3833 34.096 19.375 33.9793 19.375C33.8626 19.375 33.7293 19.375 33.5793 19.375C33.596 19.8917 33.6043 20.3917 33.6043 20.875C33.6043 21.3417 33.6043 21.85 33.6043 22.4C33.5876 22.7 33.5793 23 33.5793 23.3C33.5793 23.6 33.5793 23.8917 33.5793 24.175L35.1293 24.15C35.5293 24.15 35.971 24.125 36.4543 24.075C36.9376 24.025 37.396 23.925 37.8293 23.775C38.2626 23.625 38.6293 23.4083 38.9293 23.125C39.246 22.8417 39.4293 22.4667 39.4793 22ZM56.3283 32.1C56.3617 32.1833 56.3783 32.3083 56.3783 32.475C56.3783 32.625 56.3783 32.75 56.3783 32.85C56.3783 32.9833 56.3533 33.1083 56.3033 33.225C56.2533 33.3417 56.1867 33.45 56.1033 33.55C55.9533 33.75 55.7367 33.9 55.4533 34C55.0533 34.1333 54.6783 34.2 54.3283 34.2C54.145 34.2167 53.9533 34.225 53.7533 34.225C53.5533 34.225 53.3533 34.2417 53.1533 34.275H53.0533C51.77 34.2917 50.445 34.2917 49.0783 34.275C48.745 34.2583 48.37 34.2583 47.9533 34.275C47.5367 34.3083 47.1283 34.3 46.7283 34.25C46.3283 34.2167 45.9617 34.125 45.6283 33.975C45.3117 33.8083 45.0867 33.55 44.9533 33.2C44.92 33.1167 44.895 33.0417 44.8783 32.975C44.8617 32.8917 44.8533 32.8083 44.8533 32.725C44.7867 32.1583 44.7617 31.6 44.7783 31.05C44.795 30.5 44.8033 29.9583 44.8033 29.425L44.8533 25.8V22.45C44.8533 21.85 44.8533 21.3167 44.8533 20.85C44.87 20.3833 44.8867 19.8667 44.9033 19.3V19.175C44.92 19.0083 44.9283 18.8417 44.9283 18.675C44.945 18.5083 44.9533 18.3417 44.9533 18.175C44.9867 17.7917 45.0783 17.4667 45.2283 17.2C45.3283 16.95 45.5033 16.75 45.7533 16.6C45.97 16.45 46.2283 16.375 46.5283 16.375C46.645 16.375 46.7533 16.3833 46.8533 16.4C46.97 16.4 47.0783 16.4083 47.1783 16.425C47.2783 16.4417 47.37 16.475 47.4533 16.525C47.5533 16.575 47.6533 16.6417 47.7533 16.725C47.8533 16.8417 47.945 16.9833 48.0283 17.15C48.095 17.3333 48.1367 17.5167 48.1533 17.7C48.17 17.8167 48.1867 17.925 48.2033 18.025C48.22 18.125 48.2283 18.225 48.2283 18.325C48.195 18.425 48.1783 18.525 48.1783 18.625C48.1783 18.725 48.1783 18.8167 48.1783 18.9V19.35L48.0783 31.125L53.0283 31.175H54.2033C54.3033 31.175 54.4117 31.1833 54.5283 31.2C54.645 31.2 54.7617 31.2083 54.8783 31.225C55.0117 31.2417 55.1283 31.2583 55.2283 31.275C55.3283 31.2917 55.4283 31.3167 55.5283 31.35C55.7117 31.4 55.8617 31.4833 55.9783 31.6C56.1617 31.7667 56.2783 31.9333 56.3283 32.1ZM73.802 32.3C73.8186 32.4 73.827 32.5 73.827 32.6C73.8436 32.6833 73.852 32.7833 73.852 32.9C73.852 33.1 73.7936 33.2833 73.677 33.45C73.627 33.5333 73.5603 33.6167 73.477 33.7C73.3936 33.7667 73.2936 33.825 73.177 33.875C72.7603 34.1083 72.3186 34.1917 71.852 34.125C71.6186 34.0583 71.4103 33.95 71.227 33.8C71.1936 33.7667 71.1686 33.75 71.152 33.75C71.1353 33.7333 71.1186 33.7083 71.102 33.675C71.0853 33.6583 71.0686 33.6417 71.052 33.625C71.0353 33.5917 71.0103 33.5667 70.977 33.55C70.8936 33.4667 70.827 33.3917 70.777 33.325C70.727 33.2417 70.677 33.1583 70.627 33.075C70.5936 32.9917 70.552 32.9167 70.502 32.85C70.4686 32.7667 70.427 32.6833 70.377 32.6C70.3436 32.5333 70.3103 32.475 70.277 32.425C70.2436 32.3583 70.2186 32.2917 70.202 32.225C70.1353 32.075 70.0936 31.9417 70.077 31.825L69.552 30.6C68.402 30.6 67.252 30.6083 66.102 30.625C64.9686 30.625 63.827 30.6167 62.677 30.6L62.152 31.825C62.1186 31.8917 62.0936 31.9583 62.077 32.025C62.077 32.0917 62.0603 32.1583 62.027 32.225C61.9936 32.2917 61.9603 32.3583 61.927 32.425C61.9103 32.475 61.8853 32.5333 61.852 32.6C61.802 32.6833 61.752 32.7667 61.702 32.85C61.6686 32.9167 61.627 32.9917 61.577 33.075C61.5436 33.1583 61.502 33.2417 61.452 33.325C61.402 33.3917 61.3353 33.4667 61.252 33.55C61.2186 33.5667 61.1936 33.5917 61.177 33.625C61.1603 33.6417 61.1436 33.6583 61.127 33.675C61.1103 33.7083 61.0936 33.7333 61.077 33.75C61.0603 33.75 61.0353 33.7667 61.002 33.8C60.8186 33.95 60.6103 34.0583 60.377 34.125C59.9103 34.1917 59.4686 34.1083 59.052 33.875C58.9353 33.825 58.8353 33.7667 58.752 33.7C58.6686 33.6167 58.602 33.5333 58.552 33.45C58.4353 33.2833 58.377 33.1 58.377 32.9C58.377 32.7833 58.377 32.6833 58.377 32.6C58.3936 32.5 58.4103 32.4 58.427 32.3C58.4603 32.15 58.502 32 58.552 31.85C58.602 31.7 58.627 31.625 58.627 31.625L63.827 18.825L63.977 18.425C64.0103 18.325 64.052 18.2333 64.102 18.15C64.152 18.0667 64.1936 17.9667 64.227 17.85C64.3103 17.6333 64.402 17.4417 64.502 17.275C64.552 17.175 64.6103 17.0833 64.677 17C64.7436 16.9167 64.8103 16.8333 64.877 16.75C64.977 16.6167 65.1186 16.5083 65.302 16.425C65.5353 16.3417 65.802 16.3 66.102 16.3C66.4186 16.3 66.6936 16.3417 66.927 16.425C67.1103 16.5083 67.252 16.6167 67.352 16.75C67.4686 16.9 67.5936 17.075 67.727 17.275C67.827 17.4417 67.9186 17.6333 68.002 17.85C68.0353 17.9667 68.077 18.0667 68.127 18.15C68.177 18.2333 68.2186 18.325 68.252 18.425L68.402 18.825L73.602 31.625C73.602 31.625 73.627 31.7 73.677 31.85C73.727 32 73.7686 32.15 73.802 32.3ZM67.877 26.175C67.6603 25.6917 67.4353 25.1917 67.202 24.675C66.9853 24.1583 66.752 23.6333 66.502 23.1C66.4353 22.95 66.3686 22.8 66.302 22.65C66.2353 22.4833 66.1686 22.325 66.102 22.175C66.052 22.325 65.9936 22.4833 65.927 22.65C65.8603 22.8 65.7936 22.95 65.727 23.1C65.477 23.6333 65.2353 24.1583 65.002 24.675C64.7853 25.1917 64.5686 25.6917 64.352 26.175L63.902 27.275H68.327L67.877 26.175ZM86.8172 17.375C86.8339 17.4583 86.8339 17.5417 86.8172 17.625C86.8172 17.7083 86.7922 17.8 86.7422 17.9C86.6755 18.1333 86.6005 18.3417 86.5172 18.525C86.4172 18.7583 86.2922 18.9583 86.1422 19.125C86.0755 19.225 86.0089 19.325 85.9422 19.425C85.8922 19.5083 85.8422 19.5917 85.7922 19.675L85.4672 20.1L82.2672 24.725L81.6922 25.45V32.1C81.6589 32.1833 81.6422 32.2667 81.6422 32.35C81.6422 32.4333 81.6339 32.525 81.6172 32.625C81.5839 32.7083 81.5589 32.7917 81.5422 32.875C81.5255 32.9417 81.5005 33.0167 81.4672 33.1C81.4339 33.1667 81.4172 33.2167 81.4172 33.25C81.4005 33.2833 81.3839 33.3083 81.3672 33.325C81.3672 33.3417 81.3589 33.3667 81.3422 33.4C81.2422 33.5667 81.1005 33.7167 80.9172 33.85C80.5505 34.0333 80.1339 34.075 79.6672 33.975C79.4005 33.9417 79.2005 33.8583 79.0672 33.725C78.9839 33.675 78.9172 33.6167 78.8672 33.55C78.8172 33.4833 78.7672 33.4083 78.7172 33.325C78.6839 33.225 78.6505 33.1333 78.6172 33.05C78.5839 32.9667 78.5589 32.8833 78.5422 32.8C78.5089 32.7167 78.4922 32.6417 78.4922 32.575C78.4922 32.4917 78.4922 32.4167 78.4922 32.35V25.525L77.9422 24.675L74.6922 20.075L74.4172 19.625C74.3172 19.475 74.1922 19.3 74.0422 19.1C73.9089 18.9167 73.7922 18.7167 73.6922 18.5C73.6255 18.4 73.5672 18.3 73.5172 18.2C73.4839 18.0833 73.4505 17.9667 73.4172 17.85C73.3672 17.6833 73.3589 17.5167 73.3922 17.35C73.4422 17.1333 73.5422 16.95 73.6922 16.8C73.8589 16.65 74.0339 16.5333 74.2172 16.45C74.4505 16.2833 74.7172 16.2167 75.0172 16.25C75.2005 16.25 75.3589 16.2833 75.4922 16.35C75.6255 16.4167 75.7589 16.4917 75.8922 16.575C76.0422 16.6917 76.1839 16.8167 76.3172 16.95C76.4672 17.0833 76.6005 17.225 76.7172 17.375C76.8505 17.5417 76.9755 17.7 77.0922 17.85C77.2089 17.9833 77.3255 18.1417 77.4422 18.325L77.5172 18.425C77.9172 18.9583 78.2922 19.475 78.6422 19.975C78.9922 20.4583 79.3589 20.9833 79.7422 21.55C79.7755 21.5833 79.8255 21.65 79.8922 21.75C79.9589 21.85 80.0339 21.9667 80.1172 22.1C80.1839 21.9833 80.2422 21.8833 80.2922 21.8C80.3589 21.7 80.4089 21.6333 80.4422 21.6C80.8255 21.0333 81.1922 20.5 81.5422 20C81.8922 19.5 82.2672 18.9833 82.6672 18.45L82.7172 18.35C82.8505 18.2 82.9672 18.05 83.0672 17.9C83.1839 17.7333 83.3089 17.5667 83.4422 17.4C83.6589 17.1 83.9505 16.8417 84.3172 16.625C84.5839 16.4417 84.8589 16.325 85.1422 16.275C85.4589 16.2417 85.7339 16.3083 85.9672 16.475C86.0672 16.5417 86.1589 16.6 86.2422 16.65C86.3422 16.7 86.4255 16.7583 86.4922 16.825C86.6255 16.975 86.7339 17.1583 86.8172 17.375Z" fill="white"/>
</svg>
