<svg width="237" height="54" viewBox="0 0 237 54" fill="none" xmlns="http://www.w3.org/2000/svg">
<rect width="237" height="54" rx="27" fill="white"/>
<path d="M47.8682 21.1C48.3749 21.5667 48.7482 22.1267 48.9882 22.78C49.2282 23.42 49.3215 24.06 49.2682 24.7C49.2149 25.3133 49.0215 25.88 48.6882 26.4C48.3549 26.9067 47.8482 27.2933 47.1682 27.56C46.6349 27.7867 46.1082 27.9467 45.5882 28.04C45.0682 28.1333 44.4949 28.2067 43.8682 28.26C43.5882 28.2867 43.3482 28.3067 43.1482 28.32C42.9615 28.32 42.7415 28.3267 42.4882 28.34C42.4349 28.34 42.3415 28.34 42.2082 28.34C42.0882 28.34 42.0015 28.3467 41.9482 28.36V32.5C41.9082 32.7533 41.8549 33.0133 41.7882 33.28C41.7349 33.5467 41.5815 33.7533 41.3282 33.9C41.1815 33.98 41.0015 34.0267 40.7882 34.04C40.5749 34.0533 40.3815 34.0467 40.2082 34.02C40.0215 33.9933 39.8615 33.9467 39.7282 33.88C39.6082 33.8 39.5082 33.6667 39.4282 33.48C39.3749 33.36 39.3215 33.2267 39.2682 33.08C39.2282 32.92 39.2082 32.7267 39.2082 32.5V21.44C39.2082 21.3467 39.2149 21.26 39.2282 21.18C39.2415 21.1 39.2549 21.02 39.2682 20.94C39.2949 20.8733 39.3149 20.8 39.3282 20.72C39.3415 20.64 39.3615 20.5667 39.3882 20.5C39.4149 20.4333 39.4415 20.3733 39.4682 20.32C39.5082 20.2667 39.5549 20.22 39.6082 20.18C39.6749 20.1133 39.7749 20.0533 39.9082 20C40.0549 19.9467 40.2682 19.92 40.5482 19.92H40.5882C41.0015 19.8933 41.4615 19.8733 41.9682 19.86C42.4749 19.8333 42.8949 19.84 43.2282 19.88C43.4149 19.9067 43.5882 19.9267 43.7482 19.94C43.9082 19.94 44.0615 19.9467 44.2082 19.96C44.3682 19.9733 44.5282 19.9867 44.6882 20C44.8482 20.0133 45.0082 20.0333 45.1682 20.06C45.3015 20.0867 45.4215 20.1067 45.5282 20.12C45.6482 20.1333 45.7682 20.1533 45.8882 20.18C45.9949 20.2067 46.1082 20.2333 46.2282 20.26C46.3615 20.2867 46.4815 20.3333 46.5882 20.4C46.8682 20.48 47.1015 20.58 47.2882 20.7C47.4749 20.82 47.6682 20.9533 47.8682 21.1ZM46.6682 24.4C46.6815 24.08 46.6149 23.8 46.4682 23.56C46.3349 23.32 46.1415 23.12 45.8882 22.96C45.6349 22.8 45.3482 22.6733 45.0282 22.58C44.7082 22.4867 44.3882 22.42 44.0682 22.38C43.9882 22.38 43.8749 22.38 43.7282 22.38C43.5949 22.3667 43.4482 22.36 43.2882 22.36C43.1282 22.3467 42.9749 22.34 42.8282 22.34C42.6949 22.3267 42.5882 22.32 42.5082 22.32C42.4415 22.3067 42.3615 22.3 42.2682 22.3C42.1749 22.3 42.0682 22.3 41.9482 22.3C41.9615 22.7133 41.9682 23.1133 41.9682 23.5C41.9682 23.8733 41.9682 24.28 41.9682 24.72C41.9549 24.96 41.9482 25.2 41.9482 25.44C41.9482 25.68 41.9482 25.9133 41.9482 26.14L43.1882 26.12C43.5082 26.12 43.8615 26.1 44.2482 26.06C44.6349 26.02 45.0015 25.94 45.3482 25.82C45.6949 25.7 45.9882 25.5267 46.2282 25.3C46.4815 25.0733 46.6282 24.7733 46.6682 24.4ZM53.4274 26.42C53.4274 26.7933 53.4274 27.2133 53.4274 27.68C53.4408 28.1467 53.4474 28.6333 53.4474 29.14C53.4474 29.6333 53.4474 30.1267 53.4474 30.62C53.4474 31.1 53.4408 31.5467 53.4274 31.96C53.4141 32.16 53.3941 32.38 53.3674 32.62C53.3408 32.8467 53.2874 33.06 53.2074 33.26C53.1274 33.46 53.0008 33.6267 52.8274 33.76C52.6674 33.88 52.4474 33.9333 52.1674 33.92C51.7541 33.8933 51.4541 33.7133 51.2674 33.38C51.0941 33.0467 50.9941 32.58 50.9674 31.98C50.9674 31.6733 50.9608 31.32 50.9474 30.92C50.9474 30.52 50.9408 30.1133 50.9274 29.7C50.9274 29.2867 50.9274 28.8867 50.9274 28.5C50.9274 28.1 50.9274 27.74 50.9274 27.42C50.9274 27.2333 50.9208 27.0067 50.9074 26.74C50.9074 26.4733 50.9141 26.2 50.9274 25.92C50.9408 25.64 50.9741 25.3733 51.0274 25.12C51.0808 24.8533 51.1674 24.6333 51.2874 24.46C51.3808 24.3533 51.5141 24.2733 51.6874 24.22C51.8608 24.1533 52.0408 24.12 52.2274 24.12C52.4274 24.12 52.6141 24.1533 52.7874 24.22C52.9741 24.2867 53.1074 24.38 53.1874 24.5C53.2408 24.58 53.2808 24.6933 53.3074 24.84C53.3341 24.9867 53.3541 25.1533 53.3674 25.34C53.3941 25.5133 53.4074 25.7 53.4074 25.9C53.4208 26.0867 53.4274 26.26 53.4274 26.42ZM52.6674 22.38C52.2541 22.4867 51.9074 22.4467 51.6274 22.26C51.3608 22.06 51.1941 21.7667 51.1274 21.38C51.0741 21.1 51.0941 20.8533 51.1874 20.64C51.2808 20.4267 51.4208 20.2667 51.6074 20.16C51.7941 20.04 52.0074 19.9867 52.2474 20C52.4874 20.0133 52.7274 20.1067 52.9674 20.28C53.1941 20.44 53.3541 20.6267 53.4474 20.84C53.5541 21.0533 53.5874 21.26 53.5474 21.46C53.5208 21.66 53.4341 21.8467 53.2874 22.02C53.1408 22.18 52.9341 22.3 52.6674 22.38ZM62.6248 26.3C62.7314 26.4867 62.7848 26.6867 62.7848 26.9C62.7981 27.1133 62.7514 27.3133 62.6448 27.5C62.5248 27.74 62.3514 27.9067 62.1248 28C61.9114 28.08 61.6714 28.0867 61.4048 28.02C61.2848 27.9933 61.1781 27.9467 61.0848 27.88C60.9914 27.8133 60.8914 27.7467 60.7848 27.68C60.6914 27.6 60.5781 27.5267 60.4448 27.46C60.3248 27.3933 60.1648 27.3467 59.9648 27.32C59.7648 27.2933 59.5448 27.2933 59.3048 27.32C59.0781 27.3467 58.8714 27.4 58.6848 27.48C58.3914 27.6267 58.1581 27.8533 57.9848 28.16C57.8114 28.4533 57.6981 28.7733 57.6448 29.12C57.5914 29.4533 57.5981 29.7933 57.6648 30.14C57.7448 30.4867 57.8914 30.78 58.1048 31.02C58.2648 31.2067 58.4714 31.36 58.7248 31.48C58.9914 31.6 59.2448 31.6733 59.4848 31.7C59.7114 31.7267 59.9381 31.7267 60.1648 31.7C60.3914 31.66 60.6114 31.6067 60.8248 31.54C60.9848 31.4733 61.1648 31.3867 61.3648 31.28C61.5648 31.16 61.7581 31.0867 61.9448 31.06C62.1848 31.06 62.3714 31.1267 62.5048 31.26C62.6381 31.38 62.7314 31.5333 62.7848 31.72C62.8381 31.8933 62.8448 32.08 62.8048 32.28C62.7781 32.48 62.7048 32.6533 62.5848 32.8C62.4248 33 62.1981 33.1933 61.9048 33.38C61.6114 33.5533 61.3314 33.68 61.0648 33.76C60.7448 33.8667 60.3848 33.9267 59.9848 33.94C59.5981 33.9533 59.2314 33.94 58.8848 33.9C58.7248 33.8733 58.5581 33.84 58.3848 33.8C58.2114 33.76 58.0448 33.7133 57.8848 33.66C57.2981 33.4467 56.8048 33.1467 56.4048 32.76C56.0181 32.36 55.7181 31.9133 55.5048 31.42C55.3048 30.9267 55.1914 30.4 55.1648 29.84C55.1381 29.28 55.2048 28.7267 55.3648 28.18C55.5114 27.66 55.6914 27.22 55.9048 26.86C56.1314 26.5 56.3914 26.2067 56.6848 25.98C56.9914 25.74 57.3314 25.5533 57.7048 25.42C58.0781 25.2733 58.4914 25.1467 58.9448 25.04C59.4114 24.9467 59.9048 24.9467 60.4248 25.04C60.9448 25.1333 61.4114 25.3067 61.8248 25.56C62.1448 25.7333 62.4114 25.98 62.6248 26.3ZM68.403 29.4C68.6964 29.7067 68.9097 29.9333 69.043 30.08C69.1897 30.2133 69.2897 30.3133 69.343 30.38C69.4097 30.4467 69.4564 30.4867 69.483 30.5C69.5097 30.5133 69.5564 30.5533 69.623 30.62C69.6897 30.6867 69.7964 30.7933 69.943 30.94C70.0897 31.0733 70.3097 31.2933 70.603 31.6C70.843 31.84 71.0364 32.12 71.183 32.44C71.343 32.7467 71.3297 33.08 71.143 33.44C71.0364 33.6267 70.9164 33.76 70.783 33.84C70.6497 33.9067 70.503 33.9333 70.343 33.92C70.1964 33.9067 70.0364 33.86 69.863 33.78C69.703 33.7 69.543 33.6 69.383 33.48C69.0764 33.2533 68.783 32.9933 68.503 32.7C68.223 32.3933 67.9964 32.16 67.823 32C67.703 31.88 67.6297 31.8 67.603 31.76C67.5764 31.7333 67.5497 31.7133 67.523 31.7C67.4964 31.6733 67.4697 31.6467 67.443 31.62C67.3497 31.5267 67.2497 31.4333 67.143 31.34C67.0364 31.2467 66.9297 31.1467 66.823 31.04V31.82C66.823 31.9667 66.8297 32.0733 66.843 32.14C66.843 32.2733 66.8364 32.3733 66.823 32.44C66.783 32.5867 66.763 32.7267 66.763 32.86C66.7497 32.9267 66.7364 32.9933 66.723 33.06C66.7097 33.1133 66.6897 33.1733 66.663 33.24C66.6497 33.2667 66.6364 33.2867 66.623 33.3C66.623 33.3133 66.623 33.3333 66.623 33.36C66.6097 33.3867 66.5964 33.4067 66.583 33.42C66.583 33.4333 66.5764 33.4533 66.563 33.48C66.4964 33.6133 66.3897 33.74 66.243 33.86C65.9897 34.0067 65.6764 34.0467 65.303 33.98C65.103 33.94 64.9497 33.8667 64.843 33.76C64.723 33.68 64.643 33.5667 64.603 33.42C64.5764 33.3533 64.5497 33.2867 64.523 33.22C64.5097 33.14 64.4897 33.0667 64.463 33C64.4364 32.9333 64.423 32.8733 64.423 32.82C64.423 32.7533 64.423 32.7 64.423 32.66V21.28C64.423 21.2 64.423 21.12 64.423 21.04C64.423 20.96 64.4297 20.88 64.443 20.8C64.4564 20.72 64.4697 20.6467 64.483 20.58C64.5097 20.5 64.5364 20.4267 64.563 20.36C64.6164 20.2267 64.683 20.12 64.763 20.04C64.8297 19.9733 64.8964 19.9267 64.963 19.9C65.043 19.86 65.1164 19.8267 65.183 19.8C65.2497 19.7867 65.323 19.78 65.403 19.78C65.4964 19.7667 65.583 19.76 65.663 19.76C65.8497 19.76 66.0364 19.8133 66.223 19.92C66.3964 20.04 66.523 20.1933 66.603 20.38C66.7097 20.6333 66.763 20.88 66.763 21.12C66.7764 21.2533 66.7897 21.46 66.803 21.74C66.8164 22.0067 66.823 22.2067 66.823 22.34V22.42C66.8364 22.86 66.843 23.28 66.843 23.68C66.843 24.08 66.843 24.5133 66.843 24.98C66.8297 25.4467 66.823 25.8933 66.823 26.32C66.823 26.7333 66.823 27.1467 66.823 27.56V27.78C66.9297 27.6733 67.0364 27.5733 67.143 27.48C67.2497 27.3867 67.3497 27.2867 67.443 27.18C67.4964 27.14 67.5497 27.0933 67.603 27.04L67.823 26.82C67.9964 26.6467 68.223 26.4133 68.503 26.12C68.783 25.8133 69.0764 25.5467 69.383 25.32C69.7164 25.08 70.0364 24.9333 70.343 24.88C70.663 24.8267 70.9297 24.9867 71.143 25.36C71.3297 25.72 71.343 26.06 71.183 26.38C71.0364 26.6867 70.843 26.9733 70.603 27.24C70.3097 27.5467 70.0897 27.7733 69.943 27.92C69.7964 28.0533 69.6897 28.1533 69.623 28.22C69.5564 28.2733 69.5097 28.3067 69.483 28.32C69.4564 28.3333 69.4097 28.3733 69.343 28.44C69.2897 28.4933 69.1897 28.5933 69.043 28.74C68.9097 28.8733 68.6964 29.0933 68.403 29.4ZM89.7549 25C89.8749 25.1733 89.9149 25.4467 89.8749 25.82C89.8483 26.18 89.7816 26.5733 89.6749 27C89.5683 27.4133 89.4416 27.8267 89.2949 28.24C89.1483 28.64 89.0283 28.9733 88.9349 29.24C88.7083 29.8533 88.5083 30.4267 88.3349 30.96C88.1616 31.4933 87.9549 32.08 87.7149 32.72C87.6349 32.9067 87.5549 33.0933 87.4749 33.28C87.4083 33.4667 87.3216 33.6333 87.2149 33.78C87.1216 33.9267 87.0016 34.0467 86.8549 34.14C86.7216 34.2333 86.5549 34.28 86.3549 34.28C86.1283 34.28 85.9283 34.2 85.7549 34.04C85.5949 33.88 85.4549 33.68 85.3349 33.44C85.2283 33.2 85.1349 32.9467 85.0549 32.68C84.9749 32.4133 84.9083 32.18 84.8549 31.98C84.6816 31.3933 84.5283 30.86 84.3949 30.38C84.2616 29.8867 84.1416 29.4467 84.0349 29.06C83.9149 29.4467 83.7949 29.8667 83.6749 30.32C83.5549 30.7733 83.4016 31.2867 83.2149 31.86C83.1616 32.06 83.0949 32.3067 83.0149 32.6C82.9349 32.88 82.8349 33.1467 82.7149 33.4C82.6083 33.6533 82.4683 33.8667 82.2949 34.04C82.1349 34.2267 81.9416 34.3067 81.7149 34.28C81.3949 34.2667 81.1149 34.14 80.8749 33.9C80.6483 33.6467 80.4483 33.3467 80.2749 33C80.1149 32.6533 79.9749 32.2933 79.8549 31.92C79.7349 31.5467 79.6349 31.22 79.5549 30.94C79.4483 30.58 79.3216 30.18 79.1749 29.74C79.0283 29.3 78.8816 28.8533 78.7349 28.4C78.6016 27.9333 78.4749 27.4733 78.3549 27.02C78.2349 26.5533 78.1549 26.1267 78.1149 25.74C78.0883 25.4867 78.1349 25.2533 78.2549 25.04C78.3883 24.8267 78.5549 24.68 78.7549 24.6C78.9683 24.5067 79.1949 24.4867 79.4349 24.54C79.6883 24.5933 79.9149 24.7533 80.1149 25.02C80.2216 25.1533 80.3149 25.32 80.3949 25.52C80.4883 25.72 80.5683 25.94 80.6349 26.18C80.7016 26.4067 80.7683 26.64 80.8349 26.88C80.9016 27.12 80.9683 27.3533 81.0349 27.58C81.1816 28.0867 81.3016 28.4867 81.3949 28.78C81.5016 29.06 81.6083 29.3533 81.7149 29.66C81.8083 29.3533 81.9016 29.06 81.9949 28.78C82.1016 28.4867 82.2283 28.0867 82.3749 27.58C82.4283 27.42 82.4883 27.24 82.5549 27.04C82.6349 26.8267 82.7149 26.6267 82.7949 26.44C82.8883 26.2533 82.9883 26.08 83.0949 25.92C83.2149 25.7467 83.3416 25.62 83.4749 25.54C83.7683 25.34 84.0349 25.2933 84.2749 25.4C84.5149 25.4933 84.7216 25.66 84.8949 25.9C85.0683 26.14 85.2149 26.42 85.3349 26.74C85.4683 27.0467 85.5749 27.3267 85.6549 27.58C85.7349 27.8467 85.8083 28.08 85.8749 28.28C85.9416 28.4667 86.0016 28.64 86.0549 28.8C86.1083 28.96 86.1549 29.1133 86.1949 29.26C86.2483 29.4067 86.3016 29.56 86.3549 29.72C86.4083 29.56 86.4549 29.4067 86.4949 29.26C86.5483 29.1133 86.6016 28.96 86.6549 28.8C86.7083 28.64 86.7683 28.4667 86.8349 28.28C86.9016 28.08 86.9749 27.8467 87.0549 27.58C87.1083 27.4067 87.1616 27.2067 87.2149 26.98C87.2816 26.7533 87.3483 26.5267 87.4149 26.3C87.4816 26.06 87.5483 25.8333 87.6149 25.62C87.6949 25.4067 87.7816 25.2267 87.8749 25.08C87.9683 24.9333 88.0949 24.8133 88.2549 24.72C88.4149 24.6133 88.5816 24.5533 88.7549 24.54C88.9283 24.5133 89.1016 24.5333 89.2749 24.6C89.4616 24.6667 89.6216 24.8 89.7549 25ZM99.3129 30.06C99.3262 30.3267 99.3329 30.6067 99.3329 30.9C99.3329 31.18 99.3262 31.44 99.3129 31.68C99.2996 32.04 99.2796 32.3733 99.2529 32.68C99.2262 32.9733 99.1729 33.2267 99.0929 33.44C99.0129 33.64 98.8862 33.7933 98.7129 33.9C98.5529 33.9933 98.3262 34.02 98.0329 33.98C97.7262 33.94 97.5062 33.7933 97.3729 33.54C97.2396 33.2867 97.1462 33 97.0929 32.68C97.0529 32.3467 97.0396 32.0133 97.0529 31.68C97.0662 31.3467 97.0662 31.0867 97.0529 30.9C97.0396 30.6067 97.0262 30.2733 97.0129 29.9C97.0129 29.5133 96.9729 29.1533 96.8929 28.82C96.8262 28.4733 96.7062 28.18 96.5329 27.94C96.3596 27.7 96.0996 27.5733 95.7529 27.56C95.3129 27.5333 94.9729 27.5667 94.7329 27.66C94.5062 27.7533 94.3396 27.8933 94.2329 28.08C94.1262 28.2533 94.0596 28.4667 94.0329 28.72C94.0196 28.9733 93.9929 29.2467 93.9529 29.54L93.9329 30.32V31.78C93.9329 32.02 93.9262 32.2733 93.9129 32.54C93.9129 32.7933 93.8729 33.0267 93.7929 33.24C93.7129 33.4533 93.5862 33.6333 93.4129 33.78C93.2529 33.9267 93.0129 34 92.6929 34C92.2929 34 91.9929 33.8733 91.7929 33.62C91.6062 33.3533 91.5129 33.0267 91.5129 32.64V21.14C91.5129 21.06 91.5129 20.9867 91.5129 20.92C91.5262 20.84 91.5396 20.76 91.5529 20.68C91.5796 20.6 91.5996 20.5267 91.6129 20.46C91.6262 20.38 91.6462 20.3067 91.6729 20.24C91.7129 20.1067 91.7796 20.0067 91.8729 19.94C91.9396 19.8733 92.0062 19.82 92.0729 19.78C92.1396 19.74 92.2129 19.7133 92.2929 19.7C92.3596 19.6867 92.4329 19.68 92.5129 19.68C92.5929 19.6667 92.6729 19.66 92.7529 19.66C92.9529 19.66 93.1462 19.72 93.3329 19.84C93.4129 19.8933 93.4862 19.9533 93.5529 20.02C93.6196 20.0733 93.6729 20.1533 93.7129 20.26C93.8196 20.5133 93.8729 20.7533 93.8729 20.98C93.8862 21.0467 93.8929 21.1467 93.8929 21.28C93.9062 21.4 93.9129 21.5267 93.9129 21.66C93.9129 21.7933 93.9129 21.9267 93.9129 22.06C93.9262 22.18 93.9329 22.2733 93.9329 22.34V22.44C93.9462 22.8667 93.9529 23.3 93.9529 23.74C93.9529 24.18 93.9529 24.6267 93.9529 25.08V25.42C94.5129 25.2333 95.0996 25.1467 95.7129 25.16C96.3262 25.16 96.8729 25.28 97.3529 25.52C97.8462 25.7733 98.2196 26.06 98.4729 26.38C98.7396 26.7 98.9329 27.0533 99.0529 27.44C99.1729 27.8267 99.2396 28.24 99.2529 28.68C99.2796 29.12 99.2996 29.58 99.3129 30.06ZM103.507 24.96C103.947 24.7467 104.407 24.5933 104.887 24.5C105.367 24.4067 105.84 24.3867 106.307 24.44C106.787 24.4933 107.247 24.62 107.687 24.82C108.14 25.02 108.554 25.3 108.927 25.66C109.234 25.9667 109.5 26.34 109.727 26.78C109.954 27.2067 110.12 27.6267 110.227 28.04C110.454 28.7733 110.487 29.5133 110.327 30.26C110.167 31.0067 109.894 31.7 109.507 32.34C109.32 32.6333 109.087 32.9 108.807 33.14C108.54 33.3667 108.254 33.5533 107.947 33.7C107.547 33.8867 107.114 34.0133 106.647 34.08C106.18 34.16 105.727 34.18 105.287 34.14C104.487 34.1 103.78 33.9 103.167 33.54C102.567 33.18 102.08 32.72 101.707 32.16C101.347 31.6 101.107 30.9667 100.987 30.26C100.88 29.54 100.927 28.8067 101.127 28.06C101.34 27.26 101.647 26.6133 102.047 26.12C102.46 25.6133 102.947 25.2267 103.507 24.96ZM104.107 27.64C103.907 27.8267 103.754 28.06 103.647 28.34C103.54 28.62 103.474 28.9133 103.447 29.22C103.42 29.5133 103.44 29.8133 103.507 30.12C103.587 30.4133 103.707 30.68 103.867 30.92C104 31.12 104.24 31.2867 104.587 31.42C104.934 31.5533 105.294 31.6333 105.667 31.66C106.094 31.6867 106.467 31.5733 106.787 31.32C107.107 31.0533 107.347 30.7267 107.507 30.34C107.68 29.9533 107.76 29.5333 107.747 29.08C107.734 28.6267 107.614 28.2133 107.387 27.84C107.227 27.5733 107 27.38 106.707 27.26C106.427 27.1267 106.127 27.06 105.807 27.06C105.5 27.0467 105.194 27.0933 104.887 27.2C104.58 27.2933 104.32 27.44 104.107 27.64ZM125.516 30.22C125.516 30.6467 125.503 31.1067 125.476 31.6C125.463 32.0933 125.443 32.5533 125.416 32.98C125.416 33.38 125.396 33.78 125.356 34.18C125.329 34.5267 125.276 34.9 125.196 35.3C125.116 35.7133 125.003 36.0933 124.856 36.44C124.669 36.8933 124.416 37.28 124.096 37.6C123.776 37.9333 123.363 38.1733 122.856 38.32C122.429 38.4267 122.029 38.4933 121.656 38.52C121.283 38.56 120.883 38.5533 120.456 38.5C120.176 38.46 119.876 38.38 119.556 38.26C119.236 38.1533 118.936 38.0133 118.656 37.84C118.376 37.6667 118.129 37.46 117.916 37.22C117.703 36.9933 117.556 36.7333 117.476 36.44C117.383 36.08 117.376 35.7667 117.456 35.5C117.549 35.2333 117.689 35.04 117.876 34.92C118.063 34.8 118.283 34.78 118.536 34.86C118.789 34.94 119.029 35.1467 119.256 35.48C119.416 35.72 119.649 35.9133 119.956 36.06C120.263 36.2067 120.589 36.2933 120.936 36.32C121.283 36.3467 121.616 36.3 121.936 36.18C122.269 36.0733 122.529 35.88 122.716 35.6C122.849 35.4 122.943 35.1133 122.996 34.74C123.063 34.3667 123.103 34 123.116 33.64C122.436 33.92 121.736 34.0267 121.016 33.96C120.309 33.88 119.663 33.66 119.076 33.3C118.503 32.9267 118.036 32.4333 117.676 31.82C117.329 31.1933 117.183 30.4867 117.236 29.7C117.276 29.02 117.416 28.38 117.656 27.78C117.909 27.18 118.323 26.68 118.896 26.28C119.363 25.96 119.889 25.7533 120.476 25.66C121.063 25.5533 121.629 25.5 122.176 25.5C122.496 25.5 122.809 25.5 123.116 25.5C123.436 25.5 123.729 25.54 123.996 25.62C124.263 25.7 124.503 25.8333 124.716 26.02C124.929 26.2067 125.089 26.48 125.196 26.84C125.369 27.4 125.463 27.9533 125.476 28.5C125.503 29.0467 125.516 29.62 125.516 30.22ZM121.656 31.88C121.789 31.88 121.916 31.8667 122.036 31.84C122.169 31.8133 122.296 31.78 122.416 31.74C122.643 31.66 122.809 31.5533 122.916 31.42C123.036 31.2867 123.116 31.14 123.156 30.98C123.196 30.8067 123.209 30.62 123.196 30.42C123.196 30.22 123.196 30.0133 123.196 29.8C123.196 29.6267 123.189 29.4333 123.176 29.22C123.176 29.0067 123.163 28.8067 123.136 28.62C123.109 28.42 123.069 28.2467 123.016 28.1C122.963 27.9533 122.883 27.86 122.776 27.82C122.589 27.7667 122.376 27.7333 122.136 27.72C121.896 27.6933 121.656 27.6933 121.416 27.72C121.176 27.7333 120.943 27.78 120.716 27.86C120.503 27.9267 120.323 28.02 120.176 28.14C119.976 28.3133 119.823 28.5267 119.716 28.78C119.609 29.0333 119.543 29.3 119.516 29.58C119.503 29.86 119.523 30.1333 119.576 30.4C119.643 30.6667 119.756 30.9067 119.916 31.12C120.103 31.3867 120.356 31.58 120.676 31.7C120.996 31.82 121.323 31.88 121.656 31.88ZM129.718 24.96C130.158 24.7467 130.618 24.5933 131.098 24.5C131.578 24.4067 132.051 24.3867 132.518 24.44C132.998 24.4933 133.458 24.62 133.898 24.82C134.351 25.02 134.765 25.3 135.138 25.66C135.445 25.9667 135.711 26.34 135.938 26.78C136.165 27.2067 136.331 27.6267 136.438 28.04C136.665 28.7733 136.698 29.5133 136.538 30.26C136.378 31.0067 136.105 31.7 135.718 32.34C135.531 32.6333 135.298 32.9 135.018 33.14C134.751 33.3667 134.465 33.5533 134.158 33.7C133.758 33.8867 133.325 34.0133 132.858 34.08C132.391 34.16 131.938 34.18 131.498 34.14C130.698 34.1 129.991 33.9 129.378 33.54C128.778 33.18 128.291 32.72 127.918 32.16C127.558 31.6 127.318 30.9667 127.198 30.26C127.091 29.54 127.138 28.8067 127.338 28.06C127.551 27.26 127.858 26.6133 128.258 26.12C128.671 25.6133 129.158 25.2267 129.718 24.96ZM130.318 27.64C130.118 27.8267 129.965 28.06 129.858 28.34C129.751 28.62 129.685 28.9133 129.658 29.22C129.631 29.5133 129.651 29.8133 129.718 30.12C129.798 30.4133 129.918 30.68 130.078 30.92C130.211 31.12 130.451 31.2867 130.798 31.42C131.145 31.5533 131.505 31.6333 131.878 31.66C132.305 31.6867 132.678 31.5733 132.998 31.32C133.318 31.0533 133.558 30.7267 133.718 30.34C133.891 29.9533 133.971 29.5333 133.958 29.08C133.945 28.6267 133.825 28.2133 133.598 27.84C133.438 27.5733 133.211 27.38 132.918 27.26C132.638 27.1267 132.338 27.06 132.018 27.06C131.711 27.0467 131.405 27.0933 131.098 27.2C130.791 27.2933 130.531 27.44 130.318 27.64ZM145.152 31.26C145.312 31.22 145.472 31.1933 145.632 31.18C145.805 31.1667 145.958 31.1867 146.092 31.24C146.238 31.2933 146.358 31.3867 146.452 31.52C146.545 31.64 146.592 31.8133 146.592 32.04C146.592 32.2 146.552 32.3533 146.472 32.5C146.392 32.6467 146.292 32.78 146.172 32.9C146.052 33.02 145.918 33.1267 145.772 33.22C145.625 33.3 145.485 33.3667 145.352 33.42C144.965 33.5933 144.518 33.7267 144.012 33.82C143.518 33.9133 143.005 33.9467 142.472 33.92C141.752 33.8933 141.058 33.7533 140.392 33.5C139.738 33.2333 139.225 32.8 138.852 32.2C138.505 31.6133 138.298 30.96 138.232 30.24C138.165 29.52 138.198 28.84 138.332 28.2C138.478 27.4267 138.725 26.8 139.072 26.32C139.432 25.8267 139.858 25.4333 140.352 25.14C140.952 24.7933 141.625 24.6133 142.372 24.6C143.118 24.5867 143.832 24.7333 144.512 25.04C144.965 25.24 145.372 25.5133 145.732 25.86C146.092 26.1933 146.365 26.6 146.552 27.08C146.605 27.2 146.645 27.3467 146.672 27.52C146.712 27.6933 146.738 27.88 146.752 28.08C146.765 28.2667 146.765 28.4533 146.752 28.64C146.738 28.8267 146.705 28.9933 146.652 29.14C146.572 29.38 146.472 29.5667 146.352 29.7C146.232 29.8333 146.078 29.9333 145.892 30C145.705 30.0667 145.478 30.1133 145.212 30.14C144.958 30.1533 144.652 30.1667 144.292 30.18C143.972 30.1933 143.672 30.2 143.392 30.2C143.112 30.2 142.825 30.2 142.532 30.2C142.238 30.1867 141.932 30.18 141.612 30.18C141.305 30.1667 140.958 30.1533 140.572 30.14C140.532 30.4067 140.565 30.64 140.672 30.84C140.792 31.0267 140.952 31.1867 141.152 31.32C141.352 31.44 141.578 31.5333 141.832 31.6C142.085 31.6667 142.332 31.7067 142.572 31.72C143.025 31.7467 143.458 31.7133 143.872 31.62C144.285 31.5133 144.712 31.3933 145.152 31.26ZM144.292 27.38C144.038 27.0867 143.772 26.8733 143.492 26.74C143.278 26.6467 143.052 26.6067 142.812 26.62C142.585 26.62 142.365 26.6533 142.152 26.72C141.765 26.8133 141.438 27.0133 141.172 27.32C141.145 27.3467 141.098 27.4133 141.032 27.52C140.965 27.6133 140.898 27.7133 140.832 27.82C140.778 27.9267 140.738 28.0267 140.712 28.12C140.685 28.2133 140.698 28.26 140.752 28.26H144.672C144.658 28.0733 144.625 27.92 144.572 27.8C144.518 27.6667 144.425 27.5267 144.292 27.38ZM153.148 30.48C152.895 30.32 152.608 30.1933 152.288 30.1C151.982 30.0067 151.662 29.92 151.328 29.84C151.008 29.76 150.695 29.6733 150.388 29.58C150.082 29.4733 149.802 29.3267 149.548 29.14C149.002 28.7267 148.682 28.22 148.588 27.62C148.508 27.0067 148.642 26.3933 148.988 25.78C149.175 25.46 149.422 25.2 149.728 25C150.035 24.7867 150.368 24.6267 150.728 24.52C151.102 24.4 151.482 24.3333 151.868 24.32C152.255 24.3067 152.622 24.3267 152.968 24.38C153.195 24.42 153.435 24.48 153.688 24.56C153.942 24.6267 154.175 24.72 154.388 24.84C154.615 24.96 154.815 25.1133 154.988 25.3C155.175 25.4733 155.308 25.6933 155.388 25.96C155.442 26.1333 155.448 26.3 155.408 26.46C155.382 26.62 155.315 26.7533 155.208 26.86C155.115 26.9667 154.988 27.0467 154.828 27.1C154.682 27.1533 154.522 27.1667 154.348 27.14C154.148 27.1 153.962 27.04 153.788 26.96C153.615 26.88 153.442 26.7933 153.268 26.7C153.095 26.6067 152.915 26.5267 152.728 26.46C152.555 26.3933 152.368 26.36 152.168 26.36C151.862 26.3467 151.608 26.4 151.408 26.52C151.208 26.64 151.068 26.7867 150.988 26.96C150.922 27.1333 150.928 27.32 151.008 27.52C151.102 27.72 151.288 27.8933 151.568 28.04C151.822 28.1733 152.102 28.28 152.408 28.36C152.715 28.44 153.015 28.52 153.308 28.6C153.615 28.68 153.908 28.7733 154.188 28.88C154.482 28.9867 154.742 29.1333 154.968 29.32C155.408 29.68 155.675 30.1 155.768 30.58C155.875 31.06 155.848 31.5333 155.688 32C155.528 32.4667 155.248 32.88 154.848 33.24C154.462 33.6 154.002 33.84 153.468 33.96C153.082 34.04 152.662 34.08 152.208 34.08C151.768 34.08 151.328 34.0333 150.888 33.94C150.462 33.8467 150.048 33.7 149.648 33.5C149.262 33.3 148.935 33.0467 148.668 32.74C148.482 32.5267 148.382 32.2867 148.368 32.02C148.368 31.74 148.422 31.5 148.528 31.3C148.648 31.0867 148.815 30.94 149.028 30.86C149.242 30.78 149.482 30.8267 149.748 31C149.962 31.1467 150.215 31.2933 150.508 31.44C150.802 31.5733 151.095 31.68 151.388 31.76C151.682 31.84 151.962 31.88 152.228 31.88C152.508 31.88 152.748 31.82 152.948 31.7C153.242 31.5133 153.395 31.3 153.408 31.06C153.422 30.8067 153.335 30.6133 153.148 30.48ZM168.386 25.54C168.612 25.6067 168.759 25.7333 168.826 25.92C168.892 26.0933 168.912 26.28 168.886 26.48C168.806 26.8933 168.579 27.1467 168.206 27.24C167.992 27.2933 167.772 27.32 167.546 27.32C167.332 27.32 167.112 27.3267 166.886 27.34V31.96C166.886 32.28 166.866 32.6067 166.826 32.94C166.826 33.06 166.792 33.1867 166.726 33.32C166.699 33.3867 166.679 33.4267 166.666 33.44C166.666 33.4667 166.652 33.5067 166.626 33.56C166.546 33.7067 166.439 33.8267 166.306 33.92C166.012 34.08 165.699 34.12 165.366 34.04C165.166 34 165.012 33.9333 164.906 33.84C164.786 33.7467 164.699 33.6333 164.646 33.5C164.619 33.4333 164.599 33.3667 164.586 33.3C164.572 33.2333 164.552 33.1667 164.526 33.1C164.512 33.0333 164.499 32.9733 164.486 32.92C164.486 32.8533 164.486 32.8 164.486 32.76V31.6C164.486 30.9067 164.486 30.1867 164.486 29.44C164.499 28.6933 164.506 27.9733 164.506 27.28C164.199 27.2667 163.879 27.26 163.546 27.26C163.226 27.2467 162.992 27.1667 162.846 27.02C162.766 26.94 162.712 26.84 162.686 26.72C162.659 26.5867 162.646 26.4533 162.646 26.32C162.659 26.1867 162.686 26.0667 162.726 25.96C162.766 25.84 162.819 25.7533 162.886 25.7C163.059 25.54 163.212 25.4533 163.346 25.44C163.492 25.4133 163.672 25.3933 163.886 25.38C163.912 25.38 163.999 25.38 164.146 25.38C164.306 25.3667 164.406 25.36 164.446 25.36C164.459 24.9067 164.472 24.4533 164.486 24C164.499 23.5467 164.539 23.1333 164.606 22.76C164.686 22.3733 164.799 22.04 164.946 21.76C165.106 21.4667 165.346 21.2467 165.666 21.1C166.052 20.9267 166.492 20.82 166.986 20.78C167.479 20.74 167.926 20.8 168.326 20.96C168.512 21.0267 168.692 21.16 168.866 21.36C169.052 21.56 169.139 21.78 169.126 22.02C169.112 22.26 169.066 22.48 168.986 22.68C168.906 22.88 168.732 23.0133 168.466 23.08C168.346 23.1067 168.219 23.12 168.086 23.12C167.966 23.1067 167.839 23.1 167.706 23.1C167.572 23.1 167.446 23.12 167.326 23.16C167.219 23.1867 167.126 23.2467 167.046 23.34C166.979 23.42 166.932 23.5267 166.906 23.66C166.892 23.7933 166.879 23.9333 166.866 24.08C166.852 24.2267 166.846 24.3733 166.846 24.52C166.859 24.6533 166.866 24.7667 166.866 24.86V25.36C167.172 25.3867 167.452 25.4067 167.706 25.42C167.972 25.4333 168.199 25.4733 168.386 25.54ZM173.271 26.42C173.271 26.7933 173.271 27.2133 173.271 27.68C173.285 28.1467 173.291 28.6333 173.291 29.14C173.291 29.6333 173.291 30.1267 173.291 30.62C173.291 31.1 173.285 31.5467 173.271 31.96C173.258 32.16 173.238 32.38 173.211 32.62C173.185 32.8467 173.131 33.06 173.051 33.26C172.971 33.46 172.845 33.6267 172.671 33.76C172.511 33.88 172.291 33.9333 172.011 33.92C171.598 33.8933 171.298 33.7133 171.111 33.38C170.938 33.0467 170.838 32.58 170.811 31.98C170.811 31.6733 170.805 31.32 170.791 30.92C170.791 30.52 170.785 30.1133 170.771 29.7C170.771 29.2867 170.771 28.8867 170.771 28.5C170.771 28.1 170.771 27.74 170.771 27.42C170.771 27.2333 170.765 27.0067 170.751 26.74C170.751 26.4733 170.758 26.2 170.771 25.92C170.785 25.64 170.818 25.3733 170.871 25.12C170.925 24.8533 171.011 24.6333 171.131 24.46C171.225 24.3533 171.358 24.2733 171.531 24.22C171.705 24.1533 171.885 24.12 172.071 24.12C172.271 24.12 172.458 24.1533 172.631 24.22C172.818 24.2867 172.951 24.38 173.031 24.5C173.085 24.58 173.125 24.6933 173.151 24.84C173.178 24.9867 173.198 25.1533 173.211 25.34C173.238 25.5133 173.251 25.7 173.251 25.9C173.265 26.0867 173.271 26.26 173.271 26.42ZM172.511 22.38C172.098 22.4867 171.751 22.4467 171.471 22.26C171.205 22.06 171.038 21.7667 170.971 21.38C170.918 21.1 170.938 20.8533 171.031 20.64C171.125 20.4267 171.265 20.2667 171.451 20.16C171.638 20.04 171.851 19.9867 172.091 20C172.331 20.0133 172.571 20.1067 172.811 20.28C173.038 20.44 173.198 20.6267 173.291 20.84C173.398 21.0533 173.431 21.26 173.391 21.46C173.365 21.66 173.278 21.8467 173.131 22.02C172.985 22.18 172.778 22.3 172.511 22.38ZM175.049 26.92C175.049 26.76 175.049 26.58 175.049 26.38C175.049 26.1667 175.055 25.9533 175.069 25.74C175.082 25.5133 175.102 25.3 175.129 25.1C175.169 24.8867 175.222 24.7 175.289 24.54C175.395 24.3 175.562 24.14 175.789 24.06C176.015 23.9667 176.262 23.9267 176.529 23.94C176.809 23.94 177.029 23.9867 177.189 24.08C177.349 24.1733 177.469 24.3 177.549 24.46C177.629 24.6067 177.675 24.78 177.689 24.98C177.715 25.1667 177.729 25.3667 177.729 25.58C177.849 25.3667 178.009 25.1933 178.209 25.06C178.422 24.9267 178.635 24.82 178.849 24.74C179.062 24.66 179.255 24.6067 179.429 24.58C179.602 24.54 179.702 24.52 179.729 24.52C180.062 24.4933 180.362 24.4867 180.629 24.5C180.909 24.5133 181.215 24.5733 181.549 24.68C181.762 24.76 181.982 24.8733 182.209 25.02C182.435 25.1533 182.635 25.3133 182.809 25.5C182.982 25.6867 183.095 25.8933 183.149 26.12C183.215 26.3333 183.189 26.56 183.069 26.8C182.882 27.1333 182.675 27.3 182.449 27.3C182.222 27.2867 181.975 27.2467 181.709 27.18C181.562 27.1533 181.389 27.0933 181.189 27C180.989 26.9067 180.815 26.8467 180.669 26.82C180.215 26.7533 179.815 26.7867 179.469 26.92C179.122 27.0533 178.822 27.2133 178.569 27.4C178.275 27.6267 178.022 27.8867 177.809 28.18V31.06C177.809 31.42 177.802 31.7933 177.789 32.18C177.789 32.5667 177.735 32.92 177.629 33.24C177.535 33.5467 177.369 33.8 177.129 34C176.902 34.1867 176.569 34.2667 176.129 34.24C175.889 34.2267 175.675 34.1133 175.489 33.9C175.302 33.6733 175.189 33.4533 175.149 33.24C175.122 33.04 175.102 32.8 175.089 32.52C175.075 32.24 175.062 31.9467 175.049 31.64C175.049 31.3333 175.049 31.0267 175.049 30.72C175.049 30.4 175.049 30.1067 175.049 29.84V26.92ZM188.715 30.48C188.461 30.32 188.175 30.1933 187.855 30.1C187.548 30.0067 187.228 29.92 186.895 29.84C186.575 29.76 186.261 29.6733 185.955 29.58C185.648 29.4733 185.368 29.3267 185.115 29.14C184.568 28.7267 184.248 28.22 184.155 27.62C184.075 27.0067 184.208 26.3933 184.555 25.78C184.741 25.46 184.988 25.2 185.295 25C185.601 24.7867 185.935 24.6267 186.295 24.52C186.668 24.4 187.048 24.3333 187.435 24.32C187.821 24.3067 188.188 24.3267 188.535 24.38C188.761 24.42 189.001 24.48 189.255 24.56C189.508 24.6267 189.741 24.72 189.955 24.84C190.181 24.96 190.381 25.1133 190.555 25.3C190.741 25.4733 190.875 25.6933 190.955 25.96C191.008 26.1333 191.015 26.3 190.975 26.46C190.948 26.62 190.881 26.7533 190.775 26.86C190.681 26.9667 190.555 27.0467 190.395 27.1C190.248 27.1533 190.088 27.1667 189.915 27.14C189.715 27.1 189.528 27.04 189.355 26.96C189.181 26.88 189.008 26.7933 188.835 26.7C188.661 26.6067 188.481 26.5267 188.295 26.46C188.121 26.3933 187.935 26.36 187.735 26.36C187.428 26.3467 187.175 26.4 186.975 26.52C186.775 26.64 186.635 26.7867 186.555 26.96C186.488 27.1333 186.495 27.32 186.575 27.52C186.668 27.72 186.855 27.8933 187.135 28.04C187.388 28.1733 187.668 28.28 187.975 28.36C188.281 28.44 188.581 28.52 188.875 28.6C189.181 28.68 189.475 28.7733 189.755 28.88C190.048 28.9867 190.308 29.1333 190.535 29.32C190.975 29.68 191.241 30.1 191.335 30.58C191.441 31.06 191.415 31.5333 191.255 32C191.095 32.4667 190.815 32.88 190.415 33.24C190.028 33.6 189.568 33.84 189.035 33.96C188.648 34.04 188.228 34.08 187.775 34.08C187.335 34.08 186.895 34.0333 186.455 33.94C186.028 33.8467 185.615 33.7 185.215 33.5C184.828 33.3 184.501 33.0467 184.235 32.74C184.048 32.5267 183.948 32.2867 183.935 32.02C183.935 31.74 183.988 31.5 184.095 31.3C184.215 31.0867 184.381 30.94 184.595 30.86C184.808 30.78 185.048 30.8267 185.315 31C185.528 31.1467 185.781 31.2933 186.075 31.44C186.368 31.5733 186.661 31.68 186.955 31.76C187.248 31.84 187.528 31.88 187.795 31.88C188.075 31.88 188.315 31.82 188.515 31.7C188.808 31.5133 188.961 31.3 188.975 31.06C188.988 30.8067 188.901 30.6133 188.715 30.48ZM200.697 25.18C200.804 25.4333 200.811 25.7133 200.717 26.02C200.637 26.3267 200.484 26.5267 200.257 26.62C200.137 26.6733 199.977 26.72 199.777 26.76C199.577 26.7867 199.357 26.8133 199.117 26.84C198.891 26.8667 198.664 26.8867 198.437 26.9C198.211 26.9133 198.017 26.92 197.857 26.92C197.871 27.32 197.884 27.7333 197.897 28.16C197.911 28.5733 197.924 28.98 197.937 29.38C197.951 29.78 197.957 30.1667 197.957 30.54C197.957 30.9 197.951 31.2267 197.937 31.52C197.937 31.72 197.937 31.9533 197.937 32.22C197.937 32.4733 197.917 32.72 197.877 32.96C197.851 33.2 197.804 33.4133 197.737 33.6C197.671 33.7733 197.571 33.8867 197.437 33.94C197.024 34.1133 196.644 34.16 196.297 34.08C195.964 34.0133 195.724 33.8733 195.577 33.66C195.471 33.4867 195.391 33.2867 195.337 33.06C195.284 32.82 195.244 32.58 195.217 32.34C195.204 32.0867 195.197 31.8467 195.197 31.62C195.211 31.38 195.217 31.1733 195.217 31C195.231 30.44 195.237 29.8067 195.237 29.1C195.251 28.38 195.257 27.66 195.257 26.94H194.957C194.797 26.94 194.591 26.94 194.337 26.94C194.097 26.9267 193.851 26.9067 193.597 26.88C193.357 26.84 193.131 26.7933 192.917 26.74C192.704 26.6733 192.551 26.58 192.457 26.46C192.311 26.2867 192.217 26.1 192.177 25.9C192.151 25.7 192.164 25.5133 192.217 25.34C192.284 25.1533 192.384 24.9933 192.517 24.86C192.651 24.7133 192.804 24.62 192.977 24.58C193.217 24.5133 193.557 24.48 193.997 24.48C194.437 24.4667 194.851 24.4667 195.237 24.48C195.224 24.3467 195.217 24.22 195.217 24.1C195.217 23.9667 195.211 23.84 195.197 23.72C195.184 23.56 195.177 23.36 195.177 23.12C195.177 22.8667 195.191 22.62 195.217 22.38C195.257 22.1267 195.317 21.8933 195.397 21.68C195.477 21.4533 195.591 21.28 195.737 21.16C195.937 21 196.137 20.9133 196.337 20.9C196.551 20.8733 196.744 20.9 196.917 20.98C197.104 21.06 197.257 21.18 197.377 21.34C197.511 21.4867 197.604 21.6533 197.657 21.84C197.697 22 197.731 22.1933 197.757 22.42C197.784 22.6333 197.797 22.86 197.797 23.1C197.811 23.34 197.817 23.58 197.817 23.82C197.817 24.06 197.817 24.28 197.817 24.48H198.017C198.217 24.48 198.451 24.4733 198.717 24.46C198.984 24.4467 199.244 24.4533 199.497 24.48C199.764 24.5067 200.004 24.5733 200.217 24.68C200.431 24.7733 200.591 24.94 200.697 25.18Z" fill="black" fill-opacity="0.67"/>
</svg>
