<svg width="360" height="800" viewBox="0 0 360 800" fill="none" xmlns="http://www.w3.org/2000/svg">
<g clip-path="url(#clip0_7_343)">
<rect width="360" height="800" fill="#F5F5EF"/>
<rect x="179" y="468" width="153" height="3" rx="1.5" transform="rotate(-90 179 468)" fill="#D9D9D9"/>
<circle cx="259" cy="391" r="60" fill="white"/>
<circle cx="258.5" cy="391.5" r="28.5" fill="#F4DF70"/>
<path d="M283 383C283 384.495 282.752 385.979 282.267 387.387L280.09 386.575C280.485 385.428 280.687 384.219 280.687 383H283Z" fill="white"/>
<path d="M278.982 380.298C279.096 382.498 278.671 384.693 277.746 386.675L275.665 385.625C276.419 384.01 276.766 382.221 276.673 380.428L278.982 380.298Z" fill="white"/>
<circle cx="104" cy="391" r="60" fill="white"/>
<rect x="74" y="370.987" width="14.2221" height="72.5019" rx="5" transform="rotate(-42 74 370.987)" fill="#66D77F"/>
<rect x="122.513" y="361.738" width="14.2221" height="72.5019" rx="5" transform="rotate(42 122.513 361.738)" fill="#66D77F"/>
<path d="M127.612 370.224C127.612 371.86 127.34 373.483 126.81 375.023L124.428 374.135C124.86 372.88 125.082 371.557 125.082 370.224H127.612Z" fill="white"/>
<rect x="152" y="550" width="57" height="48" rx="18" fill="#ECCA73"/>
<path d="M179.233 576.05C179.233 576.55 179.208 577.058 179.158 577.575C179.108 578.075 179.008 578.567 178.858 579.05C178.708 579.517 178.483 579.967 178.183 580.4C177.883 580.817 177.475 581.183 176.958 581.5C176.708 581.667 176.408 581.808 176.058 581.925C175.725 582.025 175.367 582.108 174.983 582.175C174.617 582.258 174.25 582.308 173.883 582.325C173.517 582.358 173.175 582.367 172.858 582.35C171.358 582.3 170.142 581.942 169.208 581.275C168.292 580.592 167.583 579.75 167.083 578.75C166.6 577.75 166.283 576.667 166.133 575.5C166 574.317 165.975 573.192 166.058 572.125C166.108 571.492 166.217 570.808 166.383 570.075C166.567 569.342 166.825 568.633 167.158 567.95C167.508 567.267 167.933 566.65 168.433 566.1C168.95 565.55 169.558 565.133 170.258 564.85C170.908 564.583 171.617 564.417 172.383 564.35C173.167 564.267 173.933 564.292 174.683 564.425C175.45 564.558 176.158 564.8 176.808 565.15C177.475 565.5 178 565.967 178.383 566.55C178.65 566.983 178.858 567.508 179.008 568.125C179.158 568.742 179.183 569.333 179.083 569.9C179 570.4 178.825 570.75 178.558 570.95C178.292 571.133 178 571.208 177.683 571.175C177.367 571.125 177.058 570.992 176.758 570.775C176.475 570.542 176.283 570.25 176.183 569.9C176.067 569.517 175.925 569.167 175.758 568.85C175.592 568.517 175.333 568.242 174.983 568.025C174.583 567.775 174.158 567.633 173.708 567.6C173.275 567.567 172.85 567.617 172.433 567.75C172.033 567.883 171.65 568.092 171.283 568.375C170.933 568.658 170.642 568.983 170.408 569.35C170.125 569.767 169.908 570.225 169.758 570.725C169.608 571.208 169.5 571.717 169.433 572.25C169.367 572.767 169.342 573.292 169.358 573.825C169.392 574.342 169.458 574.842 169.558 575.325C169.742 576.142 170.025 576.908 170.408 577.625C170.558 577.892 170.758 578.133 171.008 578.35C171.275 578.55 171.567 578.717 171.883 578.85C172.2 578.967 172.533 579.042 172.883 579.075C173.233 579.108 173.567 579.083 173.883 579C174.333 578.883 174.7 578.733 174.983 578.55C175.267 578.35 175.492 578.117 175.658 577.85C175.825 577.583 175.933 577.292 175.983 576.975C176.05 576.658 176.083 576.325 176.083 575.975V575.95C175.867 575.95 175.675 575.95 175.508 575.95C175.342 575.933 175.217 575.925 175.133 575.925C174.767 575.925 174.408 575.858 174.058 575.725C173.758 575.625 173.533 575.467 173.383 575.25C173.217 575.067 173.133 574.842 173.133 574.575C173.133 574.475 173.133 574.383 173.133 574.3C173.15 574.2 173.167 574.1 173.183 574C173.233 573.867 173.342 573.7 173.508 573.5C173.608 573.417 173.767 573.35 173.983 573.3C174.083 573.267 174.183 573.242 174.283 573.225C174.383 573.192 174.5 573.167 174.633 573.15C174.733 573.133 174.842 573.125 174.958 573.125C175.075 573.125 175.192 573.125 175.308 573.125H177.583C177.767 573.108 177.975 573.133 178.208 573.2C178.458 573.25 178.65 573.333 178.783 573.45C178.833 573.517 178.883 573.583 178.933 573.65C178.983 573.717 179.025 573.792 179.058 573.875C179.125 574.058 179.167 574.242 179.183 574.425C179.2 574.525 179.208 574.633 179.208 574.75C179.225 574.85 179.233 574.942 179.233 575.025V576.05ZM185.668 564.9C186.784 564.483 187.793 564.3 188.693 564.35C189.609 564.4 190.426 564.633 191.143 565.05C191.859 565.45 192.468 565.992 192.968 566.675C193.484 567.358 193.901 568.125 194.218 568.975C194.468 569.608 194.659 570.275 194.793 570.975C194.926 571.675 195.001 572.375 195.018 573.075C195.051 573.758 195.026 574.433 194.943 575.1C194.876 575.767 194.759 576.383 194.593 576.95C194.493 577.333 194.376 577.683 194.243 578C194.109 578.317 193.951 578.633 193.768 578.95C193.351 579.667 192.809 580.25 192.143 580.7C191.493 581.15 190.776 581.467 189.993 581.65C189.459 581.783 188.909 581.85 188.343 581.85C187.776 581.833 187.218 581.758 186.668 581.625C186.118 581.475 185.584 581.267 185.068 581C184.568 580.717 184.109 580.367 183.693 579.95C183.176 579.45 182.751 578.875 182.418 578.225C182.084 577.558 181.826 576.867 181.643 576.15C181.459 575.417 181.343 574.683 181.293 573.95C181.243 573.217 181.243 572.517 181.293 571.85C181.343 571.233 181.459 570.575 181.643 569.875C181.843 569.175 182.126 568.5 182.493 567.85C182.859 567.2 183.301 566.617 183.818 566.1C184.351 565.567 184.968 565.167 185.668 564.9ZM191.518 575.6C191.718 574.817 191.801 573.933 191.768 572.95C191.734 571.967 191.576 571.042 191.293 570.175C191.109 569.642 190.876 569.175 190.593 568.775C190.326 568.358 190.001 568.042 189.618 567.825C189.251 567.608 188.818 567.5 188.318 567.5C187.818 567.5 187.259 567.65 186.643 567.95C186.276 568.133 185.959 568.383 185.693 568.7C185.443 569.017 185.234 569.375 185.068 569.775C184.918 570.175 184.793 570.592 184.693 571.025C184.609 571.458 184.559 571.875 184.543 572.275C184.509 572.708 184.501 573.167 184.518 573.65C184.534 574.117 184.584 574.592 184.668 575.075C184.768 575.542 184.901 575.992 185.068 576.425C185.234 576.842 185.459 577.217 185.743 577.55C186.176 578.05 186.676 578.4 187.243 578.6C187.826 578.783 188.401 578.808 188.968 578.675C189.884 578.475 190.584 577.867 191.068 576.85C191.268 576.483 191.418 576.067 191.518 575.6Z" fill="white"/>
<rect width="362" height="24" transform="matrix(1 0 0 -1 0 24)" fill="#D9D9D9"/>
<path d="M27.4188 8.62784C27.7171 8.63021 28.0154 8.68703 28.3137 8.7983C28.6119 8.90956 28.8842 9.09422 29.1304 9.35227C29.3766 9.60795 29.5743 9.95715 29.7235 10.3999C29.8726 10.8426 29.9472 11.3977 29.9472 12.0653C29.9472 12.7116 29.8856 13.2857 29.7625 13.7876C29.6418 14.2872 29.4666 14.7086 29.2369 15.0518C29.0097 15.3951 28.7327 15.6555 28.406 15.8331C28.0816 16.0107 27.7147 16.0994 27.3051 16.0994C26.8979 16.0994 26.5345 16.0189 26.2149 15.858C25.8977 15.6946 25.6373 15.4685 25.4337 15.1797C25.2325 14.8885 25.1034 14.5511 25.0466 14.1676H25.9131C25.9912 14.5014 26.1463 14.7772 26.3783 14.995C26.6127 15.2105 26.9216 15.3182 27.3051 15.3182C27.8662 15.3182 28.3089 15.0732 28.6333 14.5831C28.96 14.093 29.1233 13.4006 29.1233 12.5057H29.0665C28.9339 12.7045 28.7765 12.8762 28.5942 13.0206C28.4119 13.165 28.2095 13.2763 27.9869 13.3544C27.7644 13.4325 27.5277 13.4716 27.2767 13.4716C26.8601 13.4716 26.4777 13.3686 26.1297 13.1626C25.7841 12.9543 25.5071 12.669 25.2987 12.3068C25.0928 11.9422 24.9898 11.5256 24.9898 11.0568C24.9898 10.6117 25.0892 10.2045 25.2881 9.83523C25.4893 9.46354 25.771 9.16761 26.1333 8.94744C26.4978 8.72727 26.9263 8.62074 27.4188 8.62784ZM27.4188 9.40909C27.1205 9.40909 26.8518 9.48366 26.6127 9.63281C26.3759 9.77959 26.1877 9.97846 26.048 10.2294C25.9107 10.478 25.8421 10.7538 25.8421 11.0568C25.8421 11.3598 25.9084 11.6357 26.0409 11.8842C26.1759 12.1304 26.3593 12.3269 26.5914 12.4737C26.8257 12.6181 27.0921 12.6903 27.3904 12.6903C27.6153 12.6903 27.8248 12.6465 28.0189 12.5589C28.213 12.469 28.3823 12.3471 28.5267 12.1932C28.6735 12.0369 28.7883 11.8606 28.8712 11.6641C28.954 11.4652 28.9955 11.258 28.9955 11.0426C28.9955 10.7585 28.9268 10.4922 28.7895 10.2436C28.6546 9.99503 28.4675 9.7938 28.2284 9.63991C27.9917 9.48603 27.7218 9.40909 27.4188 9.40909ZM31.9687 15.0696C31.7935 15.0696 31.6431 15.0069 31.5177 14.8814C31.3922 14.7559 31.3295 14.6056 31.3295 14.4304C31.3295 14.2552 31.3922 14.1049 31.5177 13.9794C31.6431 13.8539 31.7935 13.7912 31.9687 13.7912C32.1439 13.7912 32.2942 13.8539 32.4197 13.9794C32.5451 14.1049 32.6079 14.2552 32.6079 14.4304C32.6079 14.5464 32.5783 14.6529 32.5191 14.75C32.4623 14.8471 32.3853 14.9252 32.2883 14.9844C32.1936 15.0412 32.087 15.0696 31.9687 15.0696ZM31.9687 11.3906C31.7935 11.3906 31.6431 11.3279 31.5177 11.2024C31.3922 11.0769 31.3295 10.9266 31.3295 10.7514C31.3295 10.5762 31.3922 10.4259 31.5177 10.3004C31.6431 10.175 31.7935 10.1122 31.9687 10.1122C32.1439 10.1122 32.2942 10.175 32.4197 10.3004C32.5451 10.4259 32.6079 10.5762 32.6079 10.7514C32.6079 10.8674 32.5783 10.974 32.5191 11.071C32.4623 11.1681 32.3853 11.2462 32.2883 11.3054C32.1936 11.3622 32.087 11.3906 31.9687 11.3906ZM34.0976 16V15.3608L36.4981 12.733C36.7799 12.4252 37.0119 12.1577 37.1942 11.9304C37.3765 11.7008 37.5114 11.4853 37.599 11.2841C37.689 11.0805 37.7339 10.8674 37.7339 10.6449C37.7339 10.3892 37.6724 10.1679 37.5493 9.98082C37.4285 9.7938 37.2628 9.64938 37.0521 9.54759C36.8414 9.44579 36.6047 9.39489 36.3419 9.39489C36.0625 9.39489 35.8187 9.45289 35.6104 9.56889C35.4044 9.68253 35.2446 9.84233 35.1309 10.0483C35.0197 10.2543 34.964 10.4957 34.964 10.7727H34.126C34.126 10.3466 34.2242 9.97254 34.4207 9.65057C34.6172 9.3286 34.8847 9.07765 35.2233 8.89773C35.5642 8.7178 35.9465 8.62784 36.3703 8.62784C36.7964 8.62784 37.174 8.7178 37.5031 8.89773C37.8322 9.07765 38.0902 9.32031 38.2773 9.62571C38.4643 9.93111 38.5578 10.2708 38.5578 10.6449C38.5578 10.9124 38.5093 11.174 38.4122 11.4297C38.3175 11.683 38.1518 11.9659 37.915 12.2784C37.6807 12.5885 37.3551 12.9673 36.9385 13.4148L35.305 15.1619V15.2188H38.6856V16H34.0976ZM42.5244 16.0994C41.9894 16.0994 41.5336 15.9538 41.1572 15.6626C40.7808 15.3691 40.4932 14.9441 40.2943 14.3878C40.0954 13.8291 39.996 13.1544 39.996 12.3636C39.996 11.5777 40.0954 10.9065 40.2943 10.3501C40.4955 9.79143 40.7844 9.36529 41.1608 9.07173C41.5396 8.7758 41.9941 8.62784 42.5244 8.62784C43.0547 8.62784 43.5081 8.7758 43.8845 9.07173C44.2633 9.36529 44.5521 9.79143 44.751 10.3501C44.9522 10.9065 45.0528 11.5777 45.0528 12.3636C45.0528 13.1544 44.9534 13.8291 44.7545 14.3878C44.5557 14.9441 44.268 15.3691 43.8916 15.6626C43.5152 15.9538 43.0595 16.0994 42.5244 16.0994ZM42.5244 15.3182C43.0547 15.3182 43.4666 15.0625 43.7602 14.5511C44.0538 14.0398 44.2006 13.3106 44.2006 12.3636C44.2006 11.7339 44.1331 11.1977 43.9981 10.755C43.8656 10.3123 43.6738 9.97491 43.4229 9.7429C43.1743 9.51089 42.8748 9.39489 42.5244 9.39489C41.9988 9.39489 41.5881 9.65412 41.2922 10.1726C40.9962 10.6887 40.8483 11.419 40.8483 12.3636C40.8483 12.9934 40.9146 13.5284 41.0471 13.9688C41.1797 14.4091 41.3703 14.7441 41.6189 14.9737C41.8698 15.2034 42.1717 15.3182 42.5244 15.3182Z" fill="black"/>
<rect x="333" y="12.5454" width="8" height="5.45455" rx="1" fill="#4ECE39"/>
<path d="M333 12.5454H341" stroke="#4ECE39"/>
<path d="M334 7.44H335.105V7C335.105 6.44772 335.553 6 336.105 6H338.316C338.868 6 339.316 6.44772 339.316 7V7.44H340C340.552 7.44 341 7.88772 341 8.44V17C341 17.5523 340.552 18 340 18H334C333.448 18 333 17.5523 333 17V8.44C333 7.88772 333.448 7.44 334 7.44Z" stroke="black" stroke-opacity="0.67" stroke-width="0.5"/>
<rect x="62" y="179" width="237" height="54" rx="27" fill="white"/>
<path d="M109.868 200.1C110.375 200.567 110.748 201.127 110.988 201.78C111.228 202.42 111.322 203.06 111.268 203.7C111.215 204.313 111.022 204.88 110.688 205.4C110.355 205.907 109.848 206.293 109.168 206.56C108.635 206.787 108.108 206.947 107.588 207.04C107.068 207.133 106.495 207.207 105.868 207.26C105.588 207.287 105.348 207.307 105.148 207.32C104.962 207.32 104.742 207.327 104.488 207.34C104.435 207.34 104.342 207.34 104.208 207.34C104.088 207.34 104.002 207.347 103.948 207.36V211.5C103.908 211.753 103.855 212.013 103.788 212.28C103.735 212.547 103.582 212.753 103.328 212.9C103.182 212.98 103.002 213.027 102.788 213.04C102.575 213.053 102.382 213.047 102.208 213.02C102.022 212.993 101.862 212.947 101.728 212.88C101.608 212.8 101.508 212.667 101.428 212.48C101.375 212.36 101.322 212.227 101.268 212.08C101.228 211.92 101.208 211.727 101.208 211.5V200.44C101.208 200.347 101.215 200.26 101.228 200.18C101.242 200.1 101.255 200.02 101.268 199.94C101.295 199.873 101.315 199.8 101.328 199.72C101.342 199.64 101.362 199.567 101.388 199.5C101.415 199.433 101.442 199.373 101.468 199.32C101.508 199.267 101.555 199.22 101.608 199.18C101.675 199.113 101.775 199.053 101.908 199C102.055 198.947 102.268 198.92 102.548 198.92H102.588C103.002 198.893 103.462 198.873 103.968 198.86C104.475 198.833 104.895 198.84 105.228 198.88C105.415 198.907 105.588 198.927 105.748 198.94C105.908 198.94 106.062 198.947 106.208 198.96C106.368 198.973 106.528 198.987 106.688 199C106.848 199.013 107.008 199.033 107.168 199.06C107.302 199.087 107.422 199.107 107.528 199.12C107.648 199.133 107.768 199.153 107.888 199.18C107.995 199.207 108.108 199.233 108.228 199.26C108.362 199.287 108.482 199.333 108.588 199.4C108.868 199.48 109.102 199.58 109.288 199.7C109.475 199.82 109.668 199.953 109.868 200.1ZM108.668 203.4C108.682 203.08 108.615 202.8 108.468 202.56C108.335 202.32 108.142 202.12 107.888 201.96C107.635 201.8 107.348 201.673 107.028 201.58C106.708 201.487 106.388 201.42 106.068 201.38C105.988 201.38 105.875 201.38 105.728 201.38C105.595 201.367 105.448 201.36 105.288 201.36C105.128 201.347 104.975 201.34 104.828 201.34C104.695 201.327 104.588 201.32 104.508 201.32C104.442 201.307 104.362 201.3 104.268 201.3C104.175 201.3 104.068 201.3 103.948 201.3C103.962 201.713 103.968 202.113 103.968 202.5C103.968 202.873 103.968 203.28 103.968 203.72C103.955 203.96 103.948 204.2 103.948 204.44C103.948 204.68 103.948 204.913 103.948 205.14L105.188 205.12C105.508 205.12 105.862 205.1 106.248 205.06C106.635 205.02 107.002 204.94 107.348 204.82C107.695 204.7 107.988 204.527 108.228 204.3C108.482 204.073 108.628 203.773 108.668 203.4ZM115.427 205.42C115.427 205.793 115.427 206.213 115.427 206.68C115.441 207.147 115.447 207.633 115.447 208.14C115.447 208.633 115.447 209.127 115.447 209.62C115.447 210.1 115.441 210.547 115.427 210.96C115.414 211.16 115.394 211.38 115.367 211.62C115.341 211.847 115.287 212.06 115.207 212.26C115.127 212.46 115.001 212.627 114.827 212.76C114.667 212.88 114.447 212.933 114.167 212.92C113.754 212.893 113.454 212.713 113.267 212.38C113.094 212.047 112.994 211.58 112.967 210.98C112.967 210.673 112.961 210.32 112.947 209.92C112.947 209.52 112.941 209.113 112.927 208.7C112.927 208.287 112.927 207.887 112.927 207.5C112.927 207.1 112.927 206.74 112.927 206.42C112.927 206.233 112.921 206.007 112.907 205.74C112.907 205.473 112.914 205.2 112.927 204.92C112.941 204.64 112.974 204.373 113.027 204.12C113.081 203.853 113.167 203.633 113.287 203.46C113.381 203.353 113.514 203.273 113.687 203.22C113.861 203.153 114.041 203.12 114.227 203.12C114.427 203.12 114.614 203.153 114.787 203.22C114.974 203.287 115.107 203.38 115.187 203.5C115.241 203.58 115.281 203.693 115.307 203.84C115.334 203.987 115.354 204.153 115.367 204.34C115.394 204.513 115.407 204.7 115.407 204.9C115.421 205.087 115.427 205.26 115.427 205.42ZM114.667 201.38C114.254 201.487 113.907 201.447 113.627 201.26C113.361 201.06 113.194 200.767 113.127 200.38C113.074 200.1 113.094 199.853 113.187 199.64C113.281 199.427 113.421 199.267 113.607 199.16C113.794 199.04 114.007 198.987 114.247 199C114.487 199.013 114.727 199.107 114.967 199.28C115.194 199.44 115.354 199.627 115.447 199.84C115.554 200.053 115.587 200.26 115.547 200.46C115.521 200.66 115.434 200.847 115.287 201.02C115.141 201.18 114.934 201.3 114.667 201.38ZM124.625 205.3C124.731 205.487 124.785 205.687 124.785 205.9C124.798 206.113 124.751 206.313 124.645 206.5C124.525 206.74 124.351 206.907 124.125 207C123.911 207.08 123.671 207.087 123.405 207.02C123.285 206.993 123.178 206.947 123.085 206.88C122.991 206.813 122.891 206.747 122.785 206.68C122.691 206.6 122.578 206.527 122.445 206.46C122.325 206.393 122.165 206.347 121.965 206.32C121.765 206.293 121.545 206.293 121.305 206.32C121.078 206.347 120.871 206.4 120.685 206.48C120.391 206.627 120.158 206.853 119.985 207.16C119.811 207.453 119.698 207.773 119.645 208.12C119.591 208.453 119.598 208.793 119.665 209.14C119.745 209.487 119.891 209.78 120.105 210.02C120.265 210.207 120.471 210.36 120.725 210.48C120.991 210.6 121.245 210.673 121.485 210.7C121.711 210.727 121.938 210.727 122.165 210.7C122.391 210.66 122.611 210.607 122.825 210.54C122.985 210.473 123.165 210.387 123.365 210.28C123.565 210.16 123.758 210.087 123.945 210.06C124.185 210.06 124.371 210.127 124.505 210.26C124.638 210.38 124.731 210.533 124.785 210.72C124.838 210.893 124.845 211.08 124.805 211.28C124.778 211.48 124.705 211.653 124.585 211.8C124.425 212 124.198 212.193 123.905 212.38C123.611 212.553 123.331 212.68 123.065 212.76C122.745 212.867 122.385 212.927 121.985 212.94C121.598 212.953 121.231 212.94 120.885 212.9C120.725 212.873 120.558 212.84 120.385 212.8C120.211 212.76 120.045 212.713 119.885 212.66C119.298 212.447 118.805 212.147 118.405 211.76C118.018 211.36 117.718 210.913 117.505 210.42C117.305 209.927 117.191 209.4 117.165 208.84C117.138 208.28 117.205 207.727 117.365 207.18C117.511 206.66 117.691 206.22 117.905 205.86C118.131 205.5 118.391 205.207 118.685 204.98C118.991 204.74 119.331 204.553 119.705 204.42C120.078 204.273 120.491 204.147 120.945 204.04C121.411 203.947 121.905 203.947 122.425 204.04C122.945 204.133 123.411 204.307 123.825 204.56C124.145 204.733 124.411 204.98 124.625 205.3ZM130.403 208.4C130.696 208.707 130.91 208.933 131.043 209.08C131.19 209.213 131.29 209.313 131.343 209.38C131.41 209.447 131.456 209.487 131.483 209.5C131.51 209.513 131.556 209.553 131.623 209.62C131.69 209.687 131.796 209.793 131.943 209.94C132.09 210.073 132.31 210.293 132.603 210.6C132.843 210.84 133.036 211.12 133.183 211.44C133.343 211.747 133.33 212.08 133.143 212.44C133.036 212.627 132.916 212.76 132.783 212.84C132.65 212.907 132.503 212.933 132.343 212.92C132.196 212.907 132.036 212.86 131.863 212.78C131.703 212.7 131.543 212.6 131.383 212.48C131.076 212.253 130.783 211.993 130.503 211.7C130.223 211.393 129.996 211.16 129.823 211C129.703 210.88 129.63 210.8 129.603 210.76C129.576 210.733 129.55 210.713 129.523 210.7C129.496 210.673 129.47 210.647 129.443 210.62C129.35 210.527 129.25 210.433 129.143 210.34C129.036 210.247 128.93 210.147 128.823 210.04V210.82C128.823 210.967 128.83 211.073 128.843 211.14C128.843 211.273 128.836 211.373 128.823 211.44C128.783 211.587 128.763 211.727 128.763 211.86C128.75 211.927 128.736 211.993 128.723 212.06C128.71 212.113 128.69 212.173 128.663 212.24C128.65 212.267 128.636 212.287 128.623 212.3C128.623 212.313 128.623 212.333 128.623 212.36C128.61 212.387 128.596 212.407 128.583 212.42C128.583 212.433 128.576 212.453 128.563 212.48C128.496 212.613 128.39 212.74 128.243 212.86C127.99 213.007 127.676 213.047 127.303 212.98C127.103 212.94 126.95 212.867 126.843 212.76C126.723 212.68 126.643 212.567 126.603 212.42C126.576 212.353 126.55 212.287 126.523 212.22C126.51 212.14 126.49 212.067 126.463 212C126.436 211.933 126.423 211.873 126.423 211.82C126.423 211.753 126.423 211.7 126.423 211.66V200.28C126.423 200.2 126.423 200.12 126.423 200.04C126.423 199.96 126.43 199.88 126.443 199.8C126.456 199.72 126.47 199.647 126.483 199.58C126.51 199.5 126.536 199.427 126.563 199.36C126.616 199.227 126.683 199.12 126.763 199.04C126.83 198.973 126.896 198.927 126.963 198.9C127.043 198.86 127.116 198.827 127.183 198.8C127.25 198.787 127.323 198.78 127.403 198.78C127.496 198.767 127.583 198.76 127.663 198.76C127.85 198.76 128.036 198.813 128.223 198.92C128.396 199.04 128.523 199.193 128.603 199.38C128.71 199.633 128.763 199.88 128.763 200.12C128.776 200.253 128.79 200.46 128.803 200.74C128.816 201.007 128.823 201.207 128.823 201.34V201.42C128.836 201.86 128.843 202.28 128.843 202.68C128.843 203.08 128.843 203.513 128.843 203.98C128.83 204.447 128.823 204.893 128.823 205.32C128.823 205.733 128.823 206.147 128.823 206.56V206.78C128.93 206.673 129.036 206.573 129.143 206.48C129.25 206.387 129.35 206.287 129.443 206.18C129.496 206.14 129.55 206.093 129.603 206.04L129.823 205.82C129.996 205.647 130.223 205.413 130.503 205.12C130.783 204.813 131.076 204.547 131.383 204.32C131.716 204.08 132.036 203.933 132.343 203.88C132.663 203.827 132.93 203.987 133.143 204.36C133.33 204.72 133.343 205.06 133.183 205.38C133.036 205.687 132.843 205.973 132.603 206.24C132.31 206.547 132.09 206.773 131.943 206.92C131.796 207.053 131.69 207.153 131.623 207.22C131.556 207.273 131.51 207.307 131.483 207.32C131.456 207.333 131.41 207.373 131.343 207.44C131.29 207.493 131.19 207.593 131.043 207.74C130.91 207.873 130.696 208.093 130.403 208.4ZM151.755 204C151.875 204.173 151.915 204.447 151.875 204.82C151.848 205.18 151.782 205.573 151.675 206C151.568 206.413 151.442 206.827 151.295 207.24C151.148 207.64 151.028 207.973 150.935 208.24C150.708 208.853 150.508 209.427 150.335 209.96C150.162 210.493 149.955 211.08 149.715 211.72C149.635 211.907 149.555 212.093 149.475 212.28C149.408 212.467 149.322 212.633 149.215 212.78C149.122 212.927 149.002 213.047 148.855 213.14C148.722 213.233 148.555 213.28 148.355 213.28C148.128 213.28 147.928 213.2 147.755 213.04C147.595 212.88 147.455 212.68 147.335 212.44C147.228 212.2 147.135 211.947 147.055 211.68C146.975 211.413 146.908 211.18 146.855 210.98C146.682 210.393 146.528 209.86 146.395 209.38C146.262 208.887 146.142 208.447 146.035 208.06C145.915 208.447 145.795 208.867 145.675 209.32C145.555 209.773 145.402 210.287 145.215 210.86C145.162 211.06 145.095 211.307 145.015 211.6C144.935 211.88 144.835 212.147 144.715 212.4C144.608 212.653 144.468 212.867 144.295 213.04C144.135 213.227 143.942 213.307 143.715 213.28C143.395 213.267 143.115 213.14 142.875 212.9C142.648 212.647 142.448 212.347 142.275 212C142.115 211.653 141.975 211.293 141.855 210.92C141.735 210.547 141.635 210.22 141.555 209.94C141.448 209.58 141.322 209.18 141.175 208.74C141.028 208.3 140.882 207.853 140.735 207.4C140.602 206.933 140.475 206.473 140.355 206.02C140.235 205.553 140.155 205.127 140.115 204.74C140.088 204.487 140.135 204.253 140.255 204.04C140.388 203.827 140.555 203.68 140.755 203.6C140.968 203.507 141.195 203.487 141.435 203.54C141.688 203.593 141.915 203.753 142.115 204.02C142.222 204.153 142.315 204.32 142.395 204.52C142.488 204.72 142.568 204.94 142.635 205.18C142.702 205.407 142.768 205.64 142.835 205.88C142.902 206.12 142.968 206.353 143.035 206.58C143.182 207.087 143.302 207.487 143.395 207.78C143.502 208.06 143.608 208.353 143.715 208.66C143.808 208.353 143.902 208.06 143.995 207.78C144.102 207.487 144.228 207.087 144.375 206.58C144.428 206.42 144.488 206.24 144.555 206.04C144.635 205.827 144.715 205.627 144.795 205.44C144.888 205.253 144.988 205.08 145.095 204.92C145.215 204.747 145.342 204.62 145.475 204.54C145.768 204.34 146.035 204.293 146.275 204.4C146.515 204.493 146.722 204.66 146.895 204.9C147.068 205.14 147.215 205.42 147.335 205.74C147.468 206.047 147.575 206.327 147.655 206.58C147.735 206.847 147.808 207.08 147.875 207.28C147.942 207.467 148.002 207.64 148.055 207.8C148.108 207.96 148.155 208.113 148.195 208.26C148.248 208.407 148.302 208.56 148.355 208.72C148.408 208.56 148.455 208.407 148.495 208.26C148.548 208.113 148.602 207.96 148.655 207.8C148.708 207.64 148.768 207.467 148.835 207.28C148.902 207.08 148.975 206.847 149.055 206.58C149.108 206.407 149.162 206.207 149.215 205.98C149.282 205.753 149.348 205.527 149.415 205.3C149.482 205.06 149.548 204.833 149.615 204.62C149.695 204.407 149.782 204.227 149.875 204.08C149.968 203.933 150.095 203.813 150.255 203.72C150.415 203.613 150.582 203.553 150.755 203.54C150.928 203.513 151.102 203.533 151.275 203.6C151.462 203.667 151.622 203.8 151.755 204ZM161.313 209.06C161.326 209.327 161.333 209.607 161.333 209.9C161.333 210.18 161.326 210.44 161.313 210.68C161.3 211.04 161.28 211.373 161.253 211.68C161.226 211.973 161.173 212.227 161.093 212.44C161.013 212.64 160.886 212.793 160.713 212.9C160.553 212.993 160.326 213.02 160.033 212.98C159.726 212.94 159.506 212.793 159.373 212.54C159.24 212.287 159.146 212 159.093 211.68C159.053 211.347 159.04 211.013 159.053 210.68C159.066 210.347 159.066 210.087 159.053 209.9C159.04 209.607 159.026 209.273 159.013 208.9C159.013 208.513 158.973 208.153 158.893 207.82C158.826 207.473 158.706 207.18 158.533 206.94C158.36 206.7 158.1 206.573 157.753 206.56C157.313 206.533 156.973 206.567 156.733 206.66C156.506 206.753 156.34 206.893 156.233 207.08C156.126 207.253 156.06 207.467 156.033 207.72C156.02 207.973 155.993 208.247 155.953 208.54L155.933 209.32V210.78C155.933 211.02 155.926 211.273 155.913 211.54C155.913 211.793 155.873 212.027 155.793 212.24C155.713 212.453 155.586 212.633 155.413 212.78C155.253 212.927 155.013 213 154.693 213C154.293 213 153.993 212.873 153.793 212.62C153.606 212.353 153.513 212.027 153.513 211.64V200.14C153.513 200.06 153.513 199.987 153.513 199.92C153.526 199.84 153.54 199.76 153.553 199.68C153.58 199.6 153.6 199.527 153.613 199.46C153.626 199.38 153.646 199.307 153.673 199.24C153.713 199.107 153.78 199.007 153.873 198.94C153.94 198.873 154.006 198.82 154.073 198.78C154.14 198.74 154.213 198.713 154.293 198.7C154.36 198.687 154.433 198.68 154.513 198.68C154.593 198.667 154.673 198.66 154.753 198.66C154.953 198.66 155.146 198.72 155.333 198.84C155.413 198.893 155.486 198.953 155.553 199.02C155.62 199.073 155.673 199.153 155.713 199.26C155.82 199.513 155.873 199.753 155.873 199.98C155.886 200.047 155.893 200.147 155.893 200.28C155.906 200.4 155.913 200.527 155.913 200.66C155.913 200.793 155.913 200.927 155.913 201.06C155.926 201.18 155.933 201.273 155.933 201.34V201.44C155.946 201.867 155.953 202.3 155.953 202.74C155.953 203.18 155.953 203.627 155.953 204.08V204.42C156.513 204.233 157.1 204.147 157.713 204.16C158.326 204.16 158.873 204.28 159.353 204.52C159.846 204.773 160.22 205.06 160.473 205.38C160.74 205.7 160.933 206.053 161.053 206.44C161.173 206.827 161.24 207.24 161.253 207.68C161.28 208.12 161.3 208.58 161.313 209.06ZM165.507 203.96C165.947 203.747 166.407 203.593 166.887 203.5C167.367 203.407 167.84 203.387 168.307 203.44C168.787 203.493 169.247 203.62 169.687 203.82C170.14 204.02 170.554 204.3 170.927 204.66C171.234 204.967 171.5 205.34 171.727 205.78C171.954 206.207 172.12 206.627 172.227 207.04C172.454 207.773 172.487 208.513 172.327 209.26C172.167 210.007 171.894 210.7 171.507 211.34C171.32 211.633 171.087 211.9 170.807 212.14C170.54 212.367 170.254 212.553 169.947 212.7C169.547 212.887 169.114 213.013 168.647 213.08C168.18 213.16 167.727 213.18 167.287 213.14C166.487 213.1 165.78 212.9 165.167 212.54C164.567 212.18 164.08 211.72 163.707 211.16C163.347 210.6 163.107 209.967 162.987 209.26C162.88 208.54 162.927 207.807 163.127 207.06C163.34 206.26 163.647 205.613 164.047 205.12C164.46 204.613 164.947 204.227 165.507 203.96ZM166.107 206.64C165.907 206.827 165.754 207.06 165.647 207.34C165.54 207.62 165.474 207.913 165.447 208.22C165.42 208.513 165.44 208.813 165.507 209.12C165.587 209.413 165.707 209.68 165.867 209.92C166 210.12 166.24 210.287 166.587 210.42C166.934 210.553 167.294 210.633 167.667 210.66C168.094 210.687 168.467 210.573 168.787 210.32C169.107 210.053 169.347 209.727 169.507 209.34C169.68 208.953 169.76 208.533 169.747 208.08C169.734 207.627 169.614 207.213 169.387 206.84C169.227 206.573 169 206.38 168.707 206.26C168.427 206.127 168.127 206.06 167.807 206.06C167.5 206.047 167.194 206.093 166.887 206.2C166.58 206.293 166.32 206.44 166.107 206.64ZM187.516 209.22C187.516 209.647 187.503 210.107 187.476 210.6C187.463 211.093 187.443 211.553 187.416 211.98C187.416 212.38 187.396 212.78 187.356 213.18C187.329 213.527 187.276 213.9 187.196 214.3C187.116 214.713 187.003 215.093 186.856 215.44C186.669 215.893 186.416 216.28 186.096 216.6C185.776 216.933 185.363 217.173 184.856 217.32C184.429 217.427 184.029 217.493 183.656 217.52C183.283 217.56 182.883 217.553 182.456 217.5C182.176 217.46 181.876 217.38 181.556 217.26C181.236 217.153 180.936 217.013 180.656 216.84C180.376 216.667 180.129 216.46 179.916 216.22C179.703 215.993 179.556 215.733 179.476 215.44C179.383 215.08 179.376 214.767 179.456 214.5C179.549 214.233 179.689 214.04 179.876 213.92C180.063 213.8 180.283 213.78 180.536 213.86C180.789 213.94 181.029 214.147 181.256 214.48C181.416 214.72 181.649 214.913 181.956 215.06C182.263 215.207 182.589 215.293 182.936 215.32C183.283 215.347 183.616 215.3 183.936 215.18C184.269 215.073 184.529 214.88 184.716 214.6C184.849 214.4 184.943 214.113 184.996 213.74C185.063 213.367 185.103 213 185.116 212.64C184.436 212.92 183.736 213.027 183.016 212.96C182.309 212.88 181.663 212.66 181.076 212.3C180.503 211.927 180.036 211.433 179.676 210.82C179.329 210.193 179.183 209.487 179.236 208.7C179.276 208.02 179.416 207.38 179.656 206.78C179.909 206.18 180.323 205.68 180.896 205.28C181.363 204.96 181.889 204.753 182.476 204.66C183.063 204.553 183.629 204.5 184.176 204.5C184.496 204.5 184.809 204.5 185.116 204.5C185.436 204.5 185.729 204.54 185.996 204.62C186.263 204.7 186.503 204.833 186.716 205.02C186.929 205.207 187.089 205.48 187.196 205.84C187.369 206.4 187.463 206.953 187.476 207.5C187.503 208.047 187.516 208.62 187.516 209.22ZM183.656 210.88C183.789 210.88 183.916 210.867 184.036 210.84C184.169 210.813 184.296 210.78 184.416 210.74C184.643 210.66 184.809 210.553 184.916 210.42C185.036 210.287 185.116 210.14 185.156 209.98C185.196 209.807 185.209 209.62 185.196 209.42C185.196 209.22 185.196 209.013 185.196 208.8C185.196 208.627 185.189 208.433 185.176 208.22C185.176 208.007 185.163 207.807 185.136 207.62C185.109 207.42 185.069 207.247 185.016 207.1C184.963 206.953 184.883 206.86 184.776 206.82C184.589 206.767 184.376 206.733 184.136 206.72C183.896 206.693 183.656 206.693 183.416 206.72C183.176 206.733 182.943 206.78 182.716 206.86C182.503 206.927 182.323 207.02 182.176 207.14C181.976 207.313 181.823 207.527 181.716 207.78C181.609 208.033 181.543 208.3 181.516 208.58C181.503 208.86 181.523 209.133 181.576 209.4C181.643 209.667 181.756 209.907 181.916 210.12C182.103 210.387 182.356 210.58 182.676 210.7C182.996 210.82 183.323 210.88 183.656 210.88ZM191.718 203.96C192.158 203.747 192.618 203.593 193.098 203.5C193.578 203.407 194.051 203.387 194.518 203.44C194.998 203.493 195.458 203.62 195.898 203.82C196.351 204.02 196.765 204.3 197.138 204.66C197.445 204.967 197.711 205.34 197.938 205.78C198.165 206.207 198.331 206.627 198.438 207.04C198.665 207.773 198.698 208.513 198.538 209.26C198.378 210.007 198.105 210.7 197.718 211.34C197.531 211.633 197.298 211.9 197.018 212.14C196.751 212.367 196.465 212.553 196.158 212.7C195.758 212.887 195.325 213.013 194.858 213.08C194.391 213.16 193.938 213.18 193.498 213.14C192.698 213.1 191.991 212.9 191.378 212.54C190.778 212.18 190.291 211.72 189.918 211.16C189.558 210.6 189.318 209.967 189.198 209.26C189.091 208.54 189.138 207.807 189.338 207.06C189.551 206.26 189.858 205.613 190.258 205.12C190.671 204.613 191.158 204.227 191.718 203.96ZM192.318 206.64C192.118 206.827 191.965 207.06 191.858 207.34C191.751 207.62 191.685 207.913 191.658 208.22C191.631 208.513 191.651 208.813 191.718 209.12C191.798 209.413 191.918 209.68 192.078 209.92C192.211 210.12 192.451 210.287 192.798 210.42C193.145 210.553 193.505 210.633 193.878 210.66C194.305 210.687 194.678 210.573 194.998 210.32C195.318 210.053 195.558 209.727 195.718 209.34C195.891 208.953 195.971 208.533 195.958 208.08C195.945 207.627 195.825 207.213 195.598 206.84C195.438 206.573 195.211 206.38 194.918 206.26C194.638 206.127 194.338 206.06 194.018 206.06C193.711 206.047 193.405 206.093 193.098 206.2C192.791 206.293 192.531 206.44 192.318 206.64ZM207.152 210.26C207.312 210.22 207.472 210.193 207.632 210.18C207.805 210.167 207.958 210.187 208.092 210.24C208.238 210.293 208.358 210.387 208.452 210.52C208.545 210.64 208.592 210.813 208.592 211.04C208.592 211.2 208.552 211.353 208.472 211.5C208.392 211.647 208.292 211.78 208.172 211.9C208.052 212.02 207.918 212.127 207.772 212.22C207.625 212.3 207.485 212.367 207.352 212.42C206.965 212.593 206.518 212.727 206.012 212.82C205.518 212.913 205.005 212.947 204.472 212.92C203.752 212.893 203.058 212.753 202.392 212.5C201.738 212.233 201.225 211.8 200.852 211.2C200.505 210.613 200.298 209.96 200.232 209.24C200.165 208.52 200.198 207.84 200.332 207.2C200.478 206.427 200.725 205.8 201.072 205.32C201.432 204.827 201.858 204.433 202.352 204.14C202.952 203.793 203.625 203.613 204.372 203.6C205.118 203.587 205.832 203.733 206.512 204.04C206.965 204.24 207.372 204.513 207.732 204.86C208.092 205.193 208.365 205.6 208.552 206.08C208.605 206.2 208.645 206.347 208.672 206.52C208.712 206.693 208.738 206.88 208.752 207.08C208.765 207.267 208.765 207.453 208.752 207.64C208.738 207.827 208.705 207.993 208.652 208.14C208.572 208.38 208.472 208.567 208.352 208.7C208.232 208.833 208.078 208.933 207.892 209C207.705 209.067 207.478 209.113 207.212 209.14C206.958 209.153 206.652 209.167 206.292 209.18C205.972 209.193 205.672 209.2 205.392 209.2C205.112 209.2 204.825 209.2 204.532 209.2C204.238 209.187 203.932 209.18 203.612 209.18C203.305 209.167 202.958 209.153 202.572 209.14C202.532 209.407 202.565 209.64 202.672 209.84C202.792 210.027 202.952 210.187 203.152 210.32C203.352 210.44 203.578 210.533 203.832 210.6C204.085 210.667 204.332 210.707 204.572 210.72C205.025 210.747 205.458 210.713 205.872 210.62C206.285 210.513 206.712 210.393 207.152 210.26ZM206.292 206.38C206.038 206.087 205.772 205.873 205.492 205.74C205.278 205.647 205.052 205.607 204.812 205.62C204.585 205.62 204.365 205.653 204.152 205.72C203.765 205.813 203.438 206.013 203.172 206.32C203.145 206.347 203.098 206.413 203.032 206.52C202.965 206.613 202.898 206.713 202.832 206.82C202.778 206.927 202.738 207.027 202.712 207.12C202.685 207.213 202.698 207.26 202.752 207.26H206.672C206.658 207.073 206.625 206.92 206.572 206.8C206.518 206.667 206.425 206.527 206.292 206.38ZM215.148 209.48C214.895 209.32 214.608 209.193 214.288 209.1C213.982 209.007 213.662 208.92 213.328 208.84C213.008 208.76 212.695 208.673 212.388 208.58C212.082 208.473 211.802 208.327 211.548 208.14C211.002 207.727 210.682 207.22 210.588 206.62C210.508 206.007 210.642 205.393 210.988 204.78C211.175 204.46 211.422 204.2 211.728 204C212.035 203.787 212.368 203.627 212.728 203.52C213.102 203.4 213.482 203.333 213.868 203.32C214.255 203.307 214.622 203.327 214.968 203.38C215.195 203.42 215.435 203.48 215.688 203.56C215.942 203.627 216.175 203.72 216.388 203.84C216.615 203.96 216.815 204.113 216.988 204.3C217.175 204.473 217.308 204.693 217.388 204.96C217.442 205.133 217.448 205.3 217.408 205.46C217.382 205.62 217.315 205.753 217.208 205.86C217.115 205.967 216.988 206.047 216.828 206.1C216.682 206.153 216.522 206.167 216.348 206.14C216.148 206.1 215.962 206.04 215.788 205.96C215.615 205.88 215.442 205.793 215.268 205.7C215.095 205.607 214.915 205.527 214.728 205.46C214.555 205.393 214.368 205.36 214.168 205.36C213.862 205.347 213.608 205.4 213.408 205.52C213.208 205.64 213.068 205.787 212.988 205.96C212.922 206.133 212.928 206.32 213.008 206.52C213.102 206.72 213.288 206.893 213.568 207.04C213.822 207.173 214.102 207.28 214.408 207.36C214.715 207.44 215.015 207.52 215.308 207.6C215.615 207.68 215.908 207.773 216.188 207.88C216.482 207.987 216.742 208.133 216.968 208.32C217.408 208.68 217.675 209.1 217.768 209.58C217.875 210.06 217.848 210.533 217.688 211C217.528 211.467 217.248 211.88 216.848 212.24C216.462 212.6 216.002 212.84 215.468 212.96C215.082 213.04 214.662 213.08 214.208 213.08C213.768 213.08 213.328 213.033 212.888 212.94C212.462 212.847 212.048 212.7 211.648 212.5C211.262 212.3 210.935 212.047 210.668 211.74C210.482 211.527 210.382 211.287 210.368 211.02C210.368 210.74 210.422 210.5 210.528 210.3C210.648 210.087 210.815 209.94 211.028 209.86C211.242 209.78 211.482 209.827 211.748 210C211.962 210.147 212.215 210.293 212.508 210.44C212.802 210.573 213.095 210.68 213.388 210.76C213.682 210.84 213.962 210.88 214.228 210.88C214.508 210.88 214.748 210.82 214.948 210.7C215.242 210.513 215.395 210.3 215.408 210.06C215.422 209.807 215.335 209.613 215.148 209.48ZM230.386 204.54C230.612 204.607 230.759 204.733 230.826 204.92C230.892 205.093 230.912 205.28 230.886 205.48C230.806 205.893 230.579 206.147 230.206 206.24C229.992 206.293 229.772 206.32 229.546 206.32C229.332 206.32 229.112 206.327 228.886 206.34V210.96C228.886 211.28 228.866 211.607 228.826 211.94C228.826 212.06 228.792 212.187 228.726 212.32C228.699 212.387 228.679 212.427 228.666 212.44C228.666 212.467 228.652 212.507 228.626 212.56C228.546 212.707 228.439 212.827 228.306 212.92C228.012 213.08 227.699 213.12 227.366 213.04C227.166 213 227.012 212.933 226.906 212.84C226.786 212.747 226.699 212.633 226.646 212.5C226.619 212.433 226.599 212.367 226.586 212.3C226.572 212.233 226.552 212.167 226.526 212.1C226.512 212.033 226.499 211.973 226.486 211.92C226.486 211.853 226.486 211.8 226.486 211.76V210.6C226.486 209.907 226.486 209.187 226.486 208.44C226.499 207.693 226.506 206.973 226.506 206.28C226.199 206.267 225.879 206.26 225.546 206.26C225.226 206.247 224.992 206.167 224.846 206.02C224.766 205.94 224.712 205.84 224.686 205.72C224.659 205.587 224.646 205.453 224.646 205.32C224.659 205.187 224.686 205.067 224.726 204.96C224.766 204.84 224.819 204.753 224.886 204.7C225.059 204.54 225.212 204.453 225.346 204.44C225.492 204.413 225.672 204.393 225.886 204.38C225.912 204.38 225.999 204.38 226.146 204.38C226.306 204.367 226.406 204.36 226.446 204.36C226.459 203.907 226.472 203.453 226.486 203C226.499 202.547 226.539 202.133 226.606 201.76C226.686 201.373 226.799 201.04 226.946 200.76C227.106 200.467 227.346 200.247 227.666 200.1C228.052 199.927 228.492 199.82 228.986 199.78C229.479 199.74 229.926 199.8 230.326 199.96C230.512 200.027 230.692 200.16 230.866 200.36C231.052 200.56 231.139 200.78 231.126 201.02C231.112 201.26 231.066 201.48 230.986 201.68C230.906 201.88 230.732 202.013 230.466 202.08C230.346 202.107 230.219 202.12 230.086 202.12C229.966 202.107 229.839 202.1 229.706 202.1C229.572 202.1 229.446 202.12 229.326 202.16C229.219 202.187 229.126 202.247 229.046 202.34C228.979 202.42 228.932 202.527 228.906 202.66C228.892 202.793 228.879 202.933 228.866 203.08C228.852 203.227 228.846 203.373 228.846 203.52C228.859 203.653 228.866 203.767 228.866 203.86V204.36C229.172 204.387 229.452 204.407 229.706 204.42C229.972 204.433 230.199 204.473 230.386 204.54ZM235.271 205.42C235.271 205.793 235.271 206.213 235.271 206.68C235.285 207.147 235.291 207.633 235.291 208.14C235.291 208.633 235.291 209.127 235.291 209.62C235.291 210.1 235.285 210.547 235.271 210.96C235.258 211.16 235.238 211.38 235.211 211.62C235.185 211.847 235.131 212.06 235.051 212.26C234.971 212.46 234.845 212.627 234.671 212.76C234.511 212.88 234.291 212.933 234.011 212.92C233.598 212.893 233.298 212.713 233.111 212.38C232.938 212.047 232.838 211.58 232.811 210.98C232.811 210.673 232.805 210.32 232.791 209.92C232.791 209.52 232.785 209.113 232.771 208.7C232.771 208.287 232.771 207.887 232.771 207.5C232.771 207.1 232.771 206.74 232.771 206.42C232.771 206.233 232.765 206.007 232.751 205.74C232.751 205.473 232.758 205.2 232.771 204.92C232.785 204.64 232.818 204.373 232.871 204.12C232.925 203.853 233.011 203.633 233.131 203.46C233.225 203.353 233.358 203.273 233.531 203.22C233.705 203.153 233.885 203.12 234.071 203.12C234.271 203.12 234.458 203.153 234.631 203.22C234.818 203.287 234.951 203.38 235.031 203.5C235.085 203.58 235.125 203.693 235.151 203.84C235.178 203.987 235.198 204.153 235.211 204.34C235.238 204.513 235.251 204.7 235.251 204.9C235.265 205.087 235.271 205.26 235.271 205.42ZM234.511 201.38C234.098 201.487 233.751 201.447 233.471 201.26C233.205 201.06 233.038 200.767 232.971 200.38C232.918 200.1 232.938 199.853 233.031 199.64C233.125 199.427 233.265 199.267 233.451 199.16C233.638 199.04 233.851 198.987 234.091 199C234.331 199.013 234.571 199.107 234.811 199.28C235.038 199.44 235.198 199.627 235.291 199.84C235.398 200.053 235.431 200.26 235.391 200.46C235.365 200.66 235.278 200.847 235.131 201.02C234.985 201.18 234.778 201.3 234.511 201.38ZM237.049 205.92C237.049 205.76 237.049 205.58 237.049 205.38C237.049 205.167 237.055 204.953 237.069 204.74C237.082 204.513 237.102 204.3 237.129 204.1C237.169 203.887 237.222 203.7 237.289 203.54C237.395 203.3 237.562 203.14 237.789 203.06C238.015 202.967 238.262 202.927 238.529 202.94C238.809 202.94 239.029 202.987 239.189 203.08C239.349 203.173 239.469 203.3 239.549 203.46C239.629 203.607 239.675 203.78 239.689 203.98C239.715 204.167 239.729 204.367 239.729 204.58C239.849 204.367 240.009 204.193 240.209 204.06C240.422 203.927 240.635 203.82 240.849 203.74C241.062 203.66 241.255 203.607 241.429 203.58C241.602 203.54 241.702 203.52 241.729 203.52C242.062 203.493 242.362 203.487 242.629 203.5C242.909 203.513 243.215 203.573 243.549 203.68C243.762 203.76 243.982 203.873 244.209 204.02C244.435 204.153 244.635 204.313 244.809 204.5C244.982 204.687 245.095 204.893 245.149 205.12C245.215 205.333 245.189 205.56 245.069 205.8C244.882 206.133 244.675 206.3 244.449 206.3C244.222 206.287 243.975 206.247 243.709 206.18C243.562 206.153 243.389 206.093 243.189 206C242.989 205.907 242.815 205.847 242.669 205.82C242.215 205.753 241.815 205.787 241.469 205.92C241.122 206.053 240.822 206.213 240.569 206.4C240.275 206.627 240.022 206.887 239.809 207.18V210.06C239.809 210.42 239.802 210.793 239.789 211.18C239.789 211.567 239.735 211.92 239.629 212.24C239.535 212.547 239.369 212.8 239.129 213C238.902 213.187 238.569 213.267 238.129 213.24C237.889 213.227 237.675 213.113 237.489 212.9C237.302 212.673 237.189 212.453 237.149 212.24C237.122 212.04 237.102 211.8 237.089 211.52C237.075 211.24 237.062 210.947 237.049 210.64C237.049 210.333 237.049 210.027 237.049 209.72C237.049 209.4 237.049 209.107 237.049 208.84V205.92ZM250.715 209.48C250.461 209.32 250.175 209.193 249.855 209.1C249.548 209.007 249.228 208.92 248.895 208.84C248.575 208.76 248.261 208.673 247.955 208.58C247.648 208.473 247.368 208.327 247.115 208.14C246.568 207.727 246.248 207.22 246.155 206.62C246.075 206.007 246.208 205.393 246.555 204.78C246.741 204.46 246.988 204.2 247.295 204C247.601 203.787 247.935 203.627 248.295 203.52C248.668 203.4 249.048 203.333 249.435 203.32C249.821 203.307 250.188 203.327 250.535 203.38C250.761 203.42 251.001 203.48 251.255 203.56C251.508 203.627 251.741 203.72 251.955 203.84C252.181 203.96 252.381 204.113 252.555 204.3C252.741 204.473 252.875 204.693 252.955 204.96C253.008 205.133 253.015 205.3 252.975 205.46C252.948 205.62 252.881 205.753 252.775 205.86C252.681 205.967 252.555 206.047 252.395 206.1C252.248 206.153 252.088 206.167 251.915 206.14C251.715 206.1 251.528 206.04 251.355 205.96C251.181 205.88 251.008 205.793 250.835 205.7C250.661 205.607 250.481 205.527 250.295 205.46C250.121 205.393 249.935 205.36 249.735 205.36C249.428 205.347 249.175 205.4 248.975 205.52C248.775 205.64 248.635 205.787 248.555 205.96C248.488 206.133 248.495 206.32 248.575 206.52C248.668 206.72 248.855 206.893 249.135 207.04C249.388 207.173 249.668 207.28 249.975 207.36C250.281 207.44 250.581 207.52 250.875 207.6C251.181 207.68 251.475 207.773 251.755 207.88C252.048 207.987 252.308 208.133 252.535 208.32C252.975 208.68 253.241 209.1 253.335 209.58C253.441 210.06 253.415 210.533 253.255 211C253.095 211.467 252.815 211.88 252.415 212.24C252.028 212.6 251.568 212.84 251.035 212.96C250.648 213.04 250.228 213.08 249.775 213.08C249.335 213.08 248.895 213.033 248.455 212.94C248.028 212.847 247.615 212.7 247.215 212.5C246.828 212.3 246.501 212.047 246.235 211.74C246.048 211.527 245.948 211.287 245.935 211.02C245.935 210.74 245.988 210.5 246.095 210.3C246.215 210.087 246.381 209.94 246.595 209.86C246.808 209.78 247.048 209.827 247.315 210C247.528 210.147 247.781 210.293 248.075 210.44C248.368 210.573 248.661 210.68 248.955 210.76C249.248 210.84 249.528 210.88 249.795 210.88C250.075 210.88 250.315 210.82 250.515 210.7C250.808 210.513 250.961 210.3 250.975 210.06C250.988 209.807 250.901 209.613 250.715 209.48ZM262.697 204.18C262.804 204.433 262.811 204.713 262.717 205.02C262.637 205.327 262.484 205.527 262.257 205.62C262.137 205.673 261.977 205.72 261.777 205.76C261.577 205.787 261.357 205.813 261.117 205.84C260.891 205.867 260.664 205.887 260.437 205.9C260.211 205.913 260.017 205.92 259.857 205.92C259.871 206.32 259.884 206.733 259.897 207.16C259.911 207.573 259.924 207.98 259.937 208.38C259.951 208.78 259.957 209.167 259.957 209.54C259.957 209.9 259.951 210.227 259.937 210.52C259.937 210.72 259.937 210.953 259.937 211.22C259.937 211.473 259.917 211.72 259.877 211.96C259.851 212.2 259.804 212.413 259.737 212.6C259.671 212.773 259.571 212.887 259.437 212.94C259.024 213.113 258.644 213.16 258.297 213.08C257.964 213.013 257.724 212.873 257.577 212.66C257.471 212.487 257.391 212.287 257.337 212.06C257.284 211.82 257.244 211.58 257.217 211.34C257.204 211.087 257.197 210.847 257.197 210.62C257.211 210.38 257.217 210.173 257.217 210C257.231 209.44 257.237 208.807 257.237 208.1C257.251 207.38 257.257 206.66 257.257 205.94H256.957C256.797 205.94 256.591 205.94 256.337 205.94C256.097 205.927 255.851 205.907 255.597 205.88C255.357 205.84 255.131 205.793 254.917 205.74C254.704 205.673 254.551 205.58 254.457 205.46C254.311 205.287 254.217 205.1 254.177 204.9C254.151 204.7 254.164 204.513 254.217 204.34C254.284 204.153 254.384 203.993 254.517 203.86C254.651 203.713 254.804 203.62 254.977 203.58C255.217 203.513 255.557 203.48 255.997 203.48C256.437 203.467 256.851 203.467 257.237 203.48C257.224 203.347 257.217 203.22 257.217 203.1C257.217 202.967 257.211 202.84 257.197 202.72C257.184 202.56 257.177 202.36 257.177 202.12C257.177 201.867 257.191 201.62 257.217 201.38C257.257 201.127 257.317 200.893 257.397 200.68C257.477 200.453 257.591 200.28 257.737 200.16C257.937 200 258.137 199.913 258.337 199.9C258.551 199.873 258.744 199.9 258.917 199.98C259.104 200.06 259.257 200.18 259.377 200.34C259.511 200.487 259.604 200.653 259.657 200.84C259.697 201 259.731 201.193 259.757 201.42C259.784 201.633 259.797 201.86 259.797 202.1C259.811 202.34 259.817 202.58 259.817 202.82C259.817 203.06 259.817 203.28 259.817 203.48H260.017C260.217 203.48 260.451 203.473 260.717 203.46C260.984 203.447 261.244 203.453 261.497 203.48C261.764 203.507 262.004 203.573 262.217 203.68C262.431 203.773 262.591 203.94 262.697 204.18Z" fill="black" fill-opacity="0.67"/>
</g>
<defs>
<clipPath id="clip0_7_343">
<rect width="360" height="800" fill="white"/>
</clipPath>
</defs>
</svg>
